<?xml version="1.0" encoding="utf-8"?>
<!-- Generator: Adobe Illustrator 25.0.0, SVG Export Plug-In . SVG Version: 6.00 Build 0)  -->
<svg version="1.1" id="Layer_1" xmlns="http://www.w3.org/2000/svg" xmlns:xlink="http://www.w3.org/1999/xlink" x="0px" y="0px"
	 viewBox="0 0 192 108" style="enable-background:new 0 0 192 108;" xml:space="preserve">
<style type="text/css">
	.st0{fill:#010101;}
	.st1{fill:#FEC46B;}
</style>
<rect class="st0" width="192" height="108"/>
<g>
	<path class="st1" d="M42.79,62.26l-0.03-0.02l-8.17,4.29l1.56-9.09l-6.61-6.44l9.11-1.32C38.79,54.35,40.3,58.67,42.79,62.26z"/>
	<path class="st1" d="M49.37,57.45l1.55,9.05c-5.52-4.25-9.08-10.92-9.08-18.43c0-2.29,0.33-4.51,0.95-6.6l4.06,8.22l9.13,1.33
		L49.37,57.45z"/>
	<path class="st1" d="M41.33,54.25c-0.1,0.03-0.2,0.06-0.29,0.09c-0.1,0.03-0.2,0.07-0.31,0.1c-0.54-1.85-0.85-3.8-0.91-5.81
		c0-0.06,0-0.13,0-0.19l0.39-0.21l0.48,0.25c0,0.11,0,0.21,0,0.32c0,0.22,0,0.45,0.01,0.67C40.75,51.12,40.97,52.72,41.33,54.25z"/>
	<path class="st1" d="M47.35,65.09c-1.27-1.16-2.4-2.46-3.39-3.88c-1.13-1.62-2.05-3.39-2.74-5.27c0.17-0.06,0.35-0.12,0.53-0.18
		c0.71,2.27,1.76,4.39,3.09,6.29C45.59,63.14,46.43,64.16,47.35,65.09z"/>
	<polygon class="st1" points="40.93,47.2 41.09,48.17 40.7,47.96 40.22,47.71 39.83,47.92 39.34,48.17 39.51,47.2 38.8,46.51 
		39.78,46.36 39.85,46.22 40.22,45.48 40.66,46.36 40.77,46.38 41.64,46.51 	"/>
	<g>
		<path class="st1" d="M61.85,51.05c-0.23,0-0.42-0.07-0.58-0.21c-0.16-0.14-0.23-0.33-0.23-0.56s0.08-0.42,0.23-0.55
			c0.16-0.14,0.35-0.21,0.58-0.21h5.91c0.23,0,0.42,0.07,0.58,0.21s0.23,0.33,0.23,0.56c0,0.23-0.08,0.42-0.23,0.55
			c-0.16,0.14-0.35,0.21-0.58,0.21H61.85z M64.8,58.84c-0.25,0-0.45-0.08-0.61-0.23s-0.24-0.35-0.24-0.58V50.3h1.73v7.73
			c0,0.23-0.08,0.42-0.25,0.58C65.27,58.76,65.06,58.84,64.8,58.84z"/>
		<path class="st1" d="M70.83,49.52c0.21,0,0.4,0.08,0.57,0.23c0.16,0.16,0.25,0.35,0.25,0.58v7.7c0,0.23-0.08,0.42-0.25,0.58
			c-0.17,0.16-0.36,0.23-0.59,0.23c-0.25,0-0.45-0.08-0.6-0.23c-0.15-0.16-0.23-0.35-0.23-0.58v-7.7c0-0.23,0.08-0.42,0.24-0.58
			S70.58,49.52,70.83,49.52z M70.79,53.39h5.94v1.53h-5.94V53.39z M76.73,49.52c0.25,0,0.45,0.08,0.6,0.23s0.23,0.35,0.23,0.58v7.7
			c0,0.23-0.08,0.42-0.23,0.58c-0.16,0.16-0.36,0.23-0.62,0.23c-0.21,0-0.4-0.08-0.57-0.23c-0.16-0.16-0.25-0.35-0.25-0.58v-7.7
			c0-0.23,0.08-0.42,0.25-0.58C76.31,49.6,76.51,49.52,76.73,49.52z"/>
		<path class="st1" d="M81.22,58.03c0,0.23-0.08,0.42-0.25,0.58c-0.17,0.16-0.36,0.23-0.59,0.23c-0.25,0-0.45-0.08-0.6-0.23
			c-0.15-0.16-0.23-0.35-0.23-0.58v-7.7c0-0.23,0.08-0.42,0.24-0.58s0.36-0.23,0.61-0.23c0.21,0,0.4,0.08,0.57,0.23
			c0.16,0.16,0.25,0.35,0.25,0.58V58.03z"/>
		<path class="st1" d="M84.03,49.52h4.46c0.23,0,0.42,0.07,0.58,0.22c0.16,0.15,0.23,0.34,0.23,0.57c0,0.22-0.08,0.4-0.23,0.54
			c-0.16,0.14-0.35,0.21-0.58,0.21h-3.73l0.12-0.23v2.6l-0.11-0.11h3.12c0.23,0,0.42,0.07,0.58,0.22s0.23,0.33,0.23,0.57
			c0,0.22-0.08,0.4-0.23,0.54s-0.35,0.21-0.58,0.21h-3.08l0.07-0.11v2.69l-0.11-0.12h3.72c0.23,0,0.42,0.08,0.58,0.23
			c0.16,0.16,0.23,0.34,0.23,0.54c0,0.22-0.08,0.4-0.23,0.55c-0.16,0.14-0.35,0.21-0.58,0.21h-4.46c-0.23,0-0.42-0.08-0.58-0.23
			s-0.23-0.35-0.23-0.58v-7.7c0-0.23,0.08-0.42,0.23-0.58S83.8,49.52,84.03,49.52z M86.53,48.04l-1.12,0.65
			c-0.15,0.09-0.28,0.16-0.39,0.21c-0.11,0.05-0.2,0.08-0.29,0.08c-0.12,0-0.21-0.04-0.29-0.11c-0.08-0.07-0.12-0.15-0.12-0.23
			c0-0.07,0.01-0.13,0.04-0.19c0.03-0.05,0.08-0.12,0.16-0.21l0.84-0.96c0.12-0.12,0.23-0.22,0.36-0.29c0.12-0.07,0.28-0.1,0.45-0.1
			h0.21c0.18,0,0.33,0.03,0.45,0.1c0.12,0.07,0.24,0.16,0.36,0.29l0.84,0.96c0.08,0.09,0.13,0.16,0.16,0.21
			c0.03,0.05,0.04,0.12,0.04,0.19c0,0.08-0.04,0.16-0.11,0.23c-0.08,0.07-0.18,0.11-0.3,0.11c-0.09,0-0.19-0.03-0.29-0.08
			c-0.11-0.05-0.24-0.12-0.39-0.21l-1.12-0.65H86.53z"/>
		<path class="st1" d="M97.91,49.52c0.21,0,0.39,0.07,0.52,0.21c0.13,0.14,0.2,0.32,0.2,0.53v7.77c0,0.23-0.08,0.42-0.23,0.58
			s-0.35,0.23-0.58,0.23c-0.12,0-0.23-0.02-0.35-0.06c-0.12-0.04-0.21-0.1-0.27-0.17l-5.23-6.65l0.35-0.21v6.34
			c0,0.21-0.07,0.39-0.21,0.53c-0.14,0.14-0.32,0.21-0.54,0.21c-0.21,0-0.39-0.07-0.52-0.21c-0.13-0.14-0.2-0.32-0.2-0.53v-7.77
			c0-0.23,0.08-0.42,0.23-0.58s0.35-0.23,0.58-0.23c0.12,0,0.25,0.02,0.39,0.07c0.13,0.05,0.23,0.12,0.29,0.22l5.07,6.47l-0.23,0.16
			v-6.18c0-0.21,0.07-0.39,0.2-0.53S97.69,49.52,97.91,49.52z"/>
		<path class="st1" d="M111.16,49.49c0.22,0,0.41,0.07,0.58,0.22c0.16,0.15,0.25,0.33,0.25,0.55c0,0.12-0.03,0.24-0.08,0.36
			l-3.29,7.7c-0.08,0.18-0.19,0.31-0.34,0.39c-0.15,0.08-0.29,0.13-0.45,0.13c-0.14-0.01-0.28-0.05-0.41-0.14
			c-0.13-0.08-0.24-0.21-0.31-0.37l-3.29-7.73c-0.03-0.05-0.04-0.11-0.05-0.17c-0.01-0.06-0.01-0.11-0.01-0.17
			c0-0.26,0.09-0.46,0.28-0.59s0.36-0.21,0.53-0.21c0.34,0,0.58,0.17,0.73,0.52l2.92,6.86l-0.47,0.01l2.68-6.87
			C110.58,49.66,110.82,49.49,111.16,49.49z"/>
		<path class="st1" d="M116.81,51.61l-2.88,6.77c-0.06,0.17-0.16,0.3-0.29,0.39c-0.13,0.09-0.27,0.14-0.42,0.14
			c-0.24,0-0.42-0.07-0.53-0.2c-0.12-0.13-0.17-0.3-0.17-0.49c0-0.08,0.01-0.16,0.04-0.25l3.32-7.97c0.07-0.18,0.18-0.31,0.33-0.41
			s0.3-0.14,0.47-0.12c0.16,0,0.31,0.05,0.45,0.14c0.14,0.09,0.24,0.22,0.3,0.39l3.28,7.81c0.04,0.12,0.07,0.22,0.07,0.32
			c0,0.24-0.08,0.43-0.23,0.57c-0.16,0.14-0.33,0.21-0.51,0.21c-0.16,0-0.3-0.05-0.43-0.15s-0.23-0.23-0.3-0.4l-2.86-6.67
			L116.81,51.61z M114.35,56.75l0.73-1.53h3.6l0.25,1.53H114.35z M116.68,48.75c-0.5,0-0.93-0.11-1.3-0.33s-0.64-0.52-0.81-0.91
			c-0.09-0.22-0.09-0.4,0-0.53s0.22-0.2,0.39-0.2c0.19,0,0.33,0.04,0.45,0.13s0.23,0.2,0.35,0.35c0.1,0.12,0.22,0.2,0.37,0.27
			c0.15,0.06,0.33,0.09,0.55,0.09c0.43,0,0.73-0.12,0.92-0.36c0.12-0.15,0.24-0.27,0.35-0.35c0.11-0.08,0.26-0.13,0.45-0.13
			c0.18,0,0.31,0.06,0.4,0.19c0.09,0.13,0.09,0.3,0,0.51c-0.17,0.41-0.44,0.72-0.81,0.94S117.18,48.75,116.68,48.75z"/>
		<path class="st1" d="M128.97,49.52c0.21,0,0.39,0.07,0.52,0.21c0.13,0.14,0.2,0.32,0.2,0.53v7.77c0,0.23-0.08,0.42-0.23,0.58
			s-0.35,0.23-0.58,0.23c-0.12,0-0.23-0.02-0.35-0.06c-0.12-0.04-0.21-0.1-0.27-0.17l-5.23-6.65l0.35-0.21v6.34
			c0,0.21-0.07,0.39-0.21,0.53c-0.14,0.14-0.32,0.21-0.54,0.21c-0.21,0-0.39-0.07-0.52-0.21c-0.13-0.14-0.2-0.32-0.2-0.53v-7.77
			c0-0.23,0.08-0.42,0.23-0.58c0.16-0.16,0.35-0.23,0.58-0.23c0.12,0,0.25,0.02,0.39,0.07c0.13,0.05,0.23,0.12,0.29,0.22l5.07,6.47
			l-0.23,0.16v-6.18c0-0.21,0.07-0.39,0.2-0.53C128.57,49.59,128.75,49.52,128.97,49.52z"/>
		<path class="st1" d="M136.27,49.52c0.21,0,0.4,0.08,0.57,0.23c0.17,0.16,0.25,0.35,0.25,0.58v7.7c0,0.23-0.08,0.42-0.25,0.58
			c-0.17,0.16-0.36,0.23-0.59,0.23c-0.25,0-0.45-0.08-0.6-0.23c-0.15-0.16-0.23-0.35-0.23-0.58v-7.7c0-0.23,0.08-0.42,0.24-0.58
			C135.82,49.6,136.02,49.52,136.27,49.52z M136.23,53.39h5.94v1.53h-5.94V53.39z M142.17,49.52c0.25,0,0.45,0.08,0.6,0.23
			c0.15,0.16,0.23,0.35,0.23,0.58v7.7c0,0.23-0.08,0.42-0.23,0.58s-0.36,0.23-0.62,0.23c-0.21,0-0.4-0.08-0.57-0.23
			s-0.25-0.35-0.25-0.58v-7.7c0-0.23,0.08-0.42,0.25-0.58C141.75,49.6,141.95,49.52,142.17,49.52z"/>
		<path class="st1" d="M153.57,54.18c0,0.67-0.11,1.29-0.33,1.86c-0.22,0.58-0.54,1.09-0.94,1.53s-0.88,0.78-1.44,1.03
			c-0.55,0.25-1.16,0.37-1.82,0.37s-1.26-0.12-1.81-0.37c-0.55-0.25-1.03-0.59-1.43-1.03s-0.72-0.95-0.94-1.53
			c-0.22-0.58-0.33-1.2-0.33-1.86s0.11-1.29,0.33-1.86c0.22-0.58,0.53-1.09,0.94-1.53s0.88-0.78,1.43-1.03
			c0.55-0.25,1.15-0.37,1.81-0.37s1.26,0.12,1.82,0.37c0.55,0.25,1.03,0.59,1.44,1.03s0.72,0.95,0.94,1.53
			C153.46,52.89,153.57,53.51,153.57,54.18z M151.84,54.18c0-0.6-0.12-1.13-0.36-1.62c-0.24-0.48-0.57-0.87-0.99-1.15
			c-0.42-0.28-0.9-0.43-1.45-0.43s-1.03,0.14-1.45,0.43c-0.42,0.28-0.74,0.67-0.98,1.15s-0.35,1.02-0.35,1.62
			c0,0.59,0.12,1.13,0.35,1.62c0.24,0.48,0.56,0.87,0.98,1.15c0.42,0.29,0.9,0.43,1.45,0.43s1.03-0.14,1.45-0.43
			c0.42-0.28,0.75-0.67,0.99-1.15C151.72,55.31,151.84,54.77,151.84,54.18z M149.03,60.8c-0.29,0-0.5-0.05-0.63-0.15
			c-0.12-0.1-0.19-0.27-0.19-0.52v-0.25c0-0.26,0.07-0.43,0.21-0.53c0.14-0.09,0.34-0.14,0.61-0.14c0.33,0,0.55,0.05,0.68,0.14
			c0.12,0.09,0.19,0.27,0.19,0.53v0.25c0,0.26-0.07,0.43-0.2,0.53C149.56,60.75,149.34,60.8,149.03,60.8z"/>
		<path class="st1" d="M161.63,49.97c0.23,0.12,0.37,0.3,0.41,0.55s-0.02,0.48-0.19,0.68c-0.12,0.16-0.26,0.25-0.45,0.27
			c-0.18,0.02-0.37-0.02-0.55-0.11c-0.21-0.1-0.44-0.17-0.67-0.23c-0.24-0.05-0.48-0.08-0.74-0.08c-0.48,0-0.91,0.08-1.29,0.23
			c-0.38,0.15-0.7,0.37-0.96,0.65c-0.27,0.28-0.47,0.61-0.61,0.99s-0.21,0.8-0.21,1.27c0,0.54,0.08,1.01,0.23,1.41s0.37,0.73,0.65,1
			s0.6,0.46,0.97,0.59c0.37,0.13,0.78,0.19,1.21,0.19c0.24,0,0.48-0.02,0.72-0.07c0.24-0.04,0.47-0.12,0.69-0.24
			c0.19-0.09,0.37-0.12,0.55-0.09c0.18,0.03,0.34,0.12,0.46,0.28c0.18,0.22,0.24,0.45,0.19,0.69s-0.18,0.41-0.41,0.51
			c-0.23,0.12-0.47,0.21-0.71,0.29s-0.49,0.13-0.74,0.17s-0.5,0.06-0.76,0.06c-0.64,0-1.25-0.1-1.82-0.31
			c-0.57-0.2-1.08-0.51-1.53-0.91c-0.45-0.4-0.8-0.9-1.06-1.5s-0.39-1.29-0.39-2.08c0-0.68,0.12-1.31,0.35-1.89s0.57-1.08,1-1.5
			c0.43-0.42,0.94-0.75,1.53-0.99c0.59-0.24,1.22-0.35,1.92-0.35c0.39,0,0.77,0.04,1.15,0.13S161.3,49.8,161.63,49.97z"/>
	</g>
</g>
</svg>
