<?xml version="1.0" encoding="utf-8"?>
<!-- Generator: Adobe Illustrator 25.0.0, SVG Export Plug-In . SVG Version: 6.00 Build 0)  -->
<svg version="1.1" id="Layer_1" xmlns="http://www.w3.org/2000/svg" xmlns:xlink="http://www.w3.org/1999/xlink" x="0px" y="0px"
	 viewBox="0 0 10 10" style="enable-background:new 0 0 10 10;" xml:space="preserve">
<style type="text/css">
	.st0{opacity:0.3;}
	.st1{fill:#FEC46B;}
</style>
<rect width="10" height="10"/>
<g class="st0">
	<path class="st1" d="M5,6.7L5,6.7L3.3,7.6l0.3-1.9L2.3,4.4l1.9-0.3C4.2,5.1,4.5,6,5,6.7z"/>
	<path class="st1" d="M6.4,5.7l0.3,1.9C5.6,6.7,4.8,5.3,4.8,3.8c0-0.5,0.1-0.9,0.2-1.4l0.8,1.7l1.9,0.3L6.4,5.7z"/>
	<path class="st1" d="M4.7,5.1C4.7,5.1,4.7,5.1,4.7,5.1c-0.1,0-0.1,0-0.1,0C4.5,4.7,4.4,4.3,4.4,3.9c0,0,0,0,0,0l0.1-0.1l0.1,0
		c0,0,0,0,0,0.1c0,0,0,0.1,0,0.1C4.6,4.4,4.6,4.7,4.7,5.1z"/>
	<path class="st1" d="M5.9,7.3C5.7,7.1,5.4,6.8,5.2,6.5C5,6.2,4.8,5.8,4.7,5.4c0,0,0.1,0,0.1,0c0.2,0.5,0.4,0.9,0.6,1.3
		C5.6,6.9,5.8,7.1,5.9,7.3z"/>
	<polygon class="st1" points="4.6,3.6 4.7,3.8 4.6,3.8 4.5,3.7 4.4,3.7 4.3,3.8 4.3,3.6 4.2,3.4 4.4,3.4 4.4,3.4 4.5,3.2 4.6,3.4 
		4.6,3.4 4.8,3.4 	"/>
</g>
</svg>
