<svg id="Layer_1" data-name="Layer 1" xmlns="http://www.w3.org/2000/svg" viewBox="0 0 192 108"><defs><style>.cls-1{fill:#010101;}.cls-2{fill:#fec46b;}</style></defs><rect class="cls-1" width="192" height="108"/><path class="cls-2" d="M42.79,62.26h0l-8.17,4.29,1.56-9.09L29.55,51l9.11-1.33A23.14,23.14,0,0,0,42.79,62.26Z"/><path class="cls-2" d="M49.37,57.45l1.55,9a23.28,23.28,0,0,1-8.13-25l4.05,8.22L56,51Z"/><path class="cls-2" d="M41.33,54.25l-.29.1-.3.1a23.19,23.19,0,0,1-.91-5.81v-.19l.39-.21.48.25c0,.11,0,.22,0,.32s0,.45,0,.67A24,24,0,0,0,41.33,54.25Z"/><path class="cls-2" d="M47.35,65.09A24.06,24.06,0,0,1,44,61.22a23,23,0,0,1-2.73-5.28l.52-.17a23.16,23.16,0,0,0,3.09,6.29A22.81,22.81,0,0,0,47.35,65.09Z"/><polygon class="cls-2" points="40.93 47.2 41.09 48.17 40.7 47.96 40.22 47.71 39.83 47.92 39.34 48.17 39.51 47.2 38.8 46.51 39.78 46.36 39.85 46.22 40.22 45.48 40.66 46.36 40.77 46.38 41.63 46.51 40.93 47.2"/><path class="cls-2" d="M61.85,51.05a.84.84,0,0,1-.58-.21.75.75,0,0,1-.23-.56.74.74,0,0,1,.23-.56.89.89,0,0,1,.58-.2h5.92a.84.84,0,0,1,.58.21.74.74,0,0,1,.23.56.7.7,0,0,1-.23.55.84.84,0,0,1-.58.21Zm2.95,7.79a.84.84,0,0,1-.61-.23A.78.78,0,0,1,64,58V50.3h1.73V58a.79.79,0,0,1-.25.58A.89.89,0,0,1,64.8,58.84Z"/><path class="cls-2" d="M70.83,49.52a.85.85,0,0,1,.57.23.78.78,0,0,1,.24.58V58a.76.76,0,0,1-.25.58.86.86,0,0,1-.59.23.81.81,0,0,1-.59-.23A.78.78,0,0,1,70,58v-7.7a.78.78,0,0,1,.24-.58A.85.85,0,0,1,70.83,49.52Zm0,3.87h5.94v1.54H70.79Zm5.94-3.87a.79.79,0,0,1,.83.81V58a.78.78,0,0,1-.24.58.84.84,0,0,1-.61.23.81.81,0,0,1-.57-.23.76.76,0,0,1-.25-.58v-7.7a.77.77,0,0,1,.26-.58A.83.83,0,0,1,76.73,49.52Z"/><path class="cls-2" d="M81.22,58a.76.76,0,0,1-.25.58.88.88,0,0,1-.59.23.77.77,0,0,1-.82-.81v-7.7a.78.78,0,0,1,.24-.58.85.85,0,0,1,.61-.23.8.8,0,0,1,.56.23.76.76,0,0,1,.25.58Z"/><path class="cls-2" d="M84,49.52h4.46a.79.79,0,0,1,.58.22.71.71,0,0,1,.24.56.66.66,0,0,1-.24.54.83.83,0,0,1-.58.21H84.76l.12-.23v2.6l-.1-.11h3.11a.83.83,0,0,1,.58.22.75.75,0,0,1,.24.57.68.68,0,0,1-.24.54.83.83,0,0,1-.58.21H84.82l.06-.11v2.69l-.1-.12h3.71a.8.8,0,0,1,.58.23.75.75,0,0,1,.24.54.71.71,0,0,1-.24.55.83.83,0,0,1-.58.21H84a.79.79,0,0,1-.81-.81v-7.7a.79.79,0,0,1,.81-.81ZM86.53,48l-1.11.65-.39.22a.71.71,0,0,1-.29.08.44.44,0,0,1-.3-.11.31.31,0,0,1-.12-.23.48.48,0,0,1,0-.18,1.06,1.06,0,0,1,.16-.22l.84-1a1.47,1.47,0,0,1,.36-.28,1,1,0,0,1,.46-.1h.21a.88.88,0,0,1,.45.1,1.17,1.17,0,0,1,.36.28l.84,1a1.06,1.06,0,0,1,.16.22.34.34,0,0,1,0,.18.33.33,0,0,1-.11.23.44.44,0,0,1-.3.11.75.75,0,0,1-.3-.08l-.38-.22L86,48Z"/><path class="cls-2" d="M97.91,49.52a.69.69,0,0,1,.52.21.76.76,0,0,1,.2.53V58a.79.79,0,0,1-.81.81,1.13,1.13,0,0,1-.36-.06.59.59,0,0,1-.27-.16L92,52l.34-.21V58.1a.76.76,0,0,1-.2.53.73.73,0,0,1-.54.21.67.67,0,0,1-.52-.21.72.72,0,0,1-.2-.53V50.33a.78.78,0,0,1,.23-.58.82.82,0,0,1,.58-.23,1.15,1.15,0,0,1,.39.07.55.55,0,0,1,.29.22l5.07,6.48-.22.15V50.26a.72.72,0,0,1,.2-.53A.69.69,0,0,1,97.91,49.52Z"/><path class="cls-2" d="M111.16,49.49a.82.82,0,0,1,.58.22.7.7,0,0,1,.25.55.94.94,0,0,1-.08.36l-3.29,7.7a.84.84,0,0,1-.34.4,1,1,0,0,1-.45.12.81.81,0,0,1-.41-.14.79.79,0,0,1-.31-.36l-3.29-7.73a.84.84,0,0,1,0-.17.86.86,0,0,1,0-.16.7.7,0,0,1,.28-.6.92.92,0,0,1,.53-.2.75.75,0,0,1,.73.52l2.92,6.86h-.47L110.43,50A.75.75,0,0,1,111.16,49.49Z"/><path class="cls-2" d="M116.81,51.61l-2.88,6.77a.8.8,0,0,1-.28.39.73.73,0,0,1-.42.14.7.7,0,0,1-.54-.2.75.75,0,0,1-.17-.49.82.82,0,0,1,0-.26l3.32-8a.91.91,0,0,1,.32-.42.82.82,0,0,1,.48-.12.77.77,0,0,1,.44.14.81.81,0,0,1,.3.4l3.28,7.8a1.09,1.09,0,0,1,.07.32.75.75,0,0,1-.24.58.73.73,0,0,1-.51.21.68.68,0,0,1-.43-.15.94.94,0,0,1-.3-.4l-2.87-6.67Zm-2.46,5.14.73-1.53h3.59l.26,1.53Zm2.33-8a2.49,2.49,0,0,1-1.3-.33,1.93,1.93,0,0,1-.81-.91.57.57,0,0,1,0-.54.45.45,0,0,1,.39-.2.74.74,0,0,1,.44.13,2.33,2.33,0,0,1,.36.35,1,1,0,0,0,.36.27,1.49,1.49,0,0,0,.56.09,1.11,1.11,0,0,0,.92-.36,2.3,2.3,0,0,1,.35-.35.74.74,0,0,1,.44-.13.44.44,0,0,1,.4.2.51.51,0,0,1,0,.51,1.85,1.85,0,0,1-.8.94A2.52,2.52,0,0,1,116.68,48.75Z"/><path class="cls-2" d="M129,49.52a.69.69,0,0,1,.52.21.76.76,0,0,1,.2.53V58a.79.79,0,0,1-.81.81,1.13,1.13,0,0,1-.36-.06.59.59,0,0,1-.27-.16L123,52l.34-.21V58.1a.76.76,0,0,1-.2.53.73.73,0,0,1-.54.21.67.67,0,0,1-.52-.21.72.72,0,0,1-.2-.53V50.33a.78.78,0,0,1,.23-.58.82.82,0,0,1,.58-.23,1.15,1.15,0,0,1,.39.07.55.55,0,0,1,.29.22l5.07,6.48-.22.15V50.26a.72.72,0,0,1,.2-.53A.69.69,0,0,1,129,49.52Z"/><path class="cls-2" d="M136.27,49.52a.8.8,0,0,1,.56.23.76.76,0,0,1,.25.58V58a.76.76,0,0,1-.25.58.88.88,0,0,1-.59.23.77.77,0,0,1-.82-.81v-7.7a.78.78,0,0,1,.24-.58A.85.85,0,0,1,136.27,49.52Zm0,3.87h5.94v1.54h-5.94Zm5.94-3.87a.79.79,0,0,1,.83.81V58a.78.78,0,0,1-.24.58.85.85,0,0,1-.62.23.8.8,0,0,1-.56-.23.76.76,0,0,1-.25-.58v-7.7a.76.76,0,0,1,.25-.58A.88.88,0,0,1,142.17,49.52Z"/><path class="cls-2" d="M153.57,54.18a5.12,5.12,0,0,1-.33,1.86,4.78,4.78,0,0,1-.94,1.53A4.4,4.4,0,0,1,149,59a4.36,4.36,0,0,1-3.24-1.41,4.61,4.61,0,0,1-.94-1.53,5.41,5.41,0,0,1,0-3.72,4.61,4.61,0,0,1,.94-1.53,4.44,4.44,0,0,1,6.5,0,4.78,4.78,0,0,1,.94,1.53A5.12,5.12,0,0,1,153.57,54.18Zm-1.73,0a3.6,3.6,0,0,0-.36-1.62,2.93,2.93,0,0,0-1-1.15,2.66,2.66,0,0,0-2.9,0,2.9,2.9,0,0,0-1,1.15,3.67,3.67,0,0,0-.35,1.62,3.77,3.77,0,0,0,.35,1.62,2.9,2.9,0,0,0,1,1.15,2.66,2.66,0,0,0,2.9,0,2.93,2.93,0,0,0,1-1.15A3.63,3.63,0,0,0,151.84,54.18ZM149,60.8a1,1,0,0,1-.63-.15.63.63,0,0,1-.18-.52v-.25a.62.62,0,0,1,.2-.53,1.12,1.12,0,0,1,.61-.14,1.23,1.23,0,0,1,.68.14.65.65,0,0,1,.18.53v.25a.61.61,0,0,1-.19.53A1.26,1.26,0,0,1,149,60.8Z"/><path class="cls-2" d="M161.63,50a.73.73,0,0,1,.41.55.83.83,0,0,1-.2.68.56.56,0,0,1-.44.26,1,1,0,0,1-.56-.1,2.94,2.94,0,0,0-.67-.23,3.5,3.5,0,0,0-.74-.08,3.4,3.4,0,0,0-1.28.23,2.69,2.69,0,0,0-1,.64,2.79,2.79,0,0,0-.61,1,4.29,4.29,0,0,0,0,2.68,2.8,2.8,0,0,0,.65,1,2.54,2.54,0,0,0,1,.59,3.66,3.66,0,0,0,1.21.2,4.39,4.39,0,0,0,.72-.07,2.18,2.18,0,0,0,.69-.24.93.93,0,0,1,.56-.09.69.69,0,0,1,.46.28.81.81,0,0,1,.19.68.72.72,0,0,1-.41.52,4.76,4.76,0,0,1-.71.28,4.7,4.7,0,0,1-.74.18,4.77,4.77,0,0,1-.76.06,5.52,5.52,0,0,1-1.82-.31,4.74,4.74,0,0,1-1.53-.91,4.2,4.2,0,0,1-1.06-1.5,5.15,5.15,0,0,1-.38-2.08,4.89,4.89,0,0,1,.35-1.89,4.29,4.29,0,0,1,1-1.5,4.76,4.76,0,0,1,1.52-1,5.24,5.24,0,0,1,1.92-.35,5.55,5.55,0,0,1,1.15.13A4.72,4.72,0,0,1,161.63,50Z"/></svg>