<svg xmlns="http://www.w3.org/2000/svg" xmlns:xlink="http://www.w3.org/1999/xlink" viewBox="0 0 193.96 129.02"><defs><style>.cls-1,.cls-13,.cls-29,.cls-30,.cls-32,.cls-33,.cls-42,.cls-6,.cls-7{fill:none;}.cls-2{isolation:isolate;}.cls-3{clip-path:url(#clip-path);}.cls-4{fill:url(#linear-gradient);}.cls-5{fill:#fff;}.cls-32,.cls-33,.cls-42,.cls-6,.cls-7{stroke:#f6ba51;}.cls-13,.cls-29,.cls-32,.cls-33,.cls-6,.cls-7{stroke-linecap:round;}.cls-13,.cls-29,.cls-30,.cls-32,.cls-33,.cls-42,.cls-6,.cls-7{stroke-linejoin:round;}.cls-6{stroke-width:0.5px;}.cls-64,.cls-8{opacity:0.9;}.cls-10,.cls-12,.cls-22,.cls-38,.cls-9{fill:#f6ba51;}.cls-9{opacity:0.2;}.cls-10{opacity:0.84;}.cls-11{opacity:0.5;mix-blend-mode:overlay;}.cls-13,.cls-29,.cls-30{stroke:#1b1a39;}.cls-13,.cls-33{stroke-width:1.2px;}.cls-14{fill:url(#linear-gradient-2);}.cls-15{fill:#1b1a39;}.cls-16{fill:url(#linear-gradient-3);}.cls-17{fill:url(#linear-gradient-4);}.cls-18{fill:#f37668;}.cls-19{opacity:0.89;}.cls-20,.cls-21,.cls-22{opacity:0.91;}.cls-20{fill:url(#linear-gradient-5);}.cls-21{fill:url(#linear-gradient-6);}.cls-23{fill:url(#linear-gradient-7);}.cls-24{fill:url(#linear-gradient-8);}.cls-25{fill:url(#linear-gradient-9);}.cls-26,.cls-27,.cls-28,.cls-31,.cls-36{opacity:0.45;}.cls-26{fill:url(#linear-gradient-10);}.cls-27{fill:url(#linear-gradient-11);}.cls-28{fill:url(#linear-gradient-12);}.cls-29,.cls-30,.cls-32,.cls-42{stroke-width:0.75px;}.cls-31{fill:url(#linear-gradient-13);}.cls-34{fill:url(#linear-gradient-14);}.cls-35{opacity:0.18;fill:url(#linear-gradient-15);}.cls-36{fill:url(#linear-gradient-16);}.cls-37,.cls-39,.cls-40,.cls-41,.cls-43,.cls-44,.cls-45,.cls-46,.cls-47,.cls-48,.cls-49,.cls-55,.cls-56,.cls-57,.cls-60,.cls-61{opacity:0.42;mix-blend-mode:lighten;}.cls-37{fill:url(#radial-gradient);}.cls-38{opacity:0.66;}.cls-39{fill:url(#radial-gradient-2);}.cls-40{fill:url(#radial-gradient-3);}.cls-41{fill:url(#radial-gradient-4);}.cls-43{fill:url(#radial-gradient-5);}.cls-44{fill:url(#linear-gradient-17);}.cls-45{fill:url(#linear-gradient-18);}.cls-46{fill:url(#linear-gradient-19);}.cls-47{fill:url(#linear-gradient-20);}.cls-48{fill:url(#linear-gradient-21);}.cls-49{fill:url(#linear-gradient-22);}.cls-50{fill:#09172a;}.cls-51{fill:url(#linear-gradient-23);}.cls-52{fill:url(#linear-gradient-24);}.cls-53{fill:url(#linear-gradient-25);}.cls-54{fill:url(#linear-gradient-26);}.cls-55{fill:url(#radial-gradient-6);}.cls-56{fill:url(#linear-gradient-27);}.cls-57{fill:url(#linear-gradient-28);}.cls-58{fill:url(#linear-gradient-29);}.cls-59{fill:url(#linear-gradient-30);}.cls-60{fill:url(#radial-gradient-7);}.cls-61{fill:url(#linear-gradient-31);}.cls-62{fill:#3a224a;}.cls-63{fill:#1e1a41;}</style><clipPath id="clip-path" transform="translate(0.84 46.26)"><rect class="cls-1" width="192" height="63"/></clipPath><linearGradient id="linear-gradient" x1="96.98" y1="127.06" x2="96.98" y2="50.13" gradientUnits="userSpaceOnUse"><stop offset="0" stop-color="#f26a5d"/><stop offset="0.24" stop-color="#e9645d"/><stop offset="0.63" stop-color="#d2555e"/><stop offset="1" stop-color="#b6435e"/></linearGradient><linearGradient id="linear-gradient-2" x1="108.13" y1="45.02" x2="110.23" y2="45.02" gradientUnits="userSpaceOnUse"><stop offset="0" stop-color="#f26a5d"/><stop offset="0.22" stop-color="#f3765b"/><stop offset="0.63" stop-color="#f49756"/><stop offset="1" stop-color="#f6ba51"/></linearGradient><linearGradient id="linear-gradient-3" x1="97.66" y1="104.42" x2="100.67" y2="104.42" xlink:href="#linear-gradient-2"/><linearGradient id="linear-gradient-4" x1="97.66" y1="105.25" x2="100.67" y2="105.25" xlink:href="#linear-gradient-2"/><linearGradient id="linear-gradient-5" x1="58.28" y1="65.78" x2="59.48" y2="48.95" gradientUnits="userSpaceOnUse"><stop offset="0" stop-color="#f15f64"/><stop offset="0.25" stop-color="#f37e5d"/><stop offset="0.74" stop-color="#f6ba51"/></linearGradient><linearGradient id="linear-gradient-6" x1="-4.93" y1="43.2" x2="1.26" y2="4.7" gradientTransform="matrix(0.93, 0.36, -0.36, 0.93, 33, 27.84)" xlink:href="#linear-gradient-5"/><linearGradient id="linear-gradient-7" x1="83.51" y1="82.97" x2="87.65" y2="82.97" xlink:href="#linear-gradient-2"/><linearGradient id="linear-gradient-8" x1="79.78" y1="100.98" x2="91.39" y2="100.98" xlink:href="#linear-gradient-2"/><linearGradient id="linear-gradient-9" x1="82.4" y1="63.88" x2="88.76" y2="63.88" xlink:href="#linear-gradient-2"/><linearGradient id="linear-gradient-10" x1="83.51" y1="85.23" x2="87.65" y2="85.23" gradientUnits="userSpaceOnUse"><stop offset="0" stop-color="#231f3d"/><stop offset="0.98" stop-color="#231f3d" stop-opacity="0.02"/><stop offset="1" stop-color="#231f3d" stop-opacity="0"/></linearGradient><linearGradient id="linear-gradient-11" x1="83.51" y1="94.74" x2="87.65" y2="94.74" xlink:href="#linear-gradient-10"/><linearGradient id="linear-gradient-12" x1="83.51" y1="71.22" x2="87.65" y2="71.22" xlink:href="#linear-gradient-10"/><linearGradient id="linear-gradient-13" x1="83.41" y1="68.52" x2="83.41" y2="59.23" xlink:href="#linear-gradient-10"/><linearGradient id="linear-gradient-14" x1="43.27" y1="180.96" x2="49.5" y2="180.96" gradientTransform="matrix(0.68, -0.73, 0.73, 0.68, -55.13, -56.85)" xlink:href="#linear-gradient-2"/><linearGradient id="linear-gradient-15" x1="253.97" y1="364.23" x2="259" y2="364.23" gradientTransform="translate(-48.38 -384.69) rotate(14.44)" gradientUnits="userSpaceOnUse"><stop offset="0" stop-color="#20215d"/><stop offset="0.65" stop-color="#20215d" stop-opacity="0.36"/><stop offset="1" stop-color="#20215d" stop-opacity="0"/></linearGradient><linearGradient id="linear-gradient-16" x1="47.35" y1="185.33" x2="46.13" y2="179.8" gradientTransform="translate(-71.71 -14.62) rotate(-61.16)" xlink:href="#linear-gradient-15"/><radialGradient id="radial-gradient" cx="67.79" cy="37.93" r="7.13" gradientTransform="translate(18.21 25.88) scale(1.35 1.38)" gradientUnits="userSpaceOnUse"><stop offset="0" stop-color="#f6ba51"/><stop offset="0.3" stop-color="#f6ba51" stop-opacity="0.67"/><stop offset="0.76" stop-color="#f6ba51" stop-opacity="0.19"/><stop offset="0.96" stop-color="#f6ba51" stop-opacity="0"/></radialGradient><radialGradient id="radial-gradient-2" cx="30.9" cy="38.7" r="4.97" xlink:href="#radial-gradient"/><radialGradient id="radial-gradient-3" cx="49.32" cy="31.01" r="4.97" xlink:href="#radial-gradient"/><radialGradient id="radial-gradient-4" cx="46.56" cy="46.29" r="6.68" xlink:href="#radial-gradient"/><radialGradient id="radial-gradient-5" cx="59.45" cy="57.07" r="5.81" xlink:href="#radial-gradient"/><linearGradient id="linear-gradient-17" x1="103.97" y1="110.47" x2="103.97" y2="70.97" gradientTransform="matrix(1, 0, 0, 1, 0, 0)" xlink:href="#radial-gradient"/><linearGradient id="linear-gradient-18" x1="107.08" y1="110.47" x2="107.08" y2="85.56" gradientTransform="matrix(1, 0, 0, 1, 0, 0)" xlink:href="#radial-gradient"/><linearGradient id="linear-gradient-19" x1="64.11" y1="110.47" x2="64.11" y2="70.97" gradientTransform="matrix(1, 0, 0, 1, 0, 0)" xlink:href="#radial-gradient"/><linearGradient id="linear-gradient-20" x1="65.98" y1="110.47" x2="65.98" y2="85.56" gradientTransform="matrix(1, 0, 0, 1, 0, 0)" xlink:href="#radial-gradient"/><linearGradient id="linear-gradient-21" x1="55.82" y1="110.47" x2="55.82" y2="52.02" gradientTransform="matrix(1, 0, 0, 1, 0, 0)" xlink:href="#radial-gradient"/><linearGradient id="linear-gradient-22" x1="55.95" y1="110.47" x2="55.95" y2="91.17" gradientTransform="matrix(1, 0, 0, 1, 0, 0)" xlink:href="#radial-gradient"/><linearGradient id="linear-gradient-23" x1="-624.61" y1="46.54" x2="-621.59" y2="45.99" gradientTransform="matrix(1, 0, 0, -1, 752.52, 92.47)" xlink:href="#linear-gradient-2"/><linearGradient id="linear-gradient-24" x1="-623.1" y1="31.6" x2="-619.82" y2="31.6" gradientTransform="matrix(1, 0, 0, -1, 749.56, 63.2)" xlink:href="#linear-gradient-2"/><linearGradient id="linear-gradient-25" x1="-623.1" y1="32.64" x2="-619.82" y2="32.64" gradientTransform="matrix(1, 0, 0, -1, 749.56, 65.28)" xlink:href="#linear-gradient-2"/><linearGradient id="linear-gradient-26" x1="-623.1" y1="33.68" x2="-619.82" y2="33.68" gradientTransform="matrix(1, 0, 0, -1, 749.56, 67.36)" xlink:href="#linear-gradient-2"/><radialGradient id="radial-gradient-6" cx="82.64" cy="48.24" r="5.81" xlink:href="#radial-gradient"/><linearGradient id="linear-gradient-27" x1="129.71" y1="110.47" x2="129.71" y2="52.02" gradientTransform="matrix(1, 0, 0, 1, 0, 0)" xlink:href="#radial-gradient"/><linearGradient id="linear-gradient-28" x1="128.16" y1="109.97" x2="128.16" y2="82.38" gradientTransform="matrix(1, 0, 0, 1, 0, 0)" xlink:href="#radial-gradient"/><linearGradient id="linear-gradient-29" x1="-115.33" y1="215.76" x2="-112.32" y2="215.76" gradientTransform="translate(232.42 -168.92)" xlink:href="#linear-gradient-2"/><linearGradient id="linear-gradient-30" x1="-115.33" y1="216.59" x2="-112.32" y2="216.59" gradientTransform="translate(232.42 -170.58)" xlink:href="#linear-gradient-2"/><radialGradient id="radial-gradient-7" cx="73.14" cy="32.47" r="4.97" xlink:href="#radial-gradient"/><linearGradient id="linear-gradient-31" x1="119.86" y1="110.47" x2="119.86" y2="82.87" gradientTransform="matrix(1, 0, 0, 1, 0, 0)" xlink:href="#radial-gradient"/></defs><g class="cls-2"><g id="Layer_2" data-name="Layer 2"><g class="cls-3"><rect class="cls-4" x="0.59" y="0.5" width="192.79" height="128.52"/><path class="cls-5" d="M107.65,17.18a.32.32,0,0,0,0,.63A.32.32,0,0,0,107.65,17.18Z" transform="translate(0.84 46.26)"/><path class="cls-5" d="M85.53-24.49a.32.32,0,0,0,0,.64A.32.32,0,0,0,85.53-24.49Z" transform="translate(0.84 46.26)"/><path class="cls-5" d="M102.39-32.41a.32.32,0,0,0,0,.64A.32.32,0,0,0,102.39-32.41Z" transform="translate(0.84 46.26)"/><path class="cls-5" d="M21.37,10.58a.32.32,0,0,0,0,.63A.32.32,0,0,0,21.37,10.58Z" transform="translate(0.84 46.26)"/><path class="cls-5" d="M81.72,41.63a.32.32,0,0,0,0,.63A.32.32,0,0,0,81.72,41.63Z" transform="translate(0.84 46.26)"/><path class="cls-5" d="M44.12,29.59a.32.32,0,0,0,0,.63A.32.32,0,0,0,44.12,29.59Z" transform="translate(0.84 46.26)"/><path class="cls-5" d="M20.74-32.72a.32.32,0,0,0,0,.63A.32.32,0,0,0,20.74-32.72Z" transform="translate(0.84 46.26)"/><path class="cls-5" d="M122.28-37.79a.32.32,0,0,0,0,.63A.32.32,0,0,0,122.28-37.79Z" transform="translate(0.84 46.26)"/><path class="cls-5" d="M111.08,31.63a.32.32,0,0,0,0,.63A.32.32,0,0,0,111.08,31.63Z" transform="translate(0.84 46.26)"/><path class="cls-5" d="M96.09,42.82a.32.32,0,0,0,0,.64A.32.32,0,0,0,96.09,42.82Z" transform="translate(0.84 46.26)"/><path class="cls-5" d="M113.74,43.94a.32.32,0,0,0,0,.63A.32.32,0,0,0,113.74,43.94Z" transform="translate(0.84 46.26)"/><path class="cls-5" d="M11.69-40.09a.32.32,0,0,0,0,.64A.32.32,0,0,0,11.69-40.09Z" transform="translate(0.84 46.26)"/><path class="cls-5" d="M124.1,29.36a.32.32,0,0,0,0,.63A.32.32,0,0,0,124.1,29.36Z" transform="translate(0.84 46.26)"/><path class="cls-5" d="M34.12,31.75a.32.32,0,0,0,0,.64A.32.32,0,0,0,34.12,31.75Z" transform="translate(0.84 46.26)"/><path class="cls-5" d="M18.41-9.91a.32.32,0,0,0,0,.63A.32.32,0,0,0,18.41-9.91Z" transform="translate(0.84 46.26)"/><path class="cls-5" d="M81.93,59.8a.32.32,0,0,0,0,.63A.32.32,0,0,0,81.93,59.8Z" transform="translate(0.84 46.26)"/><path class="cls-5" d="M35.91-35.94a1.62,1.62,0,0,0-1.15-1.14c-.18-.06-.18-.1,0-.15a1.63,1.63,0,0,0,1.15-1.15c.05-.18.09-.18.15,0a1.61,1.61,0,0,0,1.15,1.15c.17,0,.17.09,0,.15a1.6,1.6,0,0,0-1.15,1.14C36-35.76,36-35.76,35.91-35.94Z" transform="translate(0.84 46.26)"/><path class="cls-5" d="M12.12,5.44A1.62,1.62,0,0,0,11,4.29c-.18-.06-.18-.1,0-.15A1.62,1.62,0,0,0,12.12,3c.06-.18.1-.18.15,0a1.63,1.63,0,0,0,1.15,1.15c.18.05.18.09,0,.15a1.63,1.63,0,0,0-1.15,1.15C12.22,5.61,12.18,5.61,12.12,5.44Z" transform="translate(0.84 46.26)"/><path class="cls-5" d="M123.72,51.08a1.63,1.63,0,0,0-1.15-1.15c-.17,0-.17-.09,0-.15a1.62,1.62,0,0,0,1.15-1.14q.07-.27.15,0A1.62,1.62,0,0,0,125,49.78c.18.06.18.1,0,.15a1.63,1.63,0,0,0-1.15,1.15Q123.79,51.35,123.72,51.08Z" transform="translate(0.84 46.26)"/><path class="cls-5" d="M95.63,20.39a1.63,1.63,0,0,0-1.15-1.15q-.27-.07,0-.15a1.63,1.63,0,0,0,1.15-1.15c.05-.17.09-.17.15,0a1.62,1.62,0,0,0,1.14,1.15q.27.07,0,.15a1.62,1.62,0,0,0-1.14,1.15C95.72,20.56,95.68,20.56,95.63,20.39Z" transform="translate(0.84 46.26)"/><path class="cls-5" d="M77.2,36a1.65,1.65,0,0,0-1.15-1.15c-.17,0-.17-.09,0-.14A1.63,1.63,0,0,0,77.2,33.6q.08-.27.15,0a1.63,1.63,0,0,0,1.15,1.15c.17,0,.17.09,0,.14A1.65,1.65,0,0,0,77.35,36Q77.28,36.31,77.2,36Z" transform="translate(0.84 46.26)"/><path class="cls-5" d="M61.4,39.8a.84.84,0,0,0-.59-.59c-.09,0-.09-.05,0-.07a.85.85,0,0,0,.59-.59c0-.09.05-.09.08,0a.85.85,0,0,0,.59.59c.09,0,.09,0,0,.07a.84.84,0,0,0-.59.59C61.45,39.89,61.43,39.89,61.4,39.8Z" transform="translate(0.84 46.26)"/><path class="cls-5" d="M92.68-37.89a.87.87,0,0,0-.59-.59c-.09,0-.09-.05,0-.07a.85.85,0,0,0,.59-.59c0-.09,0-.09.07,0a.84.84,0,0,0,.59.59c.09,0,.09,0,0,.07a.85.85,0,0,0-.59.59C92.73-37.8,92.7-37.8,92.68-37.89Z" transform="translate(0.84 46.26)"/><path class="cls-5" d="M87.8,4.76a.82.82,0,0,0-.59-.59c-.09,0-.09,0,0-.08a.84.84,0,0,0,.59-.59c0-.09,0-.09.08,0a.82.82,0,0,0,.59.59c.09,0,.09,0,0,.08a.8.8,0,0,0-.59.59C87.85,4.85,87.83,4.85,87.8,4.76Z" transform="translate(0.84 46.26)"/><path class="cls-5" d="M119.46,16.05a.84.84,0,0,0-.59-.59c-.1,0-.1-.05,0-.08a.85.85,0,0,0,.59-.59c0-.09,0-.09.07,0a.84.84,0,0,0,.59.59c.09,0,.09,0,0,.08a.82.82,0,0,0-.59.59C119.5,16.14,119.48,16.14,119.46,16.05Z" transform="translate(0.84 46.26)"/><path class="cls-5" d="M7.26-28.73a.84.84,0,0,0-.59-.59c-.09,0-.09-.05,0-.08A.84.84,0,0,0,7.26-30c0-.09,0-.09.07,0a.85.85,0,0,0,.59.59c.09,0,.09,0,0,.08a.85.85,0,0,0-.59.59C7.31-28.64,7.28-28.64,7.26-28.73Z" transform="translate(0.84 46.26)"/><path class="cls-5" d="M7.26-13.26a.84.84,0,0,0-.59-.59c-.09,0-.09-.05,0-.08a.82.82,0,0,0,.59-.59c0-.09,0-.09.07,0a.84.84,0,0,0,.59.59c.09,0,.09,0,0,.08a.85.85,0,0,0-.59.59C7.31-13.17,7.28-13.17,7.26-13.26Z" transform="translate(0.84 46.26)"/><path class="cls-5" d="M182.77,41.53a.32.32,0,0,0,0,.64A.32.32,0,0,0,182.77,41.53Z" transform="translate(0.84 46.26)"/><path class="cls-5" d="M182.13-1.77a.32.32,0,0,0,0,.63A.32.32,0,0,0,182.13-1.77Z" transform="translate(0.84 46.26)"/><path class="cls-5" d="M182.77-17a.32.32,0,0,0,0,.63A.32.32,0,0,0,182.77-17Z" transform="translate(0.84 46.26)"/><path class="cls-5" d="M179.81,21a.32.32,0,0,0,0,.64A.32.32,0,0,0,179.81,21Z" transform="translate(0.84 46.26)"/><path class="cls-5" d="M173.52,36.39a1.63,1.63,0,0,0-1.15-1.15q-.26-.08,0-.15a1.63,1.63,0,0,0,1.15-1.15c.06-.17.1-.17.15,0a1.63,1.63,0,0,0,1.15,1.15q.27.07,0,.15a1.63,1.63,0,0,0-1.15,1.15C173.62,36.57,173.58,36.57,173.52,36.39Z" transform="translate(0.84 46.26)"/><path class="cls-5" d="M176.82-34a1.63,1.63,0,0,0-1.15-1.15q-.27-.07,0-.15a1.63,1.63,0,0,0,1.15-1.15c.05-.17.09-.17.15,0a1.62,1.62,0,0,0,1.14,1.15q.27.07,0,.15A1.62,1.62,0,0,0,177-34C176.91-33.78,176.87-33.78,176.82-34Z" transform="translate(0.84 46.26)"/><path class="cls-5" d="M172.2-4.43a.8.8,0,0,0-.59-.59c-.09,0-.09-.05,0-.08a.82.82,0,0,0,.59-.59c0-.09.05-.09.08,0a.84.84,0,0,0,.59.59c.09,0,.09,0,0,.08a.82.82,0,0,0-.59.59C172.25-4.34,172.23-4.34,172.2-4.43Z" transform="translate(0.84 46.26)"/><path class="cls-5" d="M168,20.94a.84.84,0,0,0-.59-.59c-.09,0-.09-.05,0-.08a.84.84,0,0,0,.59-.59c0-.09,0-.09.08,0a.82.82,0,0,0,.59.59c.09,0,.09.05,0,.08a.82.82,0,0,0-.59.59C168,21,168,21,168,20.94Z" transform="translate(0.84 46.26)"/><path class="cls-5" d="M72.39-29.3a.32.32,0,0,0,0,.63A.32.32,0,0,0,72.39-29.3Z" transform="translate(0.84 46.26)"/><path class="cls-5" d="M63.35-36.67a.32.32,0,0,0,0,.64A.32.32,0,0,0,63.35-36.67Z" transform="translate(0.84 46.26)"/><path class="cls-5" d="M58.91-25.31a.84.84,0,0,0-.59-.59c-.09,0-.09-.05,0-.08a.84.84,0,0,0,.59-.59c0-.09.05-.09.08,0a.84.84,0,0,0,.59.59c.09,0,.09.05,0,.08a.84.84,0,0,0-.59.59C59-25.22,58.94-25.22,58.91-25.31Z" transform="translate(0.84 46.26)"/><path class="cls-5" d="M58.91-9.84a.84.84,0,0,0-.59-.59c-.09,0-.09-.05,0-.07a.85.85,0,0,0,.59-.59c0-.1.05-.1.08,0a.85.85,0,0,0,.59.59c.09,0,.09,0,0,.07a.84.84,0,0,0-.59.59C59-9.75,58.94-9.75,58.91-9.84Z" transform="translate(0.84 46.26)"/><path class="cls-5" d="M37.3,15.19a.85.85,0,0,0-.59-.59c-.09,0-.09,0,0-.07a.84.84,0,0,0,.59-.59c0-.09.05-.09.08,0a.82.82,0,0,0,.59.59c.09,0,.09.05,0,.07a.84.84,0,0,0-.59.59C37.35,15.28,37.33,15.28,37.3,15.19Z" transform="translate(0.84 46.26)"/><path class="cls-5" d="M8.87,33.27a.87.87,0,0,0-.59-.6c-.1,0-.1,0,0-.07A.85.85,0,0,0,8.87,32c0-.09,0-.09.07,0a.84.84,0,0,0,.59.59c.09,0,.09,0,0,.07a.85.85,0,0,0-.59.6C8.91,33.36,8.89,33.36,8.87,33.27Z" transform="translate(0.84 46.26)"/><path class="cls-5" d="M159.09,24.46a.32.32,0,0,0,0,.63A.32.32,0,0,0,159.09,24.46Z" transform="translate(0.84 46.26)"/><path class="cls-5" d="M149.9,29.59a.32.32,0,0,0,0,.63A.32.32,0,0,0,149.9,29.59Z" transform="translate(0.84 46.26)"/><path class="cls-5" d="M162.51-39a.32.32,0,0,0,0,.63A.32.32,0,0,0,162.51-39Z" transform="translate(0.84 46.26)"/><path class="cls-5" d="M148-40.09a.32.32,0,0,0,0,.64A.32.32,0,0,0,148-40.09Z" transform="translate(0.84 46.26)"/><path class="cls-5" d="M139.89,31.75a.32.32,0,0,0,0,.64A.32.32,0,0,0,139.89,31.75Z" transform="translate(0.84 46.26)"/><path class="cls-5" d="M164.55-25.91a.32.32,0,0,0,0,.63A.32.32,0,0,0,164.55-25.91Z" transform="translate(0.84 46.26)"/><path class="cls-5" d="M181.19,7.57A1.63,1.63,0,0,0,180,6.42c-.17,0-.17-.09,0-.15a1.62,1.62,0,0,0,1.15-1.14q.08-.27.15,0a1.62,1.62,0,0,0,1.15,1.14c.18.06.18.1,0,.15a1.63,1.63,0,0,0-1.15,1.15Q181.27,7.84,181.19,7.57Z" transform="translate(0.84 46.26)"/><path class="cls-5" d="M111.41-37.19a.84.84,0,0,0-.59-.59c-.09,0-.09,0,0-.08a.82.82,0,0,0,.59-.59c0-.09,0-.09.08,0a.8.8,0,0,0,.59.59c.09,0,.09,0,0,.08a.82.82,0,0,0-.59.59C111.46-37.1,111.44-37.1,111.41-37.19Z" transform="translate(0.84 46.26)"/><path class="cls-5" d="M80.44-10a.82.82,0,0,0-.59-.59c-.09,0-.09-.05,0-.08a.84.84,0,0,0,.59-.59c0-.09,0-.09.07,0a.84.84,0,0,0,.59.59c.09,0,.09.05,0,.08a.82.82,0,0,0-.59.59C80.49-9.91,80.46-9.91,80.44-10Z" transform="translate(0.84 46.26)"/><path class="cls-5" d="M96.1-14.87a.8.8,0,0,0-.59-.59c-.09,0-.09,0,0-.08a.82.82,0,0,0,.59-.59c0-.09.05-.09.08,0a.84.84,0,0,0,.59.59c.09,0,.09,0,0,.08a.82.82,0,0,0-.59.59C96.15-14.78,96.13-14.78,96.1-14.87Z" transform="translate(0.84 46.26)"/><path class="cls-5" d="M34.59-13.72a.84.84,0,0,0-.59-.59c-.09,0-.09,0,0-.07a.85.85,0,0,0,.59-.59c0-.1,0-.1.08,0a.84.84,0,0,0,.59.59c.09,0,.09.05,0,.07a.82.82,0,0,0-.59.59C34.64-13.63,34.62-13.63,34.59-13.72Z" transform="translate(0.84 46.26)"/><path class="cls-5" d="M65.69,9.63l-9.31,6.21a2,2,0,1,1-2.25-3.37,1.92,1.92,0,0,1,.62-.28L65.6,9.43a.1.1,0,0,1,.13.08A.09.09,0,0,1,65.69,9.63Z" transform="translate(0.84 46.26)"/><path class="cls-5" d="M67.84-7.4,53.17.42a1.25,1.25,0,0,1-1.7-.51A1.27,1.27,0,0,1,52-1.79l.16-.07L67.79-7.53a.09.09,0,0,1,.09,0A.08.08,0,0,1,67.84-7.4Z" transform="translate(0.84 46.26)"/><path class="cls-5" d="M71.6-6.14,64.79-1a2,2,0,0,1-2.87-.41,2.05,2.05,0,0,1,.41-2.87,2.17,2.17,0,0,1,.84-.37l8.34-1.65a.13.13,0,0,1,.14.09A.11.11,0,0,1,71.6-6.14Z" transform="translate(0.84 46.26)"/><path class="cls-5" d="M108,7.2,99,13.76a2,2,0,1,1-2.38-3.29,1.93,1.93,0,0,1,.61-.3L107.92,7a.12.12,0,0,1,.14.08A.11.11,0,0,1,108,7.2Z" transform="translate(0.84 46.26)"/><path class="cls-5" d="M109.43-41l-4.58,3.31a1,1,0,0,1-1.42-.23,1,1,0,0,1,.23-1.42,1.68,1.68,0,0,1,.3-.15l5.42-1.61a.06.06,0,0,1,.07,0A0,0,0,0,1,109.43-41Z" transform="translate(0.84 46.26)"/><path class="cls-5" d="M47.8-37.26,34.56-29.69a1,1,0,0,1-1.37-.37,1,1,0,0,1,.38-1.37l.11-.06,14.07-5.87a.05.05,0,0,1,.07,0A0,0,0,0,1,47.8-37.26Z" transform="translate(0.84 46.26)"/><path class="cls-5" d="M97.24,8.87l-4.58,3.31a1,1,0,1,1-1.19-1.64.94.94,0,0,1,.3-.15l5.42-1.62a.06.06,0,0,1,.07,0A0,0,0,0,1,97.24,8.87Z" transform="translate(0.84 46.26)"/><path class="cls-5" d="M187.51-33.79l-14.36,8.38a1.25,1.25,0,0,1-1.71-.45,1.26,1.26,0,0,1,.45-1.72l.16-.08,15.4-6.26s.08,0,.09,0A.07.07,0,0,1,187.51-33.79Z" transform="translate(0.84 46.26)"/><path class="cls-5" d="M105.51-42.74,91.15-34.35a1.27,1.27,0,0,1-1.72-.46,1.26,1.26,0,0,1,.46-1.71L90-36.6l15.41-6.26a.06.06,0,0,1,.09,0A.06.06,0,0,1,105.51-42.74Z" transform="translate(0.84 46.26)"/><path class="cls-5" d="M173.79-23.75l-6.61,5.35a2,2,0,0,1-2.88-.3,2,2,0,0,1,.3-2.88,1.91,1.91,0,0,1,.82-.4l8.27-2a.11.11,0,0,1,.14.08A.13.13,0,0,1,173.79-23.75Z" transform="translate(0.84 46.26)"/><line class="cls-6" x1="146.29" y1="0.5" x2="89.37" y2="26.96"/><line class="cls-6" x1="41.03" y1="46.31" x2="0.5" y2="65.15"/><line class="cls-7" x1="150.32" y1="0.5" x2="98.89" y2="24.42"/><line class="cls-7" x1="37.13" y1="51.26" x2="0.5" y2="68.29"/><line class="cls-7" x1="95.94" y1="0.5" x2="70.22" y2="12.46"/><line class="cls-6" x1="90.55" y1="0.5" x2="81.1" y2="4.89"/><line class="cls-7" x1="193.46" y1="59.89" x2="167.74" y2="71.85"/><line class="cls-6" x1="174.84" y1="71.28" x2="165.39" y2="75.68"/><g class="cls-8"><circle class="cls-9" cx="129.78" cy="57.24" r="20.6"/><circle class="cls-9" cx="129.78" cy="57.24" r="17.18"/><circle class="cls-9" cx="129.78" cy="57.24" r="13.47"/><circle class="cls-10" cx="128.94" cy="10.98" r="9.97" transform="translate(106.28 184.49) rotate(-84.4)"/><circle class="cls-10" cx="128.94" cy="10.98" r="9.97" transform="translate(106.28 184.49) rotate(-84.4)"/><g class="cls-11"><path class="cls-12" d="M137,12.55a.55.55,0,0,1-.56-.49V12a.54.54,0,0,1,.53-.48h1.09a.56.56,0,0,0,.56-.48.54.54,0,0,0-.54-.6h-2a.54.54,0,0,1-.54-.53.54.54,0,0,0-.53-.54h-1a.49.49,0,0,1-.48-.48.48.48,0,0,1,.48-.48h3.23a.56.56,0,0,0,.56-.49V7.76a.55.55,0,0,1,.34-.47,11.29,11.29,0,0,0-.53-1.11h-1.44a.45.45,0,0,1-.2,0,.54.54,0,0,1-.36-.45h0V5.58a.54.54,0,0,1,.54-.48H137A9.34,9.34,0,0,0,136.09,4h-.72c-.3,0-.54-.13-.54-.42h0a.54.54,0,0,0-.54-.54h-5.66a.56.56,0,0,1-.56-.49.54.54,0,0,1,.54-.59h3.65l.05,0a.15.15,0,0,0,.07,0h0l.08,0h0a.65.65,0,0,0,.13-.16,10,10,0,0,0-9.75,1.37h2.77a.55.55,0,0,1,.56.48v.11a.54.54,0,0,1-.54.48h-2a.55.55,0,0,0-.56.49.54.54,0,0,0,.53.59h2.91a.54.54,0,0,1,.54.54.54.54,0,0,0,.54.54h.82a.47.47,0,0,1,.48.48.48.48,0,0,1-.48.48h-7.25l-.16,0h-1.32a10.44,10.44,0,0,0-.59,2.16h.56a.64.64,0,0,1,.2,0,.54.54,0,0,1,.36.45h0V10a.54.54,0,0,1-.54.48H119c0,.16,0,.31,0,.47s0,.41,0,.61h1.53c.3,0,.54.12.54.42a.54.54,0,0,0,.54.54h8.68a.54.54,0,0,1,.08,1.07H120.8a.55.55,0,0,0-.54.55.53.53,0,0,1-.53.53h0a9.56,9.56,0,0,0,.51,1.07h1.7a.65.65,0,0,1,.2,0,.54.54,0,0,1,.36.45h0v.11a.54.54,0,0,1-.54.48h-1a10.4,10.4,0,0,0,.91,1.08h1c.3,0,.54.12.54.42a.54.54,0,0,0,.54.54h3.84a.55.55,0,0,1,.56.48.54.54,0,0,1-.54.59H125l0,0h-.05l-.07,0h0a10,10,0,0,0,6.52.63.57.57,0,0,0,0-.18.55.55,0,0,1,.54-.53h1.41c.21-.1.42-.21.62-.33a.42.42,0,0,0,0-.15.54.54,0,0,0-.53-.59h-2.72a.56.56,0,0,1-.56-.49v-.11a.54.54,0,0,1,.54-.48h1.09a.55.55,0,0,0,.55-.49.54.54,0,0,0-.53-.59h-2a.54.54,0,0,1-.54-.54.54.54,0,0,0-.54-.53h-.82a.48.48,0,0,1-.48-.48.47.47,0,0,1,.44-.48h10.32a9.7,9.7,0,0,0,.6-2.14Z" transform="translate(0.84 46.26)"/><path class="cls-12" d="M120.94,5.22h1l.09,0h0l.08,0h0l.06,0h0l.06-.06h0l.05-.08h0a.41.41,0,0,0,0-.19h0a.13.13,0,0,0,0-.06.54.54,0,0,0-.54-.54h-.22a10.77,10.77,0,0,0-.86,1.06Z" transform="translate(0.84 46.26)"/><path class="cls-12" d="M135.67,16.82a.59.59,0,0,0-.3-.09h-2l-.09,0h0l-.08,0h0l-.06.05h0l-.06.07h0a.43.43,0,0,0,0,.07h0a.35.35,0,0,0-.05.18h0s0,0,0,.06a.54.54,0,0,0,.54.54h1.9a.56.56,0,0,0,.26-.07l.06,0a.56.56,0,0,0,.22-.44.55.55,0,0,0-.1-.31A.62.62,0,0,0,135.67,16.82Z" transform="translate(0.84 46.26)"/></g></g><polyline class="cls-13" points="107.32 110.47 109.06 95.37 110.98 95.37 112.72 110.47"/><line class="cls-13" x1="110.02" y1="77.98" x2="110.02" y2="110.47"/><line class="cls-13" x1="112.72" y1="110.47" x2="110.02" y2="108.33"/><line class="cls-13" x1="112.47" y1="108.28" x2="110.02" y2="108.28"/><line class="cls-13" x1="112.47" y1="108.31" x2="110.02" y2="106.18"/><line class="cls-13" x1="112.22" y1="106.13" x2="110.02" y2="106.13"/><line class="cls-13" x1="112.22" y1="106.16" x2="110.02" y2="104.02"/><line class="cls-13" x1="111.97" y1="103.98" x2="110.02" y2="103.98"/><line class="cls-13" x1="111.97" y1="104.01" x2="110.02" y2="101.87"/><line class="cls-13" x1="111.72" y1="101.83" x2="110.02" y2="101.83"/><line class="cls-13" x1="111.72" y1="101.86" x2="110.02" y2="99.72"/><line class="cls-13" x1="111.47" y1="99.67" x2="110.02" y2="99.67"/><line class="cls-13" x1="111.47" y1="99.7" x2="110.02" y2="97.57"/><line class="cls-13" x1="111.22" y1="97.52" x2="110.02" y2="97.52"/><line class="cls-13" x1="111.22" y1="97.52" x2="110.02" y2="95.41"/><line class="cls-13" x1="110.98" y1="95.37" x2="110.02" y2="95.37"/><line class="cls-13" x1="107.32" y1="110.47" x2="110.02" y2="108.33"/><line class="cls-13" x1="107.57" y1="108.28" x2="110.02" y2="108.28"/><line class="cls-13" x1="107.57" y1="108.31" x2="110.02" y2="106.18"/><line class="cls-13" x1="107.82" y1="106.13" x2="110.02" y2="106.13"/><line class="cls-13" x1="107.82" y1="106.16" x2="110.02" y2="104.02"/><line class="cls-13" x1="108.07" y1="103.98" x2="110.02" y2="103.98"/><line class="cls-13" x1="108.07" y1="104.01" x2="110.02" y2="101.87"/><line class="cls-13" x1="108.32" y1="101.83" x2="110.02" y2="101.83"/><line class="cls-13" x1="108.32" y1="101.86" x2="110.02" y2="99.72"/><line class="cls-13" x1="108.57" y1="99.67" x2="110.02" y2="99.67"/><line class="cls-13" x1="108.57" y1="99.7" x2="110.02" y2="97.57"/><line class="cls-13" x1="108.82" y1="97.52" x2="110.02" y2="97.52"/><line class="cls-13" x1="108.82" y1="97.52" x2="110.02" y2="95.41"/><line class="cls-13" x1="109.06" y1="95.37" x2="110.02" y2="95.37"/><path class="cls-14" d="M109,41.16l-.9,7.85h2.1l-.9-7.85A.15.15,0,0,0,109,41.16Z" transform="translate(0.84 46.26)"/><path class="cls-15" d="M120.82,58.51H119V64.2h7.52Z" transform="translate(0.84 46.26)"/><rect class="cls-16" x="97.66" y="104.24" width="3.01" height="0.34"/><rect class="cls-17" x="97.66" y="105.08" width="3.01" height="0.34"/><rect class="cls-15" x="0.25" y="106.39" width="193.21" height="13.91"/><path class="cls-18" d="M158.47,34.43l1.64-.6h0A11.79,11.79,0,0,0,158.47,34.43Z" transform="translate(0.84 46.26)"/><path class="cls-15" d="M-.59,8c1.12-.19,2.94-.55,2.94-.55L2.92,9.5a6.63,6.63,0,0,1,2,.47c.29.29,1.33,1.14,1.33,1.14V13.3s1,.76,1.24,1.24a12.11,12.11,0,0,1,.57,2.37c0,.39.48,3.24.48,3.24a4.54,4.54,0,0,1,1-.86c.38-.19.95-.57.95-.57s1-4.09,1-4.37,1.91.38,1.91.38A35.36,35.36,0,0,0,14,18.25a10,10,0,0,0,.67,1.52l1-1.14,1.34.47a27.3,27.3,0,0,1,0,2.76c-.1.67.47.86,1,1.43s.57,4.27.57,4.27l.7.3a3.39,3.39,0,0,1,2,2.9,3.58,3.58,0,0,0,1,2.53,1,1,0,0,0,1.43,0l.76-2.19,2-3.33.77-1.14s1.23-6.27,1.52-6.94a.81.81,0,0,1,.85-.57l.95,1.24a5.22,5.22,0,0,1,.95.85c.29.38,0,4.28,0,4.76a6.82,6.82,0,0,0,1.15,2.37c.38.48.76.38,1.33.95s1.33,6.12,1.33,6.87a5.37,5.37,0,0,0,.76,2h1.71s.19-1.24.48-1.43,1,.29,1,.29v2.66s-.38,2.47.57,3.14A13.41,13.41,0,0,0,42.76,44a7,7,0,0,1,1.71,1.71L45.8,43l1.24.09,1.43-1.71,1.42.19s.86,4.37.86,4.94.85-2.37,1-2.75.77-.1.77-.1a6.48,6.48,0,0,1,.47,1.9,21.67,21.67,0,0,0,1.33,4.38c.29.57,3.14.09,3.81,0s2.37,2.19,2.37,2.19l4,3.13s2.47-1.23,2.85-1,2.19,1.52,2.19,1.52h.85a8.71,8.71,0,0,1,1.71,1.14l2.67,3.42H-.59Z" transform="translate(0.84 46.26)"/><g class="cls-19"><path class="cls-20" d="M75.81,58.41a4.8,4.8,0,0,0-2.27.57A6.5,6.5,0,0,0,61.2,56.23a4.86,4.86,0,0,0-6.43-.66,8.58,8.58,0,1,0-16.5,4.73H79.65A4.85,4.85,0,0,0,75.81,58.41Z" transform="translate(0.84 46.26)"/><path class="cls-21" d="M41.58,59.87a5.68,5.68,0,0,0-2.77-.36,7.75,7.75,0,0,0-12.53-8.4,5.76,5.76,0,0,0-6.87-3.52A10.24,10.24,0,0,0-.19,42.45V60.3H43.25C42.77,59.89,42.21,60.11,41.58,59.87Z" transform="translate(0.84 46.26)"/><path class="cls-22" d="M45.16,60.3A4.45,4.45,0,0,0,37,59.13,7.63,7.63,0,0,0,24.33,59,10,10,0,0,0,9.21,53a14.38,14.38,0,0,0,.1-1.62A12.81,12.81,0,0,0,3.4,40.62a9.46,9.46,0,0,0,4.73-8.19A9.46,9.46,0,0,0,2,23.58a4.43,4.43,0,0,0,1.14-3A4.42,4.42,0,0,0-.59,16.22V60.3Z" transform="translate(0.84 46.26)"/></g><path class="cls-15" d="M89.1,57.94h0a2.23,2.23,0,0,1-2.27-2.2l-.37-20.36a7.87,7.87,0,0,1,1.11-4.2l.75-1.25a.32.32,0,0,1,.54,0l.79,1.23a7.91,7.91,0,0,1,1.27,4.15l.38,20.36A2.24,2.24,0,0,1,89.1,57.94Z" transform="translate(0.84 46.26)"/><path class="cls-15" d="M91.57,58.12l-4.93.09a.38.38,0,0,1-.35-.25l-1-2.65,7.47-.14-.87,2.69A.39.39,0,0,1,91.57,58.12Z" transform="translate(0.84 46.26)"/><path class="cls-15" d="M86.85,56.39l8.41-.16a.53.53,0,0,0,.5-.67l-.58-2a3.28,3.28,0,0,0-1.76-2.09h0a11.71,11.71,0,0,1-6.07-6.86L86.59,42Z" transform="translate(0.84 46.26)"/><path class="cls-15" d="M80.38,57.94h0a2.23,2.23,0,0,0,2.27-2.2L83,35.38a7.88,7.88,0,0,0-1.12-4.2l-.74-1.25a.33.33,0,0,0-.55,0l-.79,1.23a7.91,7.91,0,0,0-1.27,4.15l-.37,20.36A2.23,2.23,0,0,0,80.38,57.94Z" transform="translate(0.84 46.26)"/><path class="cls-15" d="M77.91,58.12l4.93.09A.39.39,0,0,0,83.2,58l1-2.65-7.48-.14.87,2.69A.39.39,0,0,0,77.91,58.12Z" transform="translate(0.84 46.26)"/><path class="cls-15" d="M82.63,56.39l-8.4-.16a.52.52,0,0,1-.5-.67l.57-2a3.31,3.31,0,0,1,1.76-2.09h0a11.71,11.71,0,0,0,6.07-6.86L82.9,42Z" transform="translate(0.84 46.26)"/><path class="cls-15" d="M84.82,64.14l-3.55.06a.24.24,0,0,1-.23-.33l1.68-3.8h.49L85,63.79A.25.25,0,0,1,84.82,64.14Z" transform="translate(0.84 46.26)"/><path class="cls-15" d="M88.33,64.07l-3.55.07a.24.24,0,0,1-.22-.34L86.23,60h.49l1.82,3.74A.24.24,0,0,1,88.33,64.07Z" transform="translate(0.84 46.26)"/><path class="cls-15" d="M89.48,62,80,62.17a.24.24,0,0,1-.23-.34l1.72-3.89,6.31-.11,1.85,3.82A.24.24,0,0,1,89.48,62Z" transform="translate(0.84 46.26)"/><rect class="cls-23" x="83.51" y="70.57" width="4.14" height="24.81"/><polygon class="cls-24" points="91.39 106.59 79.78 106.59 83.51 95.38 87.65 95.38 91.39 106.59"/><polygon class="cls-15" points="88.76 68.53 82.41 68.53 83.51 70.58 87.65 70.58 88.76 68.53"/><rect class="cls-25" x="82.4" y="59.23" width="6.35" height="9.3"/><path class="cls-15" d="M84.47,8.23,81.57,13h6.35L85,8.23A.31.31,0,0,0,84.47,8.23Z" transform="translate(0.84 46.26)"/><rect class="cls-26" x="83.51" y="83.74" width="4.14" height="2.99"/><rect class="cls-15" x="85" y="83.74" width="1.15" height="2.99"/><rect class="cls-27" x="83.51" y="94.11" width="4.14" height="1.27"/><rect class="cls-28" x="83.51" y="70.58" width="4.14" height="1.27"/><path class="cls-29" d="M83.61,24.3V34.89l-.44.49h-1" transform="translate(0.84 46.26)"/><path class="cls-30" d="M87.92,15.48H85.71v3.61l1.09,1.09h1.12" transform="translate(0.84 46.26)"/><path class="cls-30" d="M87.92,42.11H85.71v3.6L86.8,46.8h1.12" transform="translate(0.84 46.26)"/><rect class="cls-31" x="82.4" y="59.23" width="2" height="9.3"/><polyline class="cls-29" points="79.76 103.62 84.87 103.62 83.73 100.02 80.63 100.02"/><line class="cls-32" x1="93.63" y1="86.79" x2="93.63" y2="86.01"/><line class="cls-32" x1="92.72" y1="86.79" x2="92.72" y2="86.01"/><line class="cls-32" x1="91.81" y1="86.79" x2="91.81" y2="86.01"/><line class="cls-32" x1="90.9" y1="86.79" x2="90.9" y2="86.01"/><line class="cls-32" x1="89.99" y1="86.79" x2="89.99" y2="86.01"/><line class="cls-32" x1="89.08" y1="86.79" x2="89.08" y2="86.01"/><line class="cls-32" x1="88.18" y1="86.79" x2="88.18" y2="86.01"/><line class="cls-32" x1="87.27" y1="86.79" x2="87.27" y2="86.01"/><line class="cls-32" x1="86.36" y1="86.79" x2="86.36" y2="86.01"/><line class="cls-32" x1="85.45" y1="86.79" x2="85.45" y2="86.01"/><line class="cls-32" x1="84.54" y1="86.79" x2="84.54" y2="86.01"/><line class="cls-32" x1="83.63" y1="86.79" x2="83.63" y2="86.01"/><line class="cls-32" x1="82.72" y1="86.79" x2="82.72" y2="86.01"/><line class="cls-32" x1="81.81" y1="86.79" x2="81.81" y2="86.01"/><line class="cls-32" x1="94.27" y1="86.01" x2="81.32" y2="86.01"/><rect class="cls-33" x="94.27" y="107.08" width="3.38" height="3.38"/><line class="cls-33" x1="97.66" y1="107.08" x2="94.27" y2="110.47"/><line class="cls-33" x1="97.66" y1="110.47" x2="94.27" y2="107.08"/><rect class="cls-33" x="94.27" y="103.7" width="3.38" height="3.38"/><line class="cls-33" x1="97.66" y1="103.7" x2="94.27" y2="107.08"/><line class="cls-33" x1="97.66" y1="107.08" x2="94.27" y2="103.7"/><rect class="cls-33" x="94.27" y="100.32" width="3.38" height="3.38"/><line class="cls-33" x1="97.66" y1="100.32" x2="94.27" y2="103.7"/><line class="cls-33" x1="97.66" y1="103.7" x2="94.27" y2="100.32"/><rect class="cls-33" x="94.27" y="96.94" width="3.38" height="3.38"/><line class="cls-33" x1="97.66" y1="96.94" x2="94.27" y2="100.32"/><line class="cls-33" x1="97.66" y1="100.32" x2="94.27" y2="96.94"/><rect class="cls-33" x="94.27" y="93.55" width="3.38" height="3.38"/><line class="cls-33" x1="97.66" y1="93.55" x2="94.27" y2="96.94"/><line class="cls-33" x1="97.66" y1="96.94" x2="94.27" y2="93.55"/><rect class="cls-33" x="94.27" y="90.17" width="3.38" height="3.38"/><line class="cls-33" x1="97.66" y1="90.17" x2="94.27" y2="93.55"/><line class="cls-33" x1="97.66" y1="93.55" x2="94.27" y2="90.17"/><rect class="cls-33" x="94.27" y="86.79" width="3.38" height="3.38"/><line class="cls-33" x1="97.66" y1="86.79" x2="94.27" y2="90.17"/><line class="cls-33" x1="97.66" y1="90.17" x2="94.27" y2="86.79"/><rect class="cls-33" x="94.27" y="83.4" width="3.38" height="3.38"/><polyline class="cls-33" points="97.66 83.4 94.27 86.79 81.32 86.79"/><line class="cls-33" x1="97.66" y1="86.79" x2="94.27" y2="83.4"/><rect class="cls-33" x="94.27" y="80.02" width="3.38" height="3.38"/><line class="cls-33" x1="97.66" y1="80.02" x2="94.27" y2="83.4"/><line class="cls-33" x1="97.66" y1="83.4" x2="94.27" y2="80.02"/><rect class="cls-33" x="94.27" y="76.64" width="3.38" height="3.38"/><line class="cls-33" x1="97.66" y1="76.64" x2="94.27" y2="80.02"/><line class="cls-33" x1="97.66" y1="80.02" x2="94.27" y2="76.64"/><rect class="cls-33" x="94.27" y="73.25" width="3.38" height="3.38"/><line class="cls-33" x1="97.66" y1="73.25" x2="94.27" y2="76.64"/><line class="cls-33" x1="97.66" y1="76.64" x2="94.27" y2="73.25"/><circle class="cls-34" cx="109.18" cy="32.02" r="3.12" transform="translate(-3.66 73.52) rotate(-13.95)"/><circle class="cls-35" cx="109.18" cy="32.02" r="2.51" transform="translate(-3.64 83.52) rotate(-18.98)"/><path class="cls-36" d="M109.2,28.91l.19.19A3.12,3.12,0,0,1,107,34.27,3.11,3.11,0,0,0,111.52,30,3.09,3.09,0,0,0,109.2,28.91Z" transform="translate(0.84 46.26)"/><polyline class="cls-13" points="110.04 75.17 110.02 78.28 107.5 80.12"/><line class="cls-13" x1="112.76" y1="79.76" x2="110.02" y2="78.28"/><ellipse class="cls-37" cx="110.02" cy="78.28" rx="9.66" ry="9.85"/><path class="cls-38" d="M87.64,63.6a1.52,1.52,0,0,0-.73.18,2.09,2.09,0,0,0-2.08-2.07,2.12,2.12,0,0,0-1.89,1.18,1.55,1.55,0,0,0-1.15-.51,1.63,1.63,0,0,0-.92.3,2.76,2.76,0,0,0-5.42.72,3,3,0,0,0,.11.8H88.88A1.55,1.55,0,0,0,87.64,63.6Z" transform="translate(0.84 46.26)"/><path class="cls-15" d="M59.31,54a.09.09,0,0,1-.09-.09V31.15a.09.09,0,0,1,.09-.1.1.1,0,0,1,.1.1V53.91A.1.1,0,0,1,59.31,54Z" transform="translate(0.84 46.26)"/><path class="cls-15" d="M61.28,34.88H57.34a.09.09,0,0,1,0-.18h3.94a.09.09,0,1,1,0,.18Z" transform="translate(0.84 46.26)"/><path class="cls-15" d="M58,34.76a.62.62,0,0,1-1.23,0,.62.62,0,1,1,1.23,0Z" transform="translate(0.84 46.26)"/><path class="cls-15" d="M59.93,34.76a.61.61,0,0,1-.62.61.61.61,0,0,1-.61-.61.61.61,0,0,1,.61-.62A.62.62,0,0,1,59.93,34.76Z" transform="translate(0.84 46.26)"/><path class="cls-15" d="M61.82,34.76a.61.61,0,0,1-1.22,0,.61.61,0,1,1,1.22,0Z" transform="translate(0.84 46.26)"/><path class="cls-15" d="M61.28,33.08H57.34a.09.09,0,0,1-.09-.09.09.09,0,0,1,.09-.1h3.94a.1.1,0,0,1,.1.1A.1.1,0,0,1,61.28,33.08Z" transform="translate(0.84 46.26)"/><path class="cls-15" d="M58,33a.62.62,0,1,1-1.23,0A.62.62,0,0,1,58,33Z" transform="translate(0.84 46.26)"/><path class="cls-15" d="M59.93,33a.62.62,0,0,1-.62.62A.61.61,0,0,1,58.7,33a.61.61,0,0,1,.61-.61A.61.61,0,0,1,59.93,33Z" transform="translate(0.84 46.26)"/><path class="cls-15" d="M61.82,33a.61.61,0,1,1-1.22,0,.61.61,0,0,1,1.22,0Z" transform="translate(0.84 46.26)"/><path class="cls-15" d="M61.28,31.27H57.34a.09.09,0,1,1,0-.18h3.94a.09.09,0,1,1,0,.18Z" transform="translate(0.84 46.26)"/><path class="cls-15" d="M58,31.15a.62.62,0,0,1-1.23,0,.62.62,0,1,1,1.23,0Z" transform="translate(0.84 46.26)"/><path class="cls-15" d="M59.93,31.15a.61.61,0,0,1-.62.61.61.61,0,0,1-.61-.61.61.61,0,0,1,.61-.62A.62.62,0,0,1,59.93,31.15Z" transform="translate(0.84 46.26)"/><path class="cls-15" d="M61.82,31.15a.61.61,0,0,1-1.22,0,.61.61,0,1,1,1.22,0Z" transform="translate(0.84 46.26)"/><ellipse class="cls-39" cx="60.06" cy="79.34" rx="6.73" ry="6.86"/><ellipse class="cls-40" cx="85" cy="68.71" rx="6.73" ry="6.86"/><ellipse class="cls-41" cx="81.27" cy="89.82" rx="9.05" ry="9.23"/><path class="cls-15" d="M99.25,56.58H96.82V64.2h10.06Z" transform="translate(0.84 46.26)"/><polyline class="cls-42" points="107.72 107.15 102.69 107.15 101.63 108.3 101.63 110.34"/><path class="cls-15" d="M102.25,39.17H99.82a.16.16,0,0,0-.17.16.16.16,0,0,0,.17.17h1.05v3.84h-.65V45h.65v.86h-.21V60.25h.75V45.83h-.21V45h.65V43.34h-.65V39.5h1a.17.17,0,0,0,.17-.17A.17.17,0,0,0,102.25,39.17Z" transform="translate(0.84 46.26)"/><path class="cls-15" d="M100.11,39a.3.3,0,1,0-.29-.29A.29.29,0,0,0,100.11,39Z" transform="translate(0.84 46.26)"/><path class="cls-15" d="M101,39a.3.3,0,1,0-.29-.29A.29.29,0,0,0,101,39Z" transform="translate(0.84 46.26)"/><path class="cls-15" d="M102,39a.3.3,0,1,0,0-.59.3.3,0,1,0,0,.59Z" transform="translate(0.84 46.26)"/><ellipse class="cls-43" cx="98.72" cy="104.72" rx="7.87" ry="8.03"/><rect class="cls-44" x="102.1" y="70.97" width="3.74" height="39.5"/><rect class="cls-45" x="104.66" y="85.56" width="4.84" height="24.91"/><rect class="cls-46" x="62.23" y="70.97" width="3.74" height="39.5"/><rect class="cls-47" x="63.56" y="85.56" width="4.84" height="24.91"/><rect class="cls-48" x="54.89" y="52.02" width="1.87" height="58.44"/><rect class="cls-49" x="53.4" y="91.17" width="5.09" height="19.29"/><path class="cls-50" d="M126.46,64.2h4.88V33.73l-4.88-4.88h0Z" transform="translate(0.84 46.26)"/><rect class="cls-51" x="129.28" y="44.49" width="0.59" height="3.48" transform="translate(259.99 138.73) rotate(180)"/><rect class="cls-52" x="126.46" y="31.39" width="3.27" height="0.42" transform="translate(257.04 109.47) rotate(180)"/><rect class="cls-53" x="126.46" y="32.43" width="3.27" height="0.42" transform="translate(257.04 111.54) rotate(180)"/><rect class="cls-54" x="126.46" y="33.47" width="3.27" height="0.42" transform="translate(257.04 113.62) rotate(180)"/><polyline class="cls-42" points="132.18 90.79 130.16 90.79 130.16 97.36 128.65 99.58 128.65 107.69"/><ellipse class="cls-55" cx="130.13" cy="92.52" rx="7.87" ry="8.03"/><rect class="cls-56" x="128.78" y="52.02" width="1.87" height="58.44"/><rect class="cls-57" x="125.62" y="82.38" width="5.09" height="27.6"/><line class="cls-29" x1="118.12" y1="99.97" x2="118.12" y2="99.62"/><line class="cls-29" x1="117.72" y1="99.97" x2="117.72" y2="99.62"/><line class="cls-29" x1="117.31" y1="99.97" x2="117.31" y2="99.62"/><line class="cls-29" x1="116.91" y1="99.97" x2="116.91" y2="99.62"/><line class="cls-29" x1="116.51" y1="99.97" x2="116.51" y2="99.62"/><line class="cls-29" x1="118.4" y1="99.62" x2="116.14" y2="99.62"/><rect class="cls-13" x="118.4" y="108.97" width="1.5" height="1.5"/><line class="cls-13" x1="119.9" y1="108.97" x2="118.4" y2="110.47"/><line class="cls-13" x1="119.9" y1="110.47" x2="118.4" y2="108.97"/><rect class="cls-13" x="118.4" y="107.47" width="1.5" height="1.5"/><line class="cls-13" x1="119.9" y1="107.47" x2="118.4" y2="108.97"/><line class="cls-13" x1="119.9" y1="108.97" x2="118.4" y2="107.47"/><rect class="cls-13" x="118.4" y="105.97" width="1.5" height="1.5"/><line class="cls-13" x1="119.9" y1="105.97" x2="118.4" y2="107.47"/><line class="cls-13" x1="119.9" y1="107.47" x2="118.4" y2="105.97"/><rect class="cls-13" x="118.4" y="104.47" width="1.5" height="1.5"/><line class="cls-13" x1="119.9" y1="104.47" x2="118.4" y2="105.97"/><line class="cls-13" x1="119.9" y1="105.97" x2="118.4" y2="104.47"/><rect class="cls-13" x="118.4" y="102.97" width="1.5" height="1.5"/><line class="cls-13" x1="119.9" y1="102.97" x2="118.4" y2="104.47"/><line class="cls-13" x1="119.9" y1="104.47" x2="118.4" y2="102.97"/><rect class="cls-13" x="118.4" y="101.47" width="1.5" height="1.5"/><line class="cls-13" x1="119.9" y1="101.47" x2="118.4" y2="102.97"/><line class="cls-13" x1="119.9" y1="102.97" x2="118.4" y2="101.47"/><rect class="cls-13" x="118.4" y="99.97" width="1.5" height="1.5"/><line class="cls-13" x1="119.9" y1="99.97" x2="118.4" y2="101.47"/><line class="cls-13" x1="119.9" y1="101.47" x2="118.4" y2="99.97"/><rect class="cls-13" x="118.4" y="98.47" width="1.5" height="1.5"/><polyline class="cls-13" points="119.9 98.47 118.4 99.97 116.14 99.97"/><line class="cls-13" x1="119.9" y1="99.97" x2="118.4" y2="98.47"/><rect class="cls-13" x="118.4" y="96.97" width="1.5" height="1.5"/><line class="cls-13" x1="119.9" y1="96.97" x2="118.4" y2="98.47"/><line class="cls-13" x1="119.9" y1="98.47" x2="118.4" y2="96.97"/><rect class="cls-13" x="118.4" y="95.47" width="1.5" height="1.5"/><line class="cls-13" x1="119.9" y1="95.47" x2="118.4" y2="96.97"/><line class="cls-13" x1="119.9" y1="96.97" x2="118.4" y2="95.47"/><rect class="cls-13" x="118.4" y="93.97" width="1.5" height="1.5"/><line class="cls-13" x1="119.9" y1="93.97" x2="118.4" y2="95.47"/><line class="cls-13" x1="119.9" y1="95.47" x2="118.4" y2="93.97"/><rect class="cls-13" x="114.64" y="108.97" width="1.5" height="1.5"/><line class="cls-13" x1="116.14" y1="108.97" x2="114.64" y2="110.47"/><line class="cls-13" x1="116.14" y1="110.47" x2="114.64" y2="108.97"/><rect class="cls-13" x="114.64" y="107.47" width="1.5" height="1.5"/><line class="cls-13" x1="116.14" y1="107.47" x2="114.64" y2="108.97"/><line class="cls-13" x1="116.14" y1="108.97" x2="114.64" y2="107.47"/><rect class="cls-13" x="114.64" y="105.97" width="1.5" height="1.5"/><line class="cls-13" x1="116.14" y1="105.97" x2="114.64" y2="107.47"/><line class="cls-13" x1="116.14" y1="107.47" x2="114.64" y2="105.97"/><rect class="cls-13" x="114.64" y="104.47" width="1.5" height="1.5"/><line class="cls-13" x1="116.14" y1="104.47" x2="114.64" y2="105.97"/><line class="cls-13" x1="116.14" y1="105.97" x2="114.64" y2="104.47"/><rect class="cls-13" x="114.64" y="102.97" width="1.5" height="1.5"/><line class="cls-13" x1="116.14" y1="102.97" x2="114.64" y2="104.47"/><line class="cls-13" x1="116.14" y1="104.47" x2="114.64" y2="102.97"/><rect class="cls-13" x="114.64" y="101.47" width="1.5" height="1.5"/><line class="cls-13" x1="116.14" y1="101.47" x2="114.64" y2="102.97"/><line class="cls-13" x1="116.14" y1="102.97" x2="114.64" y2="101.47"/><rect class="cls-13" x="114.64" y="99.97" width="1.5" height="1.5"/><line class="cls-13" x1="116.14" y1="99.97" x2="114.64" y2="101.47"/><line class="cls-13" x1="116.14" y1="101.47" x2="114.64" y2="99.97"/><rect class="cls-13" x="114.64" y="98.47" width="1.5" height="1.5"/><line class="cls-13" x1="116.14" y1="98.47" x2="114.64" y2="99.97"/><line class="cls-13" x1="116.14" y1="99.97" x2="114.64" y2="98.47"/><rect class="cls-13" x="114.64" y="96.97" width="1.5" height="1.5"/><line class="cls-13" x1="116.14" y1="96.97" x2="114.64" y2="98.47"/><line class="cls-13" x1="116.14" y1="98.47" x2="114.64" y2="96.97"/><rect class="cls-13" x="114.64" y="95.47" width="1.5" height="1.5"/><line class="cls-13" x1="116.14" y1="95.47" x2="114.64" y2="96.97"/><line class="cls-13" x1="116.14" y1="96.97" x2="114.64" y2="95.47"/><rect class="cls-13" x="114.64" y="93.97" width="1.5" height="1.5"/><line class="cls-13" x1="116.14" y1="93.97" x2="114.64" y2="95.47"/><line class="cls-13" x1="116.14" y1="95.47" x2="114.64" y2="93.97"/><path class="cls-15" d="M116.51,45.4a.09.09,0,0,1-.1-.09V22.54a.09.09,0,0,1,.1-.09.09.09,0,0,1,.09.09V45.31A.09.09,0,0,1,116.51,45.4Z" transform="translate(0.84 46.26)"/><path class="cls-15" d="M118.48,26.28h-3.94a.09.09,0,1,1,0-.18h3.94a.09.09,0,0,1,0,.18Z" transform="translate(0.84 46.26)"/><path class="cls-15" d="M115.22,26.16a.61.61,0,0,1-.61.61.62.62,0,1,1,0-1.23A.61.61,0,0,1,115.22,26.16Z" transform="translate(0.84 46.26)"/><path class="cls-15" d="M117.12,26.16a.62.62,0,1,1-.61-.62A.62.62,0,0,1,117.12,26.16Z" transform="translate(0.84 46.26)"/><path class="cls-15" d="M119,26.16a.62.62,0,1,1-.62-.62A.62.62,0,0,1,119,26.16Z" transform="translate(0.84 46.26)"/><path class="cls-15" d="M118.48,24.48h-3.94a.09.09,0,0,1-.1-.1.09.09,0,0,1,.1-.09h3.94a.09.09,0,0,1,.09.09A.09.09,0,0,1,118.48,24.48Z" transform="translate(0.84 46.26)"/><path class="cls-15" d="M115.22,24.35a.61.61,0,0,1-.61.61.61.61,0,1,1,0-1.22A.61.61,0,0,1,115.22,24.35Z" transform="translate(0.84 46.26)"/><path class="cls-15" d="M117.12,24.35a.62.62,0,1,1-.61-.61A.61.61,0,0,1,117.12,24.35Z" transform="translate(0.84 46.26)"/><path class="cls-15" d="M119,24.35a.62.62,0,1,1-.62-.61A.61.61,0,0,1,119,24.35Z" transform="translate(0.84 46.26)"/><path class="cls-15" d="M118.48,22.67h-3.94a.09.09,0,1,1,0-.18h3.94a.09.09,0,0,1,0,.18Z" transform="translate(0.84 46.26)"/><path class="cls-15" d="M115.22,22.54a.61.61,0,0,1-.61.62.62.62,0,1,1,0-1.23A.61.61,0,0,1,115.22,22.54Z" transform="translate(0.84 46.26)"/><path class="cls-15" d="M117.12,22.54a.62.62,0,1,1-.61-.61A.62.62,0,0,1,117.12,22.54Z" transform="translate(0.84 46.26)"/><path class="cls-15" d="M119,22.54a.62.62,0,1,1-.62-.61A.62.62,0,0,1,119,22.54Z" transform="translate(0.84 46.26)"/><path class="cls-15" d="M115,52.08h-2.19V46.77l5.07-5.07h2.19V47Z" transform="translate(0.84 46.26)"/><path class="cls-42" d="M112.84,43.81h4.25V49l-.93.93h-3.32" transform="translate(0.84 46.26)"/><rect class="cls-58" x="117.09" y="46.67" width="3.01" height="0.34" transform="translate(238.04 139.95) rotate(180)"/><rect class="cls-59" x="117.09" y="45.84" width="3.01" height="0.34" transform="translate(238.04 138.29) rotate(180)"/><ellipse class="cls-60" cx="117.27" cy="70.74" rx="6.73" ry="6.86"/><rect class="cls-61" x="117.31" y="82.87" width="5.09" height="27.6"/><path class="cls-62" d="M192.62,19.69c-1.36-.24-3.57-.68-3.57-.68l-.7,2.55a7.88,7.88,0,0,0-2.43.58c-.35.34-1.63,1.39-1.63,1.39v2.66s-1.27.93-1.5,1.51a15.1,15.1,0,0,0-.7,2.89c0,.47-.58,3.94-.58,3.94a5.5,5.5,0,0,0-1.15-1,13.07,13.07,0,0,1-1.16-.69s-1.16-5-1.28-5.33-2.32.46-2.32.46a41.13,41.13,0,0,1-.81,4.29,10.79,10.79,0,0,1-.81,1.85l-1.27-1.39-1.62.58a30.36,30.36,0,0,0,0,3.36c.11.81-.58,1-1.28,1.74a3.19,3.19,0,0,0-.69,2l-3.83,1.27s.23,1.86-.69,2.67a1.25,1.25,0,0,1-1.74,0l-.93-2.67-2.43-4.05-.93-1.39s-1.5-7.65-1.85-8.46a1,1,0,0,0-1-.7l-1.16,1.51a6.9,6.9,0,0,0-1.16,1c-.35.47,0,5.22,0,5.79a8.37,8.37,0,0,1-1.39,2.9c-.47.58-.93.47-1.62,1.16s-1.63,4.31-1.63,5.23a6.56,6.56,0,0,1-.92,2.42h-2.09s-.23-1.51-.58-1.74-1.16.35-1.16.35V48.9s.47,3-.69,3.82a16.33,16.33,0,0,1-3.48,1.51,8.54,8.54,0,0,0-2.08,2.09L136.09,53l-1.5.11L132.85,51l-1.74.23s-1,5.33-1,6-1-2.89-1.28-3.36-.92-.11-.92-.11a7.82,7.82,0,0,0-.58,2.31,26.25,26.25,0,0,1-1.62,5.33c-.35.7-3.83,1.41-4.64,1.29s-2.89,1.38-2.89,1.38l-4.87,3.82s-3-1.5-3.48-1.27-2.66,1.85-2.66,1.85h-1A10.79,10.79,0,0,0,104,69.87L100.76,74h91.86Z" transform="translate(0.84 46.26)"/><path class="cls-63" d="M192.62,32c-1.05-.18-2.76-.52-2.76-.52l-.54,2a6.11,6.11,0,0,0-1.88.45c-.27.26-1.26,1.07-1.26,1.07V37s-1,.72-1.16,1.17a11.51,11.51,0,0,0-.54,2.24c0,.36-.45,3-.45,3a4.37,4.37,0,0,0-.9-.8c-.35-.18-.89-.54-.89-.54s-.9-3.85-1-4.12-1.79.36-1.79.36a31.61,31.61,0,0,1-.63,3.31,9.47,9.47,0,0,1-.62,1.44l-1-1.08L176,42.5s-.08,2,0,2.6-.44.8-1,1.34a2.47,2.47,0,0,0-.54,1.53l-3,1s.18,1.44-.53,2.06a1,1,0,0,1-1.35,0L168.89,49,167,45.81l-.71-1.07s-1.17-5.92-1.44-6.54a.77.77,0,0,0-.8-.54l-.9,1.16a5.22,5.22,0,0,0-.9.81c-.27.36,0,4,0,4.48a6.37,6.37,0,0,1-1.07,2.24c-.36.45-.72.36-1.26.9a10.82,10.82,0,0,0-1.25,4,5,5,0,0,1-.72,1.87h-1.61s-.18-1.16-.45-1.34-.9.27-.9.27V54.6s.36,2.33-.53,2.95a12.81,12.81,0,0,1-2.69,1.17,6.63,6.63,0,0,0-1.62,1.61l-1.25-2.6-1.16.09-1.35-1.61-1.34.18s-.81,4.12-.81,4.66-.81-2.24-1-2.6-.71-.09-.71-.09a6.08,6.08,0,0,0-.45,1.79,20.05,20.05,0,0,1-1.26,4.13c-.26.53-3,1.08-3.58,1S135,66.34,135,66.34l-3.76,3s-2.33-1.16-2.69-1-2.06,1.43-2.06,1.43h-.81a8.3,8.3,0,0,0-1.61,1.08L121.57,74h71.05Z" transform="translate(0.84 46.26)"/></g><rect class="cls-64" x="0.84" y="46.26" width="192" height="63"/></g></g></svg>