<?xml version="1.0" encoding="utf-8"?>
<!-- Generator: Adobe Illustrator 25.0.0, SVG Export Plug-In . SVG Version: 6.00 Build 0)  -->
<svg version="1.1" id="Layer_1" xmlns="http://www.w3.org/2000/svg" xmlns:xlink="http://www.w3.org/1999/xlink" x="0px" y="0px"
	 viewBox="0 0 10 10" style="enable-background:new 0 0 10 10;" xml:space="preserve">
<style type="text/css">
	.st0{fill:#FEC46B;}
</style>
<rect y="0" width="10" height="10"/>
<path class="st0" d="M5.01,6.72L5.01,6.72L3.3,7.6l0.32-1.89L2.26,4.38L4.15,4.1C4.17,5.07,4.49,5.97,5.01,6.72z"/>
<path class="st0" d="M6.37,5.72l0.32,1.88C5.55,6.71,4.81,5.33,4.81,3.77c0-0.48,0.07-0.94,0.2-1.37L5.85,4.1l1.9,0.28L6.37,5.72z"
	/>
<path class="st0" d="M4.7,5.05C4.68,5.06,4.66,5.07,4.64,5.07C4.62,5.08,4.6,5.09,4.58,5.09C4.47,4.71,4.4,4.3,4.39,3.89
	c0-0.01,0-0.03,0-0.04L4.47,3.8l0.1,0.05c0,0.02,0,0.04,0,0.07c0,0.05,0,0.09,0,0.14C4.58,4.4,4.63,4.73,4.7,5.05z"/>
<path class="st0" d="M5.95,7.3c-0.26-0.24-0.5-0.51-0.7-0.81C5.02,6.16,4.82,5.8,4.68,5.4c0.04-0.01,0.07-0.02,0.11-0.04
	c0.15,0.47,0.37,0.91,0.64,1.31C5.59,6.9,5.76,7.11,5.95,7.3z"/>
<polygon class="st0" points="4.62,3.59 4.65,3.79 4.57,3.75 4.47,3.69 4.39,3.74 4.29,3.79 4.32,3.59 4.18,3.44 4.38,3.41 4.4,3.38 
	4.47,3.23 4.56,3.41 4.59,3.42 4.77,3.44 "/>
</svg>
