<?xml version="1.0" encoding="utf-8"?>
<!-- Generator: Adobe Illustrator 25.0.0, SVG Export Plug-In . SVG Version: 6.00 Build 0)  -->
<svg version="1.1" id="Layer_1" xmlns="http://www.w3.org/2000/svg" xmlns:xlink="http://www.w3.org/1999/xlink" x="0px" y="0px"
	 viewBox="0 0 500 502" style="enable-background:new 0 0 500 502;" xml:space="preserve">
<style type="text/css">
	.st0{fill:#92FCFF;}
	.st1{fill:#FFFFFF;}
	.st2{fill:none;stroke:#92FCFF;stroke-miterlimit:10;}
	.st3{fill:#B5B5B5;}
	.st4{fill:#E2E2E2;}
</style>
<rect y="0" width="500" height="502"/>
<g>
	<g>
		<path class="st0" d="M18,466.6h0.8v8.8h5.1l-0.1,0.7H18V466.6z"/>
		<path class="st0" d="M27.2,476.2c-1,0-2.2-0.4-2.2-2.5v-4.5h0.7v4.3c0,1,0.3,1.9,1.6,1.9c1.5,0,2.1-0.8,2.1-2.8v-3.5h0.3
			c0.9-0.1,1.1-0.5,1.1-1.1c0-0.3-0.1-0.5-0.1-0.7h0.7c0.1,0.2,0.1,0.5,0.1,0.7c0,0.8-0.6,1.6-1.4,1.7v4.2c0,0.7,0,1.7,0,2h-0.7
			c0-0.4,0-0.8,0-1.2C29,475.8,28.1,476.3,27.2,476.2z"/>
		<path class="st0" d="M36.8,469.9c0.7-0.2,1-0.5,1-1c0-0.3-0.1-0.5-0.2-0.7h0.7c0.1,0.2,0.1,0.5,0.1,0.7c0,0.8-0.5,1.4-1.2,1.6
			c0.4,0.7,0.6,1.4,0.6,2.2c0,1.9-1,3.6-3.1,3.6c-1.8,0-3-1.5-3-3.5s1.1-3.5,3-3.5C35.5,469.1,36.2,469.4,36.8,469.9z M32.5,472.7
			c0,1.6,0.9,2.9,2.3,2.9s2.3-1.2,2.3-2.9s-0.8-2.9-2.3-2.9S32.5,471,32.5,472.7L32.5,472.7z M36.9,465.9l-2,2.1h-0.8l1.8-2.1
			L36.9,465.9z"/>
		<path class="st0" d="M38.4,469.3h1.3v-2.1h0.7v2.1H42v0.6h-1.6v4.4c0,0.8,0.2,1.2,0.8,1.2c0.2,0,0.5,0,0.7-0.1v0.6
			c-0.3,0.1-0.6,0.1-0.8,0.1c-0.9,0-1.4-0.5-1.4-1.5v-4.7h-1.3V469.3z"/>
		<path class="st0" d="M51.4,474.9c-0.4,0.9-1.3,1.4-2.3,1.3c-1.6,0-2.8-1.3-2.8-3.5c0-2.4,1.4-3.6,3-3.6c1.4,0,2,0.7,2.1,1.2
			c0-0.3,0-0.7,0-1h0.7c0,0.8,0,1.3,0,1.9v7.6h-0.7V474.9z M49.3,475.6c1.7,0,2.2-1.1,2.2-2.9s-0.5-2.8-2.1-2.8
			c-1.5,0-2.2,1.2-2.2,2.9C47.1,474.2,47.8,475.6,49.3,475.6L49.3,475.6z"/>
		<path class="st0" d="M59.4,474.1c0,0.7,0,1.7,0,2h-0.7c0-0.4,0-0.8,0-1.2c-0.3,0.9-1.2,1.4-2.2,1.3c-1,0-2.2-0.4-2.2-2.5v-4.5H55
			v4.3c0,1,0.3,1.9,1.6,1.9c1.5,0,2.1-0.8,2.1-2.8v-3.5h0.7L59.4,474.1z"/>
		<path class="st0" d="M66.3,474.8c0,0.4,0,0.9,0.1,1.3h-0.7c-0.1-0.3-0.1-0.7-0.1-1c-0.4,0.8-1.3,1.3-2.2,1.2
			c-1.1,0.1-2.1-0.6-2.2-1.7c0-0.1,0-0.2,0-0.3c0-1.5,1.2-2.2,3.2-2.2h1.3v-0.7c0-0.7-0.2-1.6-1.7-1.6c-1.4,0-1.6,0.7-1.7,1.3h-0.7
			c0.1-0.8,0.5-1.9,2.4-1.9c1.6,0,2.4,0.7,2.4,2.1L66.3,474.8z M65.6,472.6h-1.3c-1.5,0-2.4,0.4-2.4,1.6c0,0.8,0.6,1.4,1.4,1.4
			c0.1,0,0.1,0,0.2,0c1.9,0,2.2-1.3,2.2-2.7V472.6z"/>
		<path class="st0" d="M77.3,466.1v1.3h1v0.6h-1v6.1c0,0.6,0,1.3,0,2h-0.7c0-0.2,0-0.9,0-1.2c-0.4,0.9-1.3,1.4-2.3,1.3
			c-1.8,0-2.8-1.5-2.8-3.5s1.1-3.6,3-3.6c1.4,0,1.9,0.6,2.1,1.1V468h-3v-0.6h3v-1.3L77.3,466.1z M74.4,475.5c1.8,0,2.2-1.3,2.2-3
			c0-1.4-0.4-2.7-2.1-2.7c-1.3,0-2.2,1.1-2.2,2.9S73.2,475.5,74.4,475.5z"/>
		<path class="st0" d="M79.7,472.8c0,1.7,0.9,2.8,2.2,2.8c0.9,0.1,1.7-0.5,1.9-1.3h0.7c-0.3,1.2-1.4,2-2.7,1.9
			c-2.1,0-2.9-1.8-2.9-3.5c0-2,1-3.6,3-3.6c1.5,0,2.8,1.3,2.8,2.8c0,0.1,0,0.2,0,0.3c0,0.2,0,0.4,0,0.6L79.7,472.8z M84,472.2
			c0-1.3-0.7-2.4-2-2.4s-2,1-2.2,2.4H84z M82.2,466.6l1.5,1.8h-0.8l-1.1-1.3l-1,1.3H80l1.4-1.8H82.2z M83.4,467
			c0.5-0.4,0.8-0.8,0.8-1.1s-0.2-0.5-0.5-0.5c-0.3,0-0.6,0.1-0.8,0.3l-0.2-0.5c0.3-0.3,0.7-0.4,1.1-0.4c0.5-0.1,1,0.3,1.1,0.9
			c0,0,0,0.1,0,0.1c0,0.5-0.3,0.9-0.7,1.2L83.4,467z"/>
		<path class="st0" d="M90.6,472.8c0.6-0.7,2.5-2.6,3.4-3.5h0.9l-2.7,2.7l3,4.1h-0.9l-2.7-3.6l-1.1,1.1v2.5h-0.7v-10h0.7L90.6,472.8
			z"/>
		<path class="st0" d="M97,466.1v4.3c0.4-0.8,1.3-1.3,2.2-1.3c1,0,2.3,0.5,2.3,2.6v4.3h-0.7v-4.2c0-1.3-0.6-2.1-1.7-2.1
			c-1.3,0-2.1,0.8-2.1,2.5v3.8h-0.7v-10L97,466.1z"/>
		<path class="st0" d="M108.3,474.8c0,0.4,0,0.9,0.1,1.3h-0.7c-0.1-0.3-0.1-0.7-0.1-1c-0.4,0.8-1.3,1.3-2.2,1.2
			c-1.1,0.1-2.1-0.6-2.2-1.7c0-0.1,0-0.2,0-0.3c0-1.5,1.2-2.2,3.2-2.2h1.3v-0.7c0-0.7-0.2-1.6-1.7-1.6c-1.3,0-1.6,0.7-1.7,1.3h-0.7
			c0.1-0.8,0.5-1.9,2.4-1.9c1.5,0,2.4,0.7,2.4,2.1V474.8z M107.6,472.6h-1.3c-1.5,0-2.4,0.4-2.4,1.6c0,0.8,0.6,1.4,1.4,1.4
			c0.1,0,0.1,0,0.2,0c1.9,0,2.2-1.3,2.2-2.7V472.6z M108,465.9l-2,2.1h-0.8l1.9-2.1H108z"/>
		<path class="st0" d="M110.5,471c0-0.6,0-1.2,0-1.8h0.7c0,0.2,0,0.8,0,1.2c0.3-0.8,1.1-1.4,2-1.4c0.9-0.1,1.7,0.5,2,1.3
			c0.4-0.9,1.3-1.4,2.2-1.3c1,0,2.1,0.6,2.1,2.5v4.5h-0.7v-4.4c0-0.9-0.3-1.9-1.6-1.9s-1.9,1-1.9,2.4v3.9h-0.7v-4.3
			c0-1-0.3-1.9-1.5-1.9s-1.9,1.1-1.9,2.5v3.7h-0.7L110.5,471z"/>
		<path class="st0" d="M125.2,478.8V471c0-0.5,0-1.1,0-1.7h0.7c0,0.2,0,0.7,0,1.2c0.4-0.9,1.4-1.4,2.4-1.4c1.6,0,2.7,1.4,2.7,3.4
			c0,2.4-1.3,3.7-2.9,3.7c-0.9,0.1-1.7-0.4-2.1-1.1v3.7L125.2,478.8z M128.2,469.8c-1.6,0-2.3,1-2.3,2.9s0.5,2.9,2.2,2.9
			c1.4,0,2.2-1.2,2.2-3C130.3,471,129.6,469.8,128.2,469.8L128.2,469.8z"/>
		<path class="st0" d="M133.4,466.1v4.3c0.4-0.8,1.3-1.3,2.2-1.3c1,0,2.3,0.5,2.3,2.6v4.3h-0.7v-4.2c0-1.3-0.6-2.1-1.7-2.1
			c-1.3,0-2.1,0.8-2.1,2.5v3.8h-0.7v-10L133.4,466.1z"/>
		<path class="st0" d="M144.8,474.8c0,0.4,0,0.9,0.1,1.3h-0.7c-0.1-0.3-0.1-0.7-0.1-1c-0.4,0.8-1.3,1.3-2.2,1.2
			c-1.1,0.1-2.1-0.6-2.2-1.7c0-0.1,0-0.2,0-0.3c0-1.5,1.1-2.2,3.2-2.2h1.3v-0.7c0-0.7-0.2-1.6-1.7-1.6c-1.4,0-1.6,0.7-1.7,1.3h-0.7
			c0.1-0.8,0.5-1.9,2.4-1.9c1.6,0,2.4,0.7,2.4,2.1L144.8,474.8z M144.1,472.6h-1.3c-1.5,0-2.4,0.4-2.4,1.6c0,0.8,0.6,1.4,1.4,1.4
			c0.1,0,0.1,0,0.2,0c1.9,0,2.2-1.3,2.2-2.7L144.1,472.6z M144.5,465.9l-2,2.1h-0.8l1.9-2.1H144.5z"/>
	</g>
	<rect x="17.9" y="322.5" class="st1" width="80.5" height="80.5"/>
	<path d="M57.8,338.9l-11.5,3.6l-1.7-5.6l14.9-5.2h5.1v61.6h-6.8V338.9z"/>
	<g>
		<line class="st2" x1="448.4" y1="473.2" x2="152" y2="473.2"/>
		<polygon class="st0" points="445.1,469.1 444.4,469.8 448,473.2 444.4,476.5 445.1,477.3 449.5,473.2 		"/>
	</g>
	<g>
		<path class="st1" d="M43.6,120.1H10.8v-7.3h73.6v7.3H51.5v90.5h-8L43.6,120.1z"/>
		<path class="st1" d="M106.8,165v45.5h-8v-97.7H134c19.3,0,29.4,10.3,29.4,25.7c0,12.4-7.4,20.5-18.1,22.9
			c9.9,2.4,16.6,8.9,16.6,25.6v3.8c0,6.8-0.6,16.1,1.3,19.8h-8c-1.8-4.2-1.4-12-1.4-20.4v-2.5c0-15.9-4.6-22.6-23.3-22.6L106.8,165z
			 M106.8,157.9h23.4c17,0,24.9-6.4,24.9-19.1c0-12-7.7-18.7-22.9-18.7h-25.4L106.8,157.9z"/>
		<path class="st1" d="M198.7,177l-12.3,33.5h-8l35.7-97.7h9.4l37.3,97.7h-8.5L239.7,177H198.7z M205.5,87.4
			c1.3,6.1,5.7,10.2,13.4,10.2c8.9,0,12.4-4.6,13.7-10.2h6.4c-1.5,10.3-8.8,16.9-20.1,16.9c-13.1,0-19.3-8.2-20.1-16.9H205.5z
			 M237.2,169.7c-10.9-28.7-16.3-42.7-18.4-49.4h-0.1c-2.4,7.5-8.5,24.7-17.3,49.4H237.2z"/>
		<path class="st1" d="M278.1,210.5v-97.7h11.5c15.2,23.5,50.5,77.6,56.7,88.2h0.1c-0.8-14-0.7-28.3-0.7-44.2v-44h8v97.7H343
			c-14.5-22.5-50.5-79-57.5-89.8h-0.1c0.7,12.7,0.6,27.1,0.6,44.8v44.9L278.1,210.5z"/>
		<path class="st1" d="M456.4,210.5h-6.4c-0.5-1.1-1-6.1-1.1-15.5c-3.5,6.7-11.2,16.6-31.4,16.6c-28.1,0-42.4-21.4-42.4-49.1
			c0-29.2,15.4-51.1,44-51.1c21.2,0,35.2,11.2,38.2,29h-7.8c-4.2-13.5-13.7-21.8-30.7-21.8c-24.3,0-35.3,18.9-35.3,43.4
			c0,22.2,10.6,42.4,34.5,42.4c24.1,0,31-15.9,31-37.3v-1.1h-31.3V159h38.8V210.5z"/>
	</g>
</g>
<g>
	<g>
		<path class="st3" d="M16.8,77V28h5.7C30.2,39.8,47.9,67,51,72.3h0c-0.4-7-0.3-14.2-0.3-22.2V28h4v49h-5.3
			C42.1,65.8,24,37.4,20.5,32h-0.1c0.4,6.4,0.3,13.6,0.3,22.5V77H16.8z"/>
		<path class="st3" d="M97.9,53H73v20.4h27.3L99.7,77H69.1V28h30.1v3.6H73v17.7h24.9V53z M85.9,15.3l9.3,8.1h-5l-6.4-5.3l-6.3,5.3
			h-4.7l9-8.1L85.9,15.3z M103.6,8.5l-8.4,7.8H91l7.5-7.8H103.6z"/>
		<path class="st3" d="M113.5,28v29.7c0,13,7.3,16.3,14.2,16.3c8.2,0,14.2-3.4,14.2-16.3V28h4v29.5c0,15.3-8.2,20.1-18.3,20.1
			c-9.7,0-18.1-5.3-18.1-19.5V28H113.5z"/>
		<path class="st3" d="M219.8,54.5c0-9.5,0.1-18.7,0.3-23.6h-0.2c-2,6.7-11.8,30.6-18,46.1H198c-4.6-12-14.9-38.7-17-46.2h-0.2
			c0.4,5.6,0.6,17,0.6,25.4V77h-3.9V28h5.9c6.7,16.7,15.1,38.6,16.8,44.1h0.1c1.1-3.6,10.9-27.9,17.6-44.1h5.8v49h-3.9L219.8,54.5z"
			/>
		<path class="st3" d="M242.6,60.2L236.4,77h-4l17.9-49h4.7l18.7,49h-4.3l-6.3-16.8L242.6,60.2z M246,15.2c0.6,3.1,2.9,5.1,6.7,5.1
			c4.5,0,6.2-2.3,6.9-5.1h3.2c-0.8,5.2-4.4,8.5-10.1,8.5c-6.6,0-9.7-4.1-10.1-8.5H246z M261.9,56.5c-5.5-14.4-8.2-21.4-9.2-24.8
			h-0.1c-1.2,3.8-4.3,12.4-8.7,24.8H261.9z M251,89.2V83h4.1v6.2L251,89.2z"/>
		<path class="st3" d="M286.3,31.6h-16.5V28h36.9v3.6h-16.5V77h-4L286.3,31.6z"/>
	</g>
	<g>
		<path class="st3" d="M55.7,274.7c-2.4,8.2-8.4,14.3-19.3,14.3C21.8,289,14,277.3,14,262.9c0-13.8,7.6-26.4,22.5-26.4
			c11.1,0,17.6,6.2,19.3,14.8h-4.1c-2.3-6.6-6.6-11-15.4-11c-12.6,0-17.9,11.5-17.9,22.5s5.2,22.4,18.2,22.4c8.3,0,12.5-4.4,15-10.6
			L55.7,274.7z"/>
		<path class="st3" d="M66.7,237.3h4.1v22.2h30.5v-22.2h4.1v51.1h-4.1v-25.1H70.8v25.1h-4.1V237.3z"/>
		<path class="st3" d="M120.1,232.6c3.1-2.5,4.8-4.5,4.8-6.6c0-1.5-1-3-3.4-3c-1.6,0-3.2,0.5-4.6,1.4l-1.2-2.7
			c1.9-1.4,4.2-2.1,6.5-2.1c4.4,0,6.6,3.1,6.6,6.1c0,3.5-2.2,5.5-4,7L120.1,232.6z M124.4,237.3v51.1h-4.1v-51.1H124.4z"/>
		<path class="st3" d="M168.1,241.1h-17.2v-3.8h38.5v3.8h-17.2v47.3h-4.2V241.1z"/>
		<path class="st3" d="M238.7,262.5c0,14-7.5,26.7-23.3,26.7c-14.4,0-22.8-11.6-22.8-26.3c0-14.5,8.1-26.3,23.3-26.3
			C230,236.6,238.7,247.6,238.7,262.5z M197,262.6c0,11.8,6.4,22.7,18.6,22.7c13.2,0,18.7-10.7,18.7-22.8c0-11.8-6.3-22.2-18.6-22.2
			C202.7,240.4,197,251.2,197,262.6L197,262.6z"/>
		<path class="st3" d="M268.9,237.3h17.9c9.9,0,15,5.3,15,12.6c0,6.1-3.6,10-7.8,11.2c5.7,1.5,9.7,6.7,9.6,12.6
			c0,10.2-7.6,14.8-16.6,14.8h-18.2V237.3z M285.5,259.3c8.8,0,12-3.3,12-9.1c0-5-3.4-9.1-10.5-9.1h-14v18.2H285.5z M273,284.7h14.2
			c6.7,0,12.3-3.4,12.3-10.8c0-6.5-4.1-10.9-14.3-10.9H273V284.7z"/>
		<path class="st3" d="M320.4,270.9l-6.4,17.5h-4.2l18.7-51.1h4.9l19.6,51.1h-4.5l-6.6-17.5H320.4z M323.7,225.3
			c1,2.3,3.2,4.4,7.4,4.4c5,0,6.6-2.4,7.6-4.4h3.6c-1.2,4.2-4.5,7.8-11.2,7.8c-7.7,0-10.5-5.1-11.1-7.8H323.7z M327.1,216l7.2,7.9
			H330l-8.4-7.9H327.1z M340.6,267.1c-5.7-15-8.5-22.4-9.6-25.9h-0.1c-1.2,3.9-4.5,12.9-9.1,25.9H340.6z"/>
		<path class="st3" d="M362,288.4v-51.1h6c8,12.3,26.4,40.6,29.7,46.2h0.1c-0.4-7.3-0.4-14.8-0.4-23.2v-23h4.2v51.1H396
			c-7.6-11.8-26.5-41.4-30.1-47h-0.1c0.4,6.6,0.3,14.2,0.3,23.5v23.5L362,288.4z"/>
		<path class="st3" d="M455.3,288.4H452c-0.3-0.6-0.5-3.2-0.6-8.1c-1.8,3.5-5.9,8.7-16.4,8.7c-14.7,0-22.2-11.2-22.2-25.7
			c0-15.3,8-26.7,23-26.7c11.1,0,18.4,5.8,20,15.2h-4.1c-2.2-7.1-7.2-11.4-16.1-11.4c-12.7,0-18.5,9.9-18.5,22.7
			c0,11.6,5.6,22.2,18,22.2c12.6,0,16.2-8.3,16.2-19.5v-0.6H435v-3.7h20.3V288.4z"/>
	</g>
	<g>
		<path class="st1" d="M131.8,360.5v-22.1h16.3c13.4,0,22.8,9.4,22.8,24.1s-9.1,24.9-22.9,24.9h-16.2v-23.5h-6.3v-3.4L131.8,360.5z
			 M135.8,360.5h14.2v3.4h-14.2v19.9h11.8c12.8,0,19.2-9,19.2-21.1c0-10.7-5.7-20.7-19.2-20.7h-11.8V360.5z"/>
		<path class="st1" d="M185.5,338.4v49h-3.9v-49H185.5z"/>
		<path class="st1" d="M228.7,363.4h-24.9v20.4h27.3l-0.6,3.6h-30.7v-49H230v3.6h-26.2v17.7h24.9L228.7,363.4z M216.5,325.4l9.3,8.1
			h-5l-6.4-5.3l-6.3,5.3h-4.7l9-8.1H216.5z M223.1,326.6c3-2.1,4.1-3.9,4.1-5.5c0-1.3-0.7-2.5-2.9-2.5c-1.5,0-3,0.5-4.2,1.3
			l-1.2-2.6c1.7-1.2,3.7-1.9,5.8-1.9c3.9,0,6,2.3,6,5.3c-0.1,2.4-1.4,4.6-3.4,5.9L223.1,326.6z"/>
		<path class="st1" d="M283.1,364.9c0-9.5,0.1-18.7,0.3-23.6h-0.2c-2,6.7-11.8,30.6-18,46.1h-3.9c-4.6-12-14.9-38.7-17-46.2h-0.2
			c0.4,5.6,0.6,17,0.6,25.4v20.8h-3.9v-49h5.9c6.7,16.7,15.1,38.6,16.8,44.1h0.1c1.1-3.6,10.9-27.9,17.6-44.1h5.8v49h-3.9
			L283.1,364.9z"/>
		<path class="st1" d="M324.1,370.6l-6.1,16.8h-4l17.9-49h4.7l18.7,49H351l-6.3-16.8H324.1z M343.5,367c-5.5-14.4-8.2-21.4-9.2-24.8
			h-0.1c-1.2,3.8-4.3,12.4-8.7,24.8H343.5z M332.2,333.9c3-2.4,4.6-4.4,4.6-6.4c0-1.5-0.9-2.9-3.3-2.9c-1.6,0-3.1,0.4-4.4,1.3
			l-1.2-2.6c1.8-1.3,4-2,6.2-2c4.2,0,6.3,2.9,6.3,5.8c0,3.4-2.1,5.3-3.9,6.7L332.2,333.9z"/>
		<path class="st1" d="M364,387.4v-49h5.8c7.6,11.8,25.4,39,28.4,44.3h0.1c-0.4-7-0.4-14.2-0.4-22.2v-22.1h4v49h-5.3
			c-7.3-11.3-25.4-39.6-28.9-45h-0.1c0.4,6.4,0.3,13.6,0.3,22.5v22.6L364,387.4z"/>
		<path class="st1" d="M416.3,338.4h3.9v21.3h29.2v-21.3h3.9v49h-3.9v-24.1h-29.2v24.1h-3.9V338.4z"/>
	</g>
</g>
<g>
	<path class="st4" d="M24.9,422.6c1.3,0,2.2,0.3,2.9,0.9c0.7,0.6,1,1.5,1,2.7c0,0.6-0.1,1.2-0.4,1.7c-0.3,0.5-0.7,0.9-1.3,1.2
		c-0.6,0.3-1.3,0.4-2.2,0.5l0-0.8c0.5,0,1,0.1,1.5,0.2c0.5,0.1,1,0.3,1.5,0.6c0.5,0.3,0.9,0.7,1.2,1.2c0.3,0.5,0.5,1.2,0.5,1.9
		c0,0.8-0.1,1.5-0.4,2.1c-0.3,0.6-0.6,1-1.1,1.3c-0.5,0.3-1,0.5-1.5,0.7c-0.5,0.1-1.1,0.2-1.6,0.2h-5.3c-0.3,0-0.5-0.1-0.7-0.3
		s-0.3-0.5-0.3-0.8v-12.4c0-0.3,0.1-0.6,0.3-0.8c0.2-0.2,0.5-0.3,0.7-0.3H24.9z M24.6,424.6h-4.1l0.2-0.3v4.5l-0.2-0.2h4.1
		c0.5,0,0.9-0.2,1.3-0.5c0.4-0.3,0.6-0.8,0.6-1.4c0-0.7-0.2-1.1-0.5-1.5C25.6,424.8,25.2,424.6,24.6,424.6z M24.7,430.6h-4.1
		l0.1-0.1v4.9l-0.2-0.2h4.3c0.7,0,1.3-0.2,1.7-0.6c0.4-0.4,0.7-1,0.7-1.7c0-0.7-0.1-1.1-0.4-1.5c-0.3-0.3-0.6-0.5-1-0.6
		C25.5,430.6,25.1,430.6,24.7,430.6z"/>
	<path class="st4" d="M37.3,425.3l-4.7,11.2c-0.1,0.2-0.2,0.4-0.4,0.5c-0.2,0.1-0.4,0.2-0.6,0.2c-0.3,0-0.5-0.1-0.7-0.3
		c-0.2-0.2-0.2-0.4-0.2-0.7c0-0.1,0-0.2,0.1-0.3l5.3-12.8c0.1-0.2,0.2-0.4,0.4-0.5c0.2-0.1,0.4-0.2,0.6-0.2c0.2,0,0.4,0.1,0.6,0.2
		s0.3,0.3,0.4,0.5l5.2,12.6c0.1,0.1,0.1,0.3,0.1,0.4c0,0.3-0.1,0.6-0.3,0.7c-0.2,0.2-0.4,0.3-0.7,0.3c-0.2,0-0.4-0.1-0.6-0.2
		s-0.3-0.3-0.4-0.5l-4.7-11.2L37.3,425.3z M33.4,433.6l0.9-2h5.9l0.4,2H33.4z M35.2,418c0.2-0.2,0.5-0.3,0.7-0.4
		c0.2-0.1,0.6-0.2,0.9-0.2c0.5,0,0.9,0.1,1.2,0.3c0.3,0.2,0.5,0.4,0.6,0.7s0.2,0.5,0.2,0.8c0,0.2,0,0.4-0.1,0.6
		c-0.1,0.2-0.2,0.4-0.4,0.6c-0.1,0.1-0.2,0.3-0.3,0.4c-0.1,0.1-0.1,0.2-0.1,0.4c0,0.1-0.1,0.2-0.2,0.3c-0.1,0.1-0.3,0.1-0.5,0.1
		c-0.1,0-0.2,0-0.3-0.1c-0.1-0.1-0.2-0.2-0.2-0.3c0-0.1,0-0.3,0.1-0.4c0.1-0.1,0.1-0.3,0.2-0.4c0.1-0.2,0.2-0.3,0.4-0.5
		s0.2-0.3,0.2-0.4c0-0.2-0.1-0.3-0.2-0.4c-0.1-0.1-0.3-0.2-0.5-0.2c-0.2,0-0.3,0-0.5,0.1c-0.1,0.1-0.3,0.2-0.4,0.3
		c-0.1,0.1-0.2,0.1-0.4,0.1s-0.3-0.1-0.5-0.2c-0.1-0.2-0.2-0.3-0.1-0.5C35,418.3,35.1,418.1,35.2,418z"/>
	<path class="st4" d="M56.4,422.6c0.3,0,0.5,0.1,0.7,0.3s0.3,0.4,0.3,0.7v12.5c0,0.3-0.1,0.6-0.3,0.8c-0.2,0.2-0.5,0.3-0.8,0.3
		c-0.1,0-0.3,0-0.4-0.1c-0.2-0.1-0.3-0.1-0.4-0.2l-8.5-11.1l0.5-0.3v10.7c0,0.3-0.1,0.5-0.3,0.7c-0.2,0.2-0.4,0.3-0.7,0.3
		c-0.3,0-0.5-0.1-0.7-0.3c-0.2-0.2-0.3-0.4-0.3-0.7v-12.5c0-0.3,0.1-0.6,0.3-0.8s0.5-0.3,0.7-0.3c0.2,0,0.3,0,0.5,0.1
		c0.2,0.1,0.3,0.2,0.4,0.3l8.3,10.9l-0.3,0.3v-10.5c0-0.3,0.1-0.5,0.3-0.7C55.8,422.7,56.1,422.6,56.4,422.6z"/>
	<path class="st4" d="M65.9,430.8c-0.3,0-0.6-0.1-0.8-0.3c-0.2-0.2-0.3-0.4-0.3-0.7c0-0.3,0.1-0.5,0.3-0.7s0.5-0.3,0.8-0.3h3.5
		c0.3,0,0.6,0.1,0.8,0.3c0.2,0.2,0.3,0.4,0.3,0.7c0,0.3-0.1,0.5-0.3,0.7c-0.2,0.2-0.5,0.3-0.8,0.3H65.9z M72.6,422.6
		c1,0,1.9,0.2,2.7,0.6c0.8,0.4,1.4,0.9,1.9,1.6s0.9,1.4,1.2,2.3c0.3,0.9,0.4,1.8,0.4,2.8c0,1.3-0.2,2.6-0.7,3.7
		c-0.5,1.1-1.2,2-2.1,2.6c-0.9,0.7-2.1,1-3.4,1h-5.1c-0.3,0-0.5-0.1-0.7-0.3s-0.3-0.5-0.3-0.8v-12.4c0-0.3,0.1-0.6,0.3-0.8
		c0.2-0.2,0.5-0.3,0.7-0.3H72.6z M72.4,435.2c1,0,1.8-0.2,2.4-0.7c0.6-0.5,1.1-1.1,1.3-1.9c0.3-0.8,0.4-1.7,0.4-2.6
		c0-0.7-0.1-1.4-0.2-2c-0.2-0.6-0.4-1.2-0.7-1.7s-0.8-0.9-1.3-1.2s-1.1-0.4-1.9-0.4h-3.9l0.2-0.2v11l-0.1-0.2H72.4z"/>
	<path class="st4" d="M94.6,429.9c0,1.1-0.2,2-0.5,2.9s-0.8,1.7-1.5,2.4s-1.4,1.2-2.2,1.6c-0.9,0.4-1.8,0.6-2.8,0.6
		c-1,0-1.9-0.2-2.8-0.6c-0.9-0.4-1.6-0.9-2.2-1.6s-1.1-1.5-1.5-2.4s-0.5-1.9-0.5-2.9c0-1.1,0.2-2,0.5-2.9c0.3-0.9,0.8-1.7,1.5-2.4
		s1.4-1.2,2.2-1.6c0.9-0.4,1.8-0.6,2.8-0.6c1,0,2,0.2,2.8,0.6c0.9,0.4,1.6,0.9,2.2,1.6s1.1,1.5,1.5,2.4
		C94.4,427.8,94.6,428.8,94.6,429.9z M92.4,429.9c0-1-0.2-1.9-0.6-2.8c-0.4-0.8-1-1.5-1.7-1.9s-1.6-0.7-2.5-0.7
		c-0.9,0-1.8,0.2-2.5,0.7c-0.7,0.5-1.3,1.1-1.7,1.9c-0.4,0.8-0.6,1.7-0.6,2.8c0,1,0.2,1.9,0.6,2.8c0.4,0.8,1,1.5,1.7,1.9
		c0.7,0.5,1.5,0.7,2.5,0.7c0.9,0,1.8-0.2,2.5-0.7s1.3-1.1,1.7-1.9C92.2,431.8,92.4,430.9,92.4,429.9z M87.9,420.1l-1.8,1.2
		c-0.2,0.1-0.4,0.2-0.5,0.3c-0.1,0.1-0.3,0.1-0.4,0.1c-0.2,0-0.3,0-0.4-0.1c-0.1-0.1-0.2-0.2-0.2-0.3c0-0.1,0-0.2,0.1-0.2
		c0-0.1,0.1-0.2,0.2-0.3l1.4-1.6c0.2-0.2,0.3-0.3,0.5-0.4c0.2-0.1,0.4-0.1,0.6-0.1h0.3c0.2,0,0.4,0,0.6,0.1c0.2,0.1,0.3,0.2,0.5,0.4
		l1.4,1.6c0.1,0.1,0.2,0.2,0.2,0.3c0,0.1,0.1,0.2,0.1,0.2c0,0.1-0.1,0.2-0.2,0.3c-0.1,0.1-0.2,0.1-0.4,0.1c-0.1,0-0.3,0-0.4-0.1
		c-0.1-0.1-0.3-0.2-0.5-0.3l-1.8-1.1L87.9,420.1z M90.8,419c-0.1,0-0.1,0-0.2,0c-0.1,0-0.2-0.1-0.2-0.1l-2.1-1.1
		c-0.4-0.2-0.7-0.6-0.7-1c0-0.3,0.1-0.5,0.3-0.7s0.4-0.2,0.6-0.2c0.2,0,0.3,0,0.5,0.1c0.2,0.1,0.3,0.2,0.4,0.3l1.8,1.5
		c0.1,0.1,0.2,0.2,0.2,0.2s0.1,0.2,0.1,0.2c0,0.2-0.1,0.3-0.2,0.4S91,419,90.8,419z"/>
	<path class="st4" d="M113.3,423.4c0.3,0.2,0.5,0.4,0.5,0.7c0,0.3,0,0.6-0.2,0.9c-0.2,0.2-0.4,0.3-0.6,0.4c-0.2,0-0.5,0-0.7-0.1
		c-0.4-0.2-0.8-0.4-1.3-0.5s-0.9-0.2-1.4-0.2c-0.8,0-1.5,0.1-2.1,0.4c-0.6,0.3-1.2,0.6-1.6,1.1s-0.8,1-1.1,1.7
		c-0.2,0.7-0.4,1.4-0.4,2.2c0,0.9,0.1,1.6,0.4,2.3c0.3,0.7,0.6,1.2,1.1,1.7c0.5,0.5,1,0.8,1.6,1c0.6,0.2,1.3,0.3,2,0.3
		c0.5,0,0.9-0.1,1.4-0.2c0.5-0.1,0.9-0.3,1.3-0.5c0.2-0.1,0.5-0.2,0.7-0.1c0.2,0,0.4,0.2,0.6,0.4c0.2,0.3,0.3,0.6,0.3,0.9
		c-0.1,0.3-0.2,0.5-0.5,0.7c-0.3,0.2-0.7,0.4-1.1,0.5c-0.4,0.1-0.8,0.2-1.3,0.3c-0.4,0.1-0.9,0.1-1.3,0.1c-1,0-1.9-0.2-2.8-0.5
		c-0.9-0.3-1.7-0.8-2.4-1.5c-0.7-0.6-1.2-1.4-1.6-2.4c-0.4-0.9-0.6-2-0.6-3.2c0-1.1,0.2-2.1,0.6-3c0.4-0.9,0.9-1.7,1.6-2.4
		c0.7-0.7,1.5-1.2,2.4-1.5c0.9-0.4,1.9-0.6,3-0.6c0.7,0,1.3,0.1,1.9,0.2C112.2,422.9,112.8,423.1,113.3,423.4z"/>
	<path class="st4" d="M126.5,422.6c0.3,0,0.5,0.1,0.7,0.3c0.2,0.2,0.3,0.5,0.3,0.8v7.9c0,1.1-0.2,2.1-0.7,3c-0.5,0.9-1.2,1.6-2,2
		s-1.8,0.7-2.9,0.7c-1.1,0-2.1-0.2-2.9-0.7c-0.9-0.5-1.5-1.2-2-2c-0.5-0.9-0.7-1.9-0.7-3v-7.9c0-0.3,0.1-0.6,0.3-0.8
		s0.5-0.3,0.8-0.3c0.3,0,0.5,0.1,0.7,0.3s0.3,0.5,0.3,0.8v7.9c0,0.7,0.2,1.4,0.5,1.9c0.3,0.5,0.8,1,1.3,1.3c0.5,0.3,1.1,0.5,1.7,0.5
		c0.7,0,1.3-0.2,1.8-0.5c0.6-0.3,1-0.7,1.3-1.3s0.5-1.2,0.5-1.9v-7.9c0-0.3,0.1-0.6,0.3-0.8S126.2,422.6,126.5,422.6z M122,440.2
		c-0.4,0-0.7-0.1-0.9-0.2c-0.2-0.1-0.3-0.4-0.3-0.7v-0.3c0-0.4,0.1-0.6,0.3-0.8s0.5-0.2,0.9-0.2c0.4,0,0.7,0.1,0.9,0.2
		s0.3,0.4,0.3,0.8v0.3c0,0.4-0.1,0.6-0.3,0.7C122.7,440.1,122.4,440.2,122,440.2z M126.3,424.3v-1.7c0.6,0,1-0.1,1.4-0.3
		s0.5-0.6,0.5-1.1c0-0.2,0.1-0.5,0.2-0.7c0.2-0.2,0.4-0.3,0.7-0.3c0.3,0,0.6,0.1,0.7,0.3c0.1,0.2,0.2,0.4,0.2,0.6
		c0,0.6-0.1,1.1-0.4,1.6c-0.3,0.5-0.6,0.9-1.2,1.1S127.2,424.3,126.3,424.3z"/>
	<path class="st4" d="M141.3,423.4c0.3,0.2,0.5,0.4,0.5,0.7c0,0.3,0,0.6-0.2,0.9c-0.2,0.2-0.4,0.3-0.6,0.4c-0.2,0-0.5,0-0.7-0.1
		c-0.4-0.2-0.8-0.4-1.3-0.5s-0.9-0.2-1.4-0.2c-0.8,0-1.5,0.1-2.1,0.4c-0.6,0.3-1.2,0.6-1.6,1.1s-0.8,1-1.1,1.7
		c-0.2,0.7-0.4,1.4-0.4,2.2c0,0.9,0.1,1.6,0.4,2.3c0.3,0.7,0.6,1.2,1.1,1.7c0.5,0.5,1,0.8,1.6,1c0.6,0.2,1.3,0.3,2,0.3
		c0.5,0,0.9-0.1,1.4-0.2c0.5-0.1,0.9-0.3,1.3-0.5c0.2-0.1,0.5-0.2,0.7-0.1c0.2,0,0.4,0.2,0.6,0.4c0.2,0.3,0.3,0.6,0.3,0.9
		c-0.1,0.3-0.2,0.5-0.5,0.7c-0.3,0.2-0.7,0.4-1.1,0.5c-0.4,0.1-0.8,0.2-1.3,0.3c-0.4,0.1-0.9,0.1-1.3,0.1c-1,0-1.9-0.2-2.8-0.5
		c-0.9-0.3-1.7-0.8-2.4-1.5c-0.7-0.6-1.2-1.4-1.6-2.4c-0.4-0.9-0.6-2-0.6-3.2c0-1.1,0.2-2.1,0.6-3c0.4-0.9,0.9-1.7,1.6-2.4
		c0.7-0.7,1.5-1.2,2.4-1.5c0.9-0.4,1.9-0.6,3-0.6c0.7,0,1.3,0.1,1.9,0.2C140.1,422.9,140.7,423.1,141.3,423.4z"/>
	<path class="st4" d="M151,437.2c-0.3,0-0.6-0.1-0.8-0.3c-0.2-0.2-0.3-0.5-0.3-0.8v-12.4c0-0.3,0.1-0.6,0.3-0.8
		c0.2-0.2,0.5-0.3,0.8-0.3c0.3,0,0.6,0.1,0.8,0.3c0.2,0.2,0.3,0.5,0.3,0.8v12.4c0,0.3-0.1,0.6-0.3,0.8S151.3,437.2,151,437.2z
		 M160.2,422.5c0.3,0,0.5,0.1,0.7,0.3c0.2,0.2,0.3,0.5,0.3,0.7c0,0.2-0.1,0.5-0.3,0.7l-9,8.5l-0.1-2.5l7.6-7.4
		C159.6,422.7,159.9,422.5,160.2,422.5z M160.1,437.2c-0.3,0-0.6-0.1-0.8-0.4l-5.2-6.7l1.6-1.6l5.3,6.9c0.2,0.2,0.2,0.5,0.2,0.7
		c0,0.3-0.1,0.6-0.4,0.8S160.4,437.2,160.1,437.2z"/>
	<path class="st4" d="M173.2,422.5c0.3,0,0.5,0.1,0.7,0.3c0.2,0.2,0.3,0.5,0.3,0.8c0,0.1,0,0.2-0.1,0.3c0,0.1-0.1,0.2-0.2,0.3
		l-4.8,6.7l0.3-1.2v6.3c0,0.3-0.1,0.6-0.3,0.8s-0.4,0.3-0.7,0.3c-0.3,0-0.5-0.1-0.7-0.3c-0.2-0.2-0.3-0.5-0.3-0.8v-6.2l0.1,0.6
		l-4.6-6.1c-0.1-0.2-0.2-0.3-0.2-0.4c0-0.1-0.1-0.3-0.1-0.4c0-0.3,0.1-0.6,0.4-0.7s0.5-0.3,0.7-0.3c0.3,0,0.6,0.2,0.9,0.5l4.2,5.7
		l-0.5-0.1l3.9-5.6C172.6,422.7,172.9,422.5,173.2,422.5z M168.5,421.7c-0.1,0-0.1,0-0.2,0c-0.1,0-0.2-0.1-0.2-0.1l-2.1-1.1
		c-0.4-0.2-0.7-0.6-0.7-1c0-0.3,0.1-0.5,0.3-0.7s0.4-0.2,0.6-0.2c0.2,0,0.3,0,0.5,0.1c0.2,0.1,0.3,0.2,0.4,0.3l1.8,1.5
		c0.1,0.1,0.2,0.2,0.2,0.2c0,0.1,0.1,0.2,0.1,0.2c0,0.2-0.1,0.3-0.2,0.4C168.9,421.6,168.7,421.7,168.5,421.7z"/>
	<path class="st4" d="M192.4,423.4c0.3,0.2,0.5,0.4,0.5,0.7c0,0.3,0,0.6-0.2,0.9c-0.2,0.2-0.4,0.3-0.6,0.4c-0.2,0-0.5,0-0.7-0.1
		c-0.4-0.2-0.8-0.4-1.3-0.5s-0.9-0.2-1.4-0.2c-0.8,0-1.5,0.1-2.1,0.4c-0.6,0.3-1.2,0.6-1.6,1.1s-0.8,1-1.1,1.7
		c-0.2,0.7-0.4,1.4-0.4,2.2c0,0.9,0.1,1.6,0.4,2.3c0.3,0.7,0.6,1.2,1.1,1.7c0.5,0.5,1,0.8,1.6,1c0.6,0.2,1.3,0.3,2,0.3
		c0.5,0,0.9-0.1,1.4-0.2c0.5-0.1,0.9-0.3,1.3-0.5c0.2-0.1,0.5-0.2,0.7-0.1c0.2,0,0.4,0.2,0.6,0.4c0.2,0.3,0.3,0.6,0.3,0.9
		c-0.1,0.3-0.2,0.5-0.5,0.7c-0.3,0.2-0.7,0.4-1.1,0.5c-0.4,0.1-0.8,0.2-1.3,0.3c-0.4,0.1-0.9,0.1-1.3,0.1c-1,0-1.9-0.2-2.8-0.5
		c-0.9-0.3-1.7-0.8-2.4-1.5c-0.7-0.6-1.2-1.4-1.6-2.4c-0.4-0.9-0.6-2-0.6-3.2c0-1.1,0.2-2.1,0.6-3c0.4-0.9,0.9-1.7,1.6-2.4
		c0.7-0.7,1.5-1.2,2.4-1.5c0.9-0.4,1.9-0.6,3-0.6c0.7,0,1.3,0.1,1.9,0.2C191.3,422.9,191.8,423.1,192.4,423.4z"/>
	<path class="st4" d="M196.4,422.6c0.3,0,0.5,0.1,0.7,0.3c0.2,0.2,0.3,0.5,0.3,0.8v12.4c0,0.3-0.1,0.6-0.3,0.8s-0.5,0.3-0.8,0.3
		c-0.3,0-0.6-0.1-0.8-0.3c-0.2-0.2-0.3-0.5-0.3-0.8v-12.4c0-0.3,0.1-0.6,0.3-0.8C195.8,422.7,196.1,422.6,196.4,422.6z M196.3,428.8
		h9.5l0,2h-9.5L196.3,428.8z M205.8,422.6c0.3,0,0.6,0.1,0.8,0.3c0.2,0.2,0.3,0.5,0.3,0.8v12.4c0,0.3-0.1,0.6-0.3,0.8
		c-0.2,0.2-0.5,0.3-0.8,0.3c-0.3,0-0.5-0.1-0.7-0.3s-0.3-0.5-0.3-0.8v-12.4c0-0.3,0.1-0.6,0.3-0.8
		C205.2,422.7,205.5,422.6,205.8,422.6z"/>
	<path class="st4" d="M212.4,436.1c0,0.3-0.1,0.6-0.3,0.8s-0.5,0.3-0.8,0.3c-0.3,0-0.6-0.1-0.8-0.3c-0.2-0.2-0.3-0.5-0.3-0.8v-12.4
		c0-0.3,0.1-0.6,0.3-0.8c0.2-0.2,0.5-0.3,0.8-0.3c0.3,0,0.5,0.1,0.7,0.3c0.2,0.2,0.3,0.5,0.3,0.8V436.1z M211.4,421.7
		c-0.2,0-0.4-0.1-0.5-0.2c-0.1-0.1-0.2-0.3-0.2-0.4c0-0.1,0-0.2,0.1-0.2c0-0.1,0.1-0.2,0.2-0.2l1.8-1.5c0.1-0.1,0.3-0.2,0.4-0.3
		c0.2-0.1,0.3-0.1,0.5-0.1c0.2,0,0.4,0.1,0.6,0.2c0.2,0.2,0.3,0.4,0.3,0.7c0,0.2-0.1,0.4-0.2,0.5c-0.1,0.2-0.3,0.3-0.5,0.4l-2.1,1.1
		c-0.1,0.1-0.1,0.1-0.2,0.1C211.5,421.7,211.5,421.7,211.4,421.7z"/>
	<path class="st4" d="M226.7,422.6c0.3,0,0.5,0.1,0.7,0.3c0.2,0.2,0.3,0.4,0.3,0.7v12.5c0,0.3-0.1,0.6-0.3,0.8s-0.5,0.3-0.8,0.3
		c-0.1,0-0.3,0-0.4-0.1c-0.2-0.1-0.3-0.1-0.4-0.2l-8.5-11.1l0.5-0.3v10.7c0,0.3-0.1,0.5-0.3,0.7c-0.2,0.2-0.4,0.3-0.7,0.3
		c-0.3,0-0.5-0.1-0.7-0.3c-0.2-0.2-0.3-0.4-0.3-0.7v-12.5c0-0.3,0.1-0.6,0.3-0.8s0.5-0.3,0.7-0.3c0.2,0,0.3,0,0.5,0.1
		c0.2,0.1,0.3,0.2,0.4,0.3l8.3,10.9l-0.3,0.3v-10.5c0-0.3,0.1-0.5,0.3-0.7S226.4,422.6,226.7,422.6z"/>
	<path class="st4" d="M232.1,422.6c0.3,0,0.5,0.1,0.7,0.3c0.2,0.2,0.3,0.5,0.3,0.8v12.4c0,0.3-0.1,0.6-0.3,0.8s-0.5,0.3-0.8,0.3
		c-0.3,0-0.6-0.1-0.8-0.3s-0.3-0.5-0.3-0.8v-12.4c0-0.3,0.1-0.6,0.3-0.8C231.5,422.7,231.8,422.6,232.1,422.6z M232.1,428.8h9.5l0,2
		H232L232.1,428.8z M241.5,422.6c0.3,0,0.6,0.1,0.8,0.3c0.2,0.2,0.3,0.5,0.3,0.8v12.4c0,0.3-0.1,0.6-0.3,0.8s-0.5,0.3-0.8,0.3
		c-0.3,0-0.5-0.1-0.7-0.3s-0.3-0.5-0.3-0.8v-12.4c0-0.3,0.1-0.6,0.3-0.8C241,422.7,241.2,422.6,241.5,422.6z"/>
	<path class="st4" d="M251.9,437.2c-0.3,0-0.5-0.1-0.7-0.3c-0.2-0.2-0.3-0.4-0.3-0.6c0-0.2,0.1-0.5,0.2-0.7l4.4-6l1.1,1.7l-4,5.4
		C252.5,437.1,252.2,437.2,251.9,437.2z M252,422.5c0.3,0,0.6,0.1,0.9,0.4l9.4,12.6c0.2,0.2,0.2,0.4,0.2,0.6c0,0.3-0.1,0.6-0.4,0.8
		c-0.2,0.2-0.5,0.3-0.7,0.3c-0.3,0-0.6-0.1-0.8-0.4l-9.4-12.6c-0.2-0.2-0.2-0.4-0.2-0.6c0-0.3,0.1-0.6,0.3-0.8
		C251.5,422.6,251.8,422.5,252,422.5z M261.5,422.6c0.3,0,0.5,0.1,0.7,0.3s0.3,0.4,0.3,0.7c0,0.2-0.1,0.4-0.2,0.6l-4.4,5.8l-1.2-1.6
		l4-5.3C260.9,422.7,261.2,422.6,261.5,422.6z"/>
	<path class="st4" d="M270.3,425.3l-4.7,11.2c-0.1,0.2-0.2,0.4-0.4,0.5c-0.2,0.1-0.4,0.2-0.6,0.2c-0.3,0-0.5-0.1-0.7-0.3
		c-0.2-0.2-0.2-0.4-0.2-0.7c0-0.1,0-0.2,0.1-0.3l5.3-12.8c0.1-0.2,0.2-0.4,0.4-0.5c0.2-0.1,0.4-0.2,0.6-0.2c0.2,0,0.4,0.1,0.6,0.2
		c0.2,0.1,0.3,0.3,0.4,0.5l5.2,12.6c0.1,0.1,0.1,0.3,0.1,0.4c0,0.3-0.1,0.6-0.3,0.7c-0.2,0.2-0.4,0.3-0.7,0.3
		c-0.2,0-0.4-0.1-0.6-0.2s-0.3-0.3-0.4-0.5l-4.7-11.2L270.3,425.3z M266.4,433.6l0.9-2h5.9l0.4,2H266.4z M270.1,421.7
		c-0.2,0-0.4-0.1-0.5-0.2c-0.1-0.1-0.2-0.3-0.2-0.4c0-0.1,0-0.2,0.1-0.2s0.1-0.2,0.2-0.2l1.8-1.5c0.1-0.1,0.3-0.2,0.4-0.3
		c0.2-0.1,0.3-0.1,0.5-0.1c0.2,0,0.4,0.1,0.6,0.2c0.2,0.2,0.3,0.4,0.3,0.7c0,0.2-0.1,0.4-0.2,0.5c-0.1,0.2-0.3,0.3-0.5,0.4l-2.1,1.1
		c-0.1,0.1-0.1,0.1-0.2,0.1C270.3,421.7,270.2,421.7,270.1,421.7z"/>
	<path class="st4" d="M288.7,423.4c0.3,0.2,0.5,0.4,0.5,0.7s0,0.6-0.2,0.9c-0.2,0.2-0.4,0.3-0.6,0.4c-0.2,0-0.5,0-0.7-0.1
		c-0.4-0.2-0.8-0.4-1.3-0.5c-0.4-0.1-0.9-0.2-1.4-0.2c-0.8,0-1.5,0.1-2.1,0.4c-0.6,0.3-1.2,0.6-1.6,1.1c-0.5,0.5-0.8,1-1.1,1.7
		c-0.2,0.7-0.4,1.4-0.4,2.2c0,0.9,0.1,1.6,0.4,2.3c0.3,0.7,0.6,1.2,1.1,1.7s1,0.8,1.6,1c0.6,0.2,1.3,0.3,2,0.3
		c0.5,0,0.9-0.1,1.4-0.2c0.5-0.1,0.9-0.3,1.3-0.5c0.2-0.1,0.5-0.2,0.7-0.1c0.2,0,0.4,0.2,0.6,0.4c0.2,0.3,0.3,0.6,0.3,0.9
		c-0.1,0.3-0.2,0.5-0.5,0.7c-0.3,0.2-0.7,0.4-1.1,0.5c-0.4,0.1-0.8,0.2-1.3,0.3c-0.4,0.1-0.9,0.1-1.3,0.1c-1,0-1.9-0.2-2.8-0.5
		s-1.7-0.8-2.4-1.5s-1.2-1.4-1.6-2.4c-0.4-0.9-0.6-2-0.6-3.2c0-1.1,0.2-2.1,0.6-3s0.9-1.7,1.6-2.4c0.7-0.7,1.5-1.2,2.4-1.5
		c0.9-0.4,1.9-0.6,3-0.6c0.7,0,1.3,0.1,1.9,0.2C287.6,422.9,288.2,423.1,288.7,423.4z"/>
	<path class="st4" d="M308,422.6c0.3,0,0.5,0.1,0.7,0.3s0.3,0.4,0.3,0.7c0,0.2,0,0.3-0.1,0.5l-5.3,12.4c-0.1,0.2-0.3,0.4-0.4,0.5
		c-0.2,0.1-0.4,0.2-0.6,0.2c-0.2,0-0.4-0.1-0.6-0.2c-0.2-0.1-0.3-0.3-0.4-0.5l-5.3-12.5c0-0.1,0-0.1-0.1-0.2s0-0.2,0-0.2
		c0-0.3,0.1-0.6,0.4-0.7c0.2-0.2,0.5-0.3,0.7-0.3c0.4,0,0.8,0.2,1,0.7l4.8,11.3h-0.6l4.5-11.3C307.3,422.8,307.6,422.6,308,422.6z"
		/>
	<path class="st4" d="M312.5,422.6h7.2c0.3,0,0.5,0.1,0.7,0.3s0.3,0.4,0.3,0.7s-0.1,0.5-0.3,0.7c-0.2,0.2-0.4,0.3-0.7,0.3h-6.3
		l0.2-0.4v4.7l-0.2-0.2h5.3c0.3,0,0.5,0.1,0.7,0.3c0.2,0.2,0.3,0.4,0.3,0.7c0,0.3-0.1,0.5-0.3,0.7c-0.2,0.2-0.4,0.3-0.7,0.3h-5.3
		l0.1-0.2v4.8l-0.1-0.2h6.2c0.3,0,0.5,0.1,0.7,0.3s0.3,0.4,0.3,0.7c0,0.3-0.1,0.5-0.3,0.7c-0.2,0.2-0.4,0.3-0.7,0.3h-7.2
		c-0.3,0-0.5-0.1-0.7-0.3s-0.3-0.5-0.3-0.8v-12.4c0-0.3,0.1-0.6,0.3-0.8C312,422.7,312.2,422.6,312.5,422.6z M316.5,420.1l-1.8,1.2
		c-0.2,0.1-0.4,0.2-0.5,0.3c-0.1,0.1-0.3,0.1-0.4,0.1c-0.2,0-0.3,0-0.4-0.1c-0.1-0.1-0.2-0.2-0.2-0.3c0-0.1,0-0.2,0.1-0.2
		c0-0.1,0.1-0.2,0.2-0.3l1.4-1.6c0.2-0.2,0.3-0.3,0.5-0.4c0.2-0.1,0.4-0.1,0.6-0.1h0.3c0.2,0,0.4,0,0.6,0.1c0.2,0.1,0.3,0.2,0.5,0.4
		l1.4,1.6c0.1,0.1,0.2,0.2,0.2,0.3c0,0.1,0.1,0.2,0.1,0.2c0,0.1-0.1,0.2-0.2,0.3c-0.1,0.1-0.2,0.1-0.4,0.1c-0.1,0-0.3,0-0.4-0.1
		c-0.1-0.1-0.3-0.2-0.5-0.3l-1.8-1.1L316.5,420.1z M319.1,418.9c-0.1,0-0.1,0-0.2,0c-0.1,0-0.2-0.1-0.2-0.1l-2.1-1.1
		c-0.4-0.2-0.7-0.6-0.7-1c0-0.3,0.1-0.5,0.3-0.7s0.4-0.2,0.6-0.2c0.2,0,0.3,0,0.5,0.1c0.2,0.1,0.3,0.2,0.4,0.3l1.8,1.5
		c0.1,0.1,0.2,0.2,0.2,0.2c0,0.1,0.1,0.2,0.1,0.2c0,0.2-0.1,0.3-0.2,0.4C319.5,418.8,319.3,418.9,319.1,418.9z"/>
	<path class="st4" d="M330.2,422.6c0.3,0,0.5,0.1,0.7,0.3c0.2,0.2,0.3,0.5,0.3,0.8v12.4c0,0.3-0.1,0.6-0.3,0.8s-0.5,0.3-0.8,0.3
		c-0.3,0-0.6-0.1-0.8-0.3s-0.3-0.5-0.3-0.8v-12.4c0-0.3,0.1-0.6,0.3-0.8C329.6,422.7,329.9,422.6,330.2,422.6z M330.1,428.8h9.5l0,2
		h-9.5L330.1,428.8z M339.6,422.6c0.3,0,0.6,0.1,0.8,0.3c0.2,0.2,0.3,0.5,0.3,0.8v12.4c0,0.3-0.1,0.6-0.3,0.8s-0.5,0.3-0.8,0.3
		c-0.3,0-0.5-0.1-0.7-0.3s-0.3-0.5-0.3-0.8v-12.4c0-0.3,0.1-0.6,0.3-0.8C339.1,422.7,339.3,422.6,339.6,422.6z"/>
	<path class="st4" d="M345.1,422.6h7.2c0.3,0,0.5,0.1,0.7,0.3s0.3,0.4,0.3,0.7s-0.1,0.5-0.3,0.7c-0.2,0.2-0.4,0.3-0.7,0.3H346
		l0.2-0.4v4.7l-0.2-0.2h5.3c0.3,0,0.5,0.1,0.7,0.3c0.2,0.2,0.3,0.4,0.3,0.7c0,0.3-0.1,0.5-0.3,0.7c-0.2,0.2-0.4,0.3-0.7,0.3h-5.3
		l0.1-0.2v4.8l-0.1-0.2h6.2c0.3,0,0.5,0.1,0.7,0.3s0.3,0.4,0.3,0.7c0,0.3-0.1,0.5-0.3,0.7c-0.2,0.2-0.4,0.3-0.7,0.3h-7.2
		c-0.3,0-0.5-0.1-0.7-0.3s-0.3-0.5-0.3-0.8v-12.4c0-0.3,0.1-0.6,0.3-0.8C344.6,422.7,344.8,422.6,345.1,422.6z M349.1,420.1
		l-1.8,1.2c-0.2,0.1-0.4,0.2-0.5,0.3c-0.1,0.1-0.3,0.1-0.4,0.1c-0.2,0-0.3,0-0.4-0.1c-0.1-0.1-0.2-0.2-0.2-0.3c0-0.1,0-0.2,0.1-0.2
		c0-0.1,0.1-0.2,0.2-0.3l1.4-1.6c0.2-0.2,0.3-0.3,0.5-0.4c0.2-0.1,0.4-0.1,0.6-0.1h0.3c0.2,0,0.4,0,0.6,0.1c0.2,0.1,0.3,0.2,0.5,0.4
		l1.4,1.6c0.1,0.1,0.2,0.2,0.2,0.3c0,0.1,0.1,0.2,0.1,0.2c0,0.1-0.1,0.2-0.2,0.3c-0.1,0.1-0.2,0.1-0.4,0.1c-0.1,0-0.3,0-0.4-0.1
		c-0.1-0.1-0.3-0.2-0.5-0.3l-1.8-1.1L349.1,420.1z M348.5,440.2c-0.4,0-0.7-0.1-0.9-0.2c-0.2-0.1-0.3-0.4-0.3-0.7v-0.3
		c0-0.4,0.1-0.6,0.3-0.8c0.2-0.1,0.5-0.2,0.9-0.2c0.4,0,0.7,0.1,0.9,0.2s0.3,0.4,0.3,0.8v0.3c0,0.4-0.1,0.6-0.3,0.7
		C349.2,440.1,348.9,440.2,348.5,440.2z"/>
	<path class="st4" d="M362.8,422.6c0.2,0,0.3,0,0.5,0.1c0.2,0.1,0.3,0.2,0.4,0.4l5.3,8l-0.9,0l5.4-8c0.2-0.3,0.5-0.5,0.9-0.5
		c0.3,0,0.5,0.1,0.7,0.3s0.3,0.5,0.3,0.8v12.5c0,0.3-0.1,0.6-0.3,0.8s-0.5,0.3-0.8,0.3c-0.3,0-0.6-0.1-0.8-0.3s-0.3-0.5-0.3-0.8
		v-10.5l0.7,0.1l-4.6,7c-0.1,0.1-0.2,0.2-0.4,0.3c-0.2,0.1-0.3,0.1-0.5,0.1c-0.2,0-0.3,0-0.5-0.1c-0.2-0.1-0.3-0.2-0.4-0.3l-4.4-6.9
		l0.5-0.8v11.1c0,0.3-0.1,0.6-0.3,0.8c-0.2,0.2-0.4,0.3-0.7,0.3c-0.3,0-0.5-0.1-0.7-0.3c-0.2-0.2-0.3-0.5-0.3-0.8v-12.5
		c0-0.3,0.1-0.5,0.3-0.7S362.5,422.6,362.8,422.6z"/>
	<path class="st4" d="M384,425.3l-4.7,11.2c-0.1,0.2-0.2,0.4-0.4,0.5c-0.2,0.1-0.4,0.2-0.6,0.2c-0.3,0-0.5-0.1-0.7-0.3
		c-0.2-0.2-0.2-0.4-0.2-0.7c0-0.1,0-0.2,0.1-0.3l5.3-12.8c0.1-0.2,0.2-0.4,0.4-0.5c0.2-0.1,0.4-0.2,0.6-0.2c0.2,0,0.4,0.1,0.6,0.2
		c0.2,0.1,0.3,0.3,0.4,0.5l5.2,12.6c0.1,0.1,0.1,0.3,0.1,0.4c0,0.3-0.1,0.6-0.3,0.7c-0.2,0.2-0.4,0.3-0.7,0.3
		c-0.2,0-0.4-0.1-0.6-0.2s-0.3-0.3-0.4-0.5l-4.7-11.2L384,425.3z M380.2,433.6l0.9-2h5.9l0.4,2H380.2z M383.8,421.3
		c-0.7,0-1.4-0.2-2-0.5c-0.6-0.3-1-0.8-1.2-1.5c-0.1-0.3-0.1-0.5,0-0.7c0.1-0.2,0.3-0.3,0.5-0.3c0.2,0,0.4,0.1,0.6,0.2
		c0.1,0.1,0.3,0.3,0.5,0.5c0.2,0.2,0.4,0.4,0.6,0.6c0.3,0.1,0.6,0.2,0.9,0.2c0.7,0,1.3-0.3,1.6-0.8c0.2-0.2,0.3-0.4,0.5-0.5
		c0.1-0.1,0.3-0.2,0.6-0.2c0.2,0,0.4,0.1,0.6,0.2c0.1,0.2,0.1,0.4,0,0.7c-0.2,0.7-0.6,1.2-1.2,1.5S384.6,421.3,383.8,421.3z
		 M383.8,440.2c-0.4,0-0.7-0.1-0.9-0.2c-0.2-0.1-0.3-0.4-0.3-0.7v-0.3c0-0.4,0.1-0.6,0.3-0.8s0.5-0.2,0.9-0.2c0.4,0,0.7,0.1,0.9,0.2
		c0.2,0.1,0.3,0.4,0.3,0.8v0.3c0,0.4-0.1,0.6-0.3,0.7S384.2,440.2,383.8,440.2z"/>
	<path class="st4" d="M391.1,424.6c-0.3,0-0.5-0.1-0.7-0.3c-0.2-0.2-0.3-0.4-0.3-0.7c0-0.3,0.1-0.5,0.3-0.7c0.2-0.2,0.5-0.3,0.7-0.3
		h9.5c0.3,0,0.5,0.1,0.7,0.3c0.2,0.2,0.3,0.4,0.3,0.7c0,0.3-0.1,0.5-0.3,0.7c-0.2,0.2-0.4,0.3-0.7,0.3H391.1z M395.9,437.2
		c-0.3,0-0.6-0.1-0.8-0.3s-0.3-0.5-0.3-0.8v-12.5h2.2v12.5c0,0.3-0.1,0.6-0.3,0.8S396.2,437.2,395.9,437.2z"/>
	<path class="st4" d="M409.8,424.6c-0.3,0-0.5-0.1-0.7-0.3c-0.2-0.2-0.3-0.4-0.3-0.7c0-0.3,0.1-0.5,0.3-0.7c0.2-0.2,0.5-0.3,0.7-0.3
		h9.5c0.3,0,0.5,0.1,0.7,0.3c0.2,0.2,0.3,0.4,0.3,0.7c0,0.3-0.1,0.5-0.3,0.7c-0.2,0.2-0.4,0.3-0.7,0.3H409.8z M414.5,437.2
		c-0.3,0-0.6-0.1-0.8-0.3s-0.3-0.5-0.3-0.8v-12.5h2.2v12.5c0,0.3-0.1,0.6-0.3,0.8S414.8,437.2,414.5,437.2z"/>
	<path class="st4" d="M423.9,437.2c-0.3,0-0.6-0.1-0.9-0.3c-0.2-0.2-0.4-0.5-0.4-0.8v-12.4c0-0.3,0.1-0.6,0.3-0.8
		c0.2-0.2,0.5-0.3,0.7-0.3h5.9c0.7,0,1.4,0.2,2.1,0.6c0.6,0.4,1.1,0.9,1.5,1.5c0.4,0.6,0.6,1.4,0.6,2.2c0,0.6-0.1,1.1-0.3,1.6
		c-0.2,0.5-0.5,1-0.9,1.3c-0.4,0.4-0.8,0.7-1.3,0.9l-0.2-0.4c0.4,0.2,0.8,0.4,1.1,0.7c0.3,0.3,0.6,0.6,0.8,1
		c0.2,0.4,0.3,0.8,0.3,1.3c0,0.4,0.1,0.8,0.1,1.1c0,0.3,0.1,0.5,0.2,0.7c0.1,0.2,0.2,0.3,0.4,0.4c0.2,0.1,0.4,0.3,0.5,0.6
		s0,0.5-0.2,0.7c-0.1,0.2-0.3,0.3-0.5,0.3s-0.4,0.1-0.6,0c-0.2,0-0.4-0.1-0.5-0.2c-0.2-0.1-0.4-0.3-0.7-0.6
		c-0.2-0.3-0.4-0.6-0.6-1.1c-0.1-0.5-0.2-1.1-0.2-1.8c0-0.3-0.1-0.6-0.2-0.9c-0.1-0.2-0.3-0.5-0.5-0.6c-0.2-0.2-0.4-0.3-0.7-0.4
		c-0.3-0.1-0.6-0.1-0.9-0.1h-4.4l0.3-0.4v5c0,0.3-0.1,0.6-0.2,0.8S424.2,437.2,423.9,437.2z M424.6,429.7h5c0.3,0,0.6-0.1,0.9-0.4
		c0.3-0.2,0.5-0.6,0.7-1c0.2-0.4,0.3-0.9,0.3-1.4c0-0.7-0.2-1.2-0.6-1.7c-0.4-0.5-0.9-0.7-1.4-0.7h-4.9l0.2-0.5v6.1L424.6,429.7z"/>
	<path class="st4" d="M450.1,429.9c0,1.1-0.2,2-0.5,2.9c-0.3,0.9-0.8,1.7-1.5,2.4s-1.4,1.2-2.2,1.6c-0.9,0.4-1.8,0.6-2.8,0.6
		c-1,0-1.9-0.2-2.8-0.6c-0.9-0.4-1.6-0.9-2.2-1.6c-0.6-0.7-1.1-1.5-1.5-2.4c-0.3-0.9-0.5-1.9-0.5-2.9c0-1.1,0.2-2,0.5-2.9
		c0.3-0.9,0.8-1.7,1.5-2.4c0.6-0.7,1.4-1.2,2.2-1.6c0.9-0.4,1.8-0.6,2.8-0.6c1,0,2,0.2,2.8,0.6c0.9,0.4,1.6,0.9,2.2,1.6
		s1.1,1.5,1.5,2.4C449.9,427.8,450.1,428.8,450.1,429.9z M447.8,429.9c0-1-0.2-1.9-0.6-2.8c-0.4-0.8-1-1.5-1.7-1.9
		c-0.7-0.5-1.6-0.7-2.5-0.7c-0.9,0-1.8,0.2-2.5,0.7s-1.3,1.1-1.7,1.9s-0.6,1.7-0.6,2.8c0,1,0.2,1.9,0.6,2.8s1,1.5,1.7,1.9
		s1.5,0.7,2.5,0.7c0.9,0,1.8-0.2,2.5-0.7c0.7-0.5,1.3-1.1,1.7-1.9S447.8,430.9,447.8,429.9z M443,421.7c-0.1,0-0.1,0-0.2,0
		c-0.1,0-0.2-0.1-0.2-0.1l-2.1-1.1c-0.4-0.2-0.7-0.6-0.7-1c0-0.3,0.1-0.5,0.3-0.7s0.4-0.2,0.6-0.2c0.2,0,0.3,0,0.5,0.1
		s0.3,0.2,0.4,0.3l1.8,1.5c0.1,0.1,0.2,0.2,0.2,0.2s0.1,0.2,0.1,0.2c0,0.2-0.1,0.3-0.2,0.4C443.4,421.6,443.2,421.7,443,421.7z
		 M444.6,424.4v-1.7c0.6,0,1-0.1,1.4-0.3c0.3-0.2,0.5-0.6,0.5-1.1c0-0.2,0.1-0.5,0.2-0.7s0.4-0.3,0.7-0.3c0.3,0,0.6,0.1,0.7,0.3
		c0.1,0.2,0.2,0.4,0.2,0.6c0,0.6-0.1,1.1-0.4,1.6c-0.3,0.5-0.6,0.9-1.2,1.1C446.1,424.2,445.5,424.4,444.6,424.4z"/>
	<path class="st4" d="M454.8,436.1c0,0.3-0.1,0.6-0.3,0.8s-0.5,0.3-0.8,0.3c-0.3,0-0.6-0.1-0.8-0.3s-0.3-0.5-0.3-0.8v-12.4
		c0-0.3,0.1-0.6,0.3-0.8c0.2-0.2,0.5-0.3,0.8-0.3c0.3,0,0.5,0.1,0.7,0.3c0.2,0.2,0.3,0.5,0.3,0.8V436.1z"/>
</g>
</svg>
