<svg xmlns="http://www.w3.org/2000/svg" xmlns:xlink="http://www.w3.org/1999/xlink" viewBox="0 0 500 500">
  <defs>
    <clipPath id="a">
      <rect width="500" height="500" fill="none"/>
    </clipPath>
  </defs>
  <title>scale_vi</title>
  <rect width="500" height="500"/>
  <rect x="162.56" y="201.07" width="0.94" height="0.91" fill="#fff"/>
  <g>
    <line x1="147.16" y1="201.63" x2="117.95" y2="201.63" fill="none" stroke="#92fcff" stroke-miterlimit="10" stroke-width="0.5"/>
    <polygon points="143.84 197.53 143.16 198.27 146.77 201.62 143.16 204.98 143.84 205.71 148.24 201.62 143.84 197.53" fill="#92fcff"/>
  </g>
  <line x1="287.33" y1="201.57" x2="317.9" y2="201.57" fill="none" stroke="#92fcff" stroke-miterlimit="10" stroke-width="0.5"/>
  <polygon points="328.19 205.66 328.87 204.93 325.26 201.57 328.87 198.22 328.19 197.48 323.79 201.57 328.19 205.66" fill="#92fcff"/>
  <line x1="42.14" y1="291.83" x2="42.14" y2="324.83" fill="none" stroke="#fff" stroke-miterlimit="10" stroke-width="0.75"/>
  <polyline points="70.64 303.83 70.64 345.8 77.04 345.8" fill="none" stroke="#fff" stroke-miterlimit="10" stroke-width="0.5"/>
  <g clip-path="url(#a)">
    <path d="M76.94,347.68a1.88,1.88,0,1,0-1.88-1.88,1.88,1.88,0,0,0,1.88,1.88" fill="#fff"/>
    <line x1="56.39" y1="303.83" x2="56.39" y2="324.83" fill="none" stroke="#fff" stroke-miterlimit="10" stroke-width="0.5"/>
    <line x1="98.51" y1="303.83" x2="98.51" y2="324.83" fill="none" stroke="#fff" stroke-miterlimit="10" stroke-width="0.5"/>
    <line x1="84.82" y1="303.83" x2="84.82" y2="324.83" fill="none" stroke="#fff" stroke-miterlimit="10" stroke-width="0.5"/>
    <line x1="114.49" y1="303.83" x2="114.49" y2="324.83" fill="none" stroke="#fff" stroke-miterlimit="10" stroke-width="0.5"/>
    <line x1="128.3" y1="303.83" x2="128.3" y2="324.83" fill="none" stroke="#fff" stroke-miterlimit="10" stroke-width="0.5"/>
    <line x1="157.18" y1="303.83" x2="157.18" y2="324.83" fill="none" stroke="#fff" stroke-miterlimit="10" stroke-width="0.5"/>
    <line x1="143.51" y1="303.83" x2="143.51" y2="324.83" fill="none" stroke="#fff" stroke-miterlimit="10" stroke-width="0.5"/>
    <line x1="185.51" y1="303.83" x2="185.51" y2="324.83" fill="none" stroke="#fff" stroke-miterlimit="10" stroke-width="0.75"/>
    <line x1="171.37" y1="303.83" x2="171.37" y2="324.83" fill="none" stroke="#fff" stroke-miterlimit="10" stroke-width="0.5"/>
    <line x1="201.69" y1="303.83" x2="201.69" y2="324.83" fill="none" stroke="#fff" stroke-miterlimit="10" stroke-width="0.5"/>
    <line x1="229.49" y1="303.83" x2="229.49" y2="324.83" fill="none" stroke="#fff" stroke-miterlimit="10" stroke-width="0.5"/>
    <line x1="214.84" y1="303.83" x2="214.84" y2="324.83" fill="none" stroke="#fff" stroke-miterlimit="10" stroke-width="0.5"/>
    <line x1="243.24" y1="303.83" x2="243.24" y2="324.83" fill="none" stroke="#fff" stroke-miterlimit="10" stroke-width="0.5"/>
    <line x1="271.57" y1="303.83" x2="271.57" y2="324.83" fill="none" stroke="#fff" stroke-miterlimit="10" stroke-width="0.5"/>
    <line x1="257.42" y1="303.83" x2="257.42" y2="324.83" fill="none" stroke="#fff" stroke-miterlimit="10" stroke-width="0.5"/>
    <line x1="287.4" y1="303.83" x2="287.4" y2="324.83" fill="none" stroke="#fff" stroke-miterlimit="10" stroke-width="0.5"/>
    <line x1="301.57" y1="303.83" x2="301.57" y2="324.83" fill="none" stroke="#fff" stroke-miterlimit="10" stroke-width="0.5"/>
    <line x1="316.53" y1="303.83" x2="316.53" y2="324.83" fill="none" stroke="#fff" stroke-miterlimit="10" stroke-width="0.5"/>
    <polyline points="331.39 291.83 331.39 345.8 339.31 345.8" fill="none" stroke="#fff" stroke-miterlimit="10" stroke-width="0.75"/>
    <path d="M339.21,347.92a2.12,2.12,0,1,0-2.12-2.12,2.11,2.11,0,0,0,2.12,2.12" fill="#fff"/>
  </g>
  <g>
    <path d="M339.8,187.28v-6.1h4.73c3.8,0,6.43,2.65,6.43,6.75s-2.57,7-6.47,7H339.8v-6.53h-1.72v-1.14Zm1.4,0H345v1.14h-3.8v5.28h3.13c3.45,0,5.13-2.44,5.13-5.71,0-2.88-1.52-5.56-5.13-5.56H341.2Z" fill="#92fcff"/>
    <path d="M356.41,195.18c-1.54,0-3.27-.69-3.27-3.61V185h1.32v6.25c0,1.38.43,2.7,2.25,2.7,2,0,2.82-1.14,2.82-3.83V185h.57c1.12-.2,1.52-.73,1.52-1.44a3.07,3.07,0,0,0-.22-1.1h1.3a4.06,4.06,0,0,1,.14,1,2.39,2.39,0,0,1-2,2.43v6.09c0,1,0,2.42,0,2.9h-1.28a14.57,14.57,0,0,1-.06-1.62A3,3,0,0,1,356.41,195.18Z" fill="#92fcff"/>
    <path d="M370.27,185.86c.94-.22,1.28-.73,1.28-1.38a3.13,3.13,0,0,0-.22-1.11h1.3a4.15,4.15,0,0,1,.14,1,2.37,2.37,0,0,1-1.75,2.36,6.07,6.07,0,0,1,.8,3.18c0,2.82-1.57,5.22-4.57,5.22-2.76,0-4.43-2.21-4.43-5.18s1.61-5.21,4.53-5.21A4.32,4.32,0,0,1,370.27,185.86Zm-4.68-5.62,2.63,3.07H366.9l-3-3.07ZM364.18,190c0,2.28,1.2,4,3.15,4s3.11-1.64,3.11-4-1.1-4-3.15-4S364.18,187.65,364.18,190Z" fill="#92fcff"/>
    <path d="M373.79,187.53c0-.86,0-1.73,0-2.5h1.28a17.45,17.45,0,0,1,.06,1.77,3.19,3.19,0,0,1,3.22-2c1.81,0,3.33,1.05,3.33,3.75V195h-1.32v-6.23c0-1.64-.67-2.72-2.31-2.72-2.13,0-2.92,1.71-2.92,3.8V195h-1.32Z" fill="#92fcff"/>
    <path d="M392.22,194.18c0,3.17-1.36,4.91-4.41,4.91-2.76,0-3.77-1.56-4-3h1.34a2.52,2.52,0,0,0,2.7,1.85c2.44,0,3.07-1.56,3.07-4v-.93a3.09,3.09,0,0,1-3.21,1.88c-2.39,0-4.1-1.94-4.1-4.93,0-3.3,1.89-5.21,4.26-5.21,2,0,2.8.93,3.05,1.66,0-.51.06-1.2.08-1.42h1.24c0,.45,0,1.91,0,2.86Zm-4.26-.44c2.33,0,3-1.53,3-3.94s-.71-3.84-3-3.84c-2.09,0-3,1.77-3,4S386.17,193.74,388,193.74Z" fill="#92fcff"/>
    <path d="M401,190c.87-1,3.37-3.57,4.71-4.95h1.62l-3.82,3.9,4.29,6h-1.57l-3.65-5.17L401,191.3V195h-1.32V180.44H401Z" fill="#92fcff"/>
    <path d="M413.05,180.24l-3,3.07h-1.33l2.63-3.07ZM408.81,185h1.32V195h-1.32Z" fill="#92fcff"/>
    <path d="M412.87,187.53c0-.86,0-1.73,0-2.5h1.29c0,.29.07,1.48.05,1.77a3.19,3.19,0,0,1,3.22-2c1.81,0,3.33,1.05,3.33,3.75V195h-1.32v-6.23c0-1.64-.67-2.72-2.31-2.72-2.13,0-2.92,1.71-2.92,3.8V195h-1.32Z" fill="#92fcff"/>
    <path d="M424.78,180.44v6.17a3.39,3.39,0,0,1,3.19-1.82c1.48,0,3.35.79,3.35,3.83V195H430v-6.08c0-1.85-.81-2.87-2.36-2.87-1.89,0-2.86,1.2-2.86,3.46V195h-1.32V180.44Z" fill="#92fcff"/>
    <path d="M351.45,212.48c0-2.64,0-5.22.08-6.64h-.06c-.57,2-3.12,8.42-4.79,12.76h-1.3c-1.27-3.43-3.89-10.57-4.52-12.78h0c.1,1.58.14,4.73.14,7.08v5.7H339.6V204.83h2.11c1.73,4.52,3.9,10.39,4.4,12h0c.32-1.14,2.84-7.63,4.64-12h2.05V218.6h-1.38Z" fill="#92fcff"/>
    <path d="M362.94,216.58a14.84,14.84,0,0,0,.13,2h-1.26a5.28,5.28,0,0,1-.15-1.42,3.25,3.25,0,0,1-3.18,1.65,3,3,0,0,1-3.31-3c0-2.21,1.71-3.2,4.67-3.2h1.8v-.94c0-.95-.3-2.15-2.37-2.15-1.85,0-2.13.94-2.33,1.73h-1.3c.12-1.2.87-2.84,3.67-2.84,2.33,0,3.63,1,3.63,3.18Zm-1.28-2.93h-1.8c-2.09,0-3.33.55-3.33,2.11a1.93,1.93,0,0,0,2.13,2c2.64,0,3-1.76,3-3.75Zm-3.93-9.27a1.7,1.7,0,0,0,1.7,1.48,1.65,1.65,0,0,0,1.73-1.48h1a2.71,2.71,0,0,1-2.76,2.58,2.59,2.59,0,0,1-2.72-2.58Zm1,17.72v-1.91h1.44v1.91Z" fill="#92fcff"/>
    <path d="M364.29,208.68h1.8v-3h1.32v3h2.29v1.14h-2.29V216c0,1.05.23,1.62,1.16,1.62a3.94,3.94,0,0,0,.95-.1v1.07a4.44,4.44,0,0,1-1.34.17c-1.4,0-2.09-.71-2.09-2.32v-6.59h-1.8Z" fill="#92fcff"/>
    <path d="M379.08,206.08h-4.54v-1.25h10.51v1.25H380.5V218.6h-1.42Z" fill="#92fcff"/>
    <path d="M386.37,211.38c0-1.54,0-2.29,0-2.7h1.28c0,.3.06,1,.06,2.13a3.62,3.62,0,0,1,3.39-2.37v1.36c-2.05.1-3.39,1.36-3.39,3.79v5h-1.32Z" fill="#92fcff"/>
    <path d="M399.69,216.58a13,13,0,0,0,.14,2h-1.26a5.59,5.59,0,0,1-.16-1.42,3.23,3.23,0,0,1-3.17,1.65,3,3,0,0,1-3.32-3c0-2.21,1.72-3.2,4.68-3.2h1.79v-.94c0-.95-.3-2.15-2.37-2.15-1.85,0-2.12.94-2.32,1.73h-1.3c.12-1.2.86-2.84,3.66-2.84,2.33,0,3.63,1,3.63,3.18Zm-1.28-2.93h-1.79c-2.09,0-3.34.55-3.34,2.11a1.93,1.93,0,0,0,2.13,2c2.64,0,3-1.76,3-3.75Zm-3.92-9.27a1.69,1.69,0,0,0,1.69,1.48,1.66,1.66,0,0,0,1.74-1.48h1a2.7,2.7,0,0,1-2.76,2.58,2.6,2.6,0,0,1-2.72-2.58Z" fill="#92fcff"/>
    <path d="M402.45,211.18c0-.86,0-1.73,0-2.5h1.28a17.54,17.54,0,0,1,.06,1.77,3.17,3.17,0,0,1,3.21-2c1.82,0,3.34,1.05,3.34,3.75v6.41H409v-6.23c0-1.64-.67-2.72-2.3-2.72-2.13,0-2.92,1.71-2.92,3.8v5.15h-1.32Z" fill="#92fcff"/>
    <path d="M420.88,217.83c0,3.17-1.36,4.91-4.42,4.91-2.76,0-3.76-1.56-4-3h1.34a2.53,2.53,0,0,0,2.7,1.85c2.45,0,3.08-1.56,3.08-4v-.93a3.1,3.1,0,0,1-3.22,1.88c-2.38,0-4.1-1.94-4.1-4.93,0-3.3,1.9-5.21,4.26-5.21,2,0,2.8.93,3.06,1.66,0-.51.06-1.2.08-1.42h1.24c0,.45,0,1.91,0,2.86Zm-4.26-.44c2.33,0,3-1.53,3-3.94s-.71-3.84-3-3.84c-2.09,0-3,1.77-3,4S414.83,217.39,416.62,217.39Z" fill="#92fcff"/>
  </g>
  <g>
    <path d="M187.52,198.09v1.12h-9.81v-1.12Zm0,4.43v1.13h-9.81v-1.13Z" fill="#fff"/>
    <path d="M194.93,196.83a3.33,3.33,0,0,1,3.6-3c2.36,0,3.44,1.47,3.44,3a2.48,2.48,0,0,1-1.62,2.47v0a2.93,2.93,0,0,1,2.14,3c0,1.94-1.22,3.71-4,3.71a3.66,3.66,0,0,1-3.93-3.21h1.22a2.7,2.7,0,0,0,2.78,2.15,2.44,2.44,0,0,0,2.64-2.63c0-1.75-1.11-2.49-2.8-2.49h-.76v-1h.63c1.67,0,2.43-.69,2.43-2a1.94,1.94,0,0,0-2.21-2,2.19,2.19,0,0,0-2.38,1.87Z" fill="#fff"/>
    <path d="M209.82,205.94v-3.19h-5.66v-1.13l5.57-7.53H211v7.57h1.58l-.14,1.09H211v3.19Zm0-7.6c0-.77,0-2.1,0-2.9-.48.89-3.08,4.38-4.41,6.22h4.38Z" fill="#fff"/>
    <path d="M220.35,194.09v1.07a29,29,0,0,0-4.76,10.78h-1.26a29.66,29.66,0,0,1,4.7-10.75h-6.32v-1.1Z" fill="#fff"/>
    <path d="M225.57,205.94v-3.19h-5.66v-1.13l5.57-7.53h1.26v7.57h1.58l-.14,1.09h-1.44v3.19Zm0-7.6c0-.77,0-2.1,0-2.9-.48.89-3.08,4.38-4.41,6.22h4.38Z" fill="#fff"/>
    <path d="M229.83,205.94v-2.47h1.24v2.47Z" fill="#fff"/>
    <path d="M233,202.61a3.24,3.24,0,0,1,2.24-3.11,2.67,2.67,0,0,1-1.71-2.53c0-1.76,1.22-3.09,3.58-3.09,2.14,0,3.42,1.31,3.42,3.08a2.52,2.52,0,0,1-1.69,2.48,3.23,3.23,0,0,1,2.18,3.13c0,2.2-1.7,3.59-4.07,3.59S233,204.75,233,202.61Zm6.76-.05c0-1.62-1-2.51-2.74-2.51-1.91,0-2.74,1.1-2.74,2.51A2.49,2.49,0,0,0,237,205.1,2.46,2.46,0,0,0,239.72,202.56Zm-5-5.62c0,1.08.66,2,2.32,2s2.2-.77,2.2-2a2,2,0,0,0-2.23-2.07C235.36,194.94,234.73,195.79,234.73,196.94Z" fill="#fff"/>
    <path d="M249.07,201.4c.8-.9,3.08-3.25,4.31-4.52h1.47l-3.49,3.57,3.93,5.49h-1.44l-3.34-4.72-1.44,1.39v3.33h-1.2V192.69h1.2Z" fill="#fff"/>
    <path d="M256.6,199.23c0-.8,0-1.63,0-2.35h1.17c0,.29.05,1,0,1.52a2.81,2.81,0,0,1,2.68-1.73,2.5,2.5,0,0,1,2.57,1.71,3.1,3.1,0,0,1,2.94-1.71c1.42,0,2.84.83,2.84,3.31v6h-1.19v-5.81c0-1.14-.41-2.36-2-2.36s-2.35,1.28-2.35,3v5.2h-1.18v-5.78c0-1.26-.37-2.39-1.92-2.39s-2.41,1.38-2.41,3.17v5H256.6Z" fill="#fff"/>
  </g>
  <g>
    <path d="M91.41,351.61v-9.22a7,7,0,0,1-2.29,1.09v-.93A7.74,7.74,0,0,0,91.65,341h.87v10.59Z" fill="#92fcff"/>
    <path d="M102.06,346.27c0,2.51-.69,5.53-3.56,5.53S95,349,95,346.35s.8-5.46,3.59-5.46S102.06,343.69,102.06,346.27Zm-5.93.09c0,2,.39,4.48,2.37,4.48s2.4-2.35,2.4-4.57c0-2-.38-4.42-2.33-4.42S96.13,344,96.13,346.36Z" fill="#92fcff"/>
    <path d="M110.82,346.27c0,2.51-.69,5.53-3.55,5.53s-3.54-2.8-3.54-5.45.8-5.46,3.59-5.46S110.82,343.69,110.82,346.27Zm-5.92.09c0,2,.38,4.48,2.37,4.48s2.4-2.35,2.4-4.57c0-2-.38-4.42-2.34-4.42S104.9,344,104.9,346.36Z" fill="#92fcff"/>
    <path d="M111.4,353.44a10.8,10.8,0,0,0,1.13-4h1.07a9.67,9.67,0,0,1-1.29,4Z" fill="#92fcff"/>
    <path d="M122,346.27c0,2.51-.69,5.53-3.55,5.53s-3.54-2.8-3.54-5.45.8-5.46,3.58-5.46S122,343.69,122,346.27Zm-5.92.09c0,2,.38,4.48,2.37,4.48s2.4-2.35,2.4-4.57c0-2-.39-4.42-2.34-4.42S116,344,116,346.36Z" fill="#92fcff"/>
    <path d="M130.73,346.27c0,2.51-.69,5.53-3.56,5.53s-3.53-2.8-3.53-5.45.8-5.46,3.58-5.46S130.73,343.69,130.73,346.27Zm-5.93.09c0,2,.39,4.48,2.37,4.48s2.4-2.35,2.4-4.57c0-2-.38-4.42-2.33-4.42S124.8,344,124.8,346.36Z" fill="#92fcff"/>
    <path d="M139.49,346.27c0,2.51-.68,5.53-3.55,5.53s-3.54-2.8-3.54-5.45.8-5.46,3.59-5.46S139.49,343.69,139.49,346.27Zm-5.92.09c0,2,.39,4.48,2.37,4.48s2.4-2.35,2.4-4.57c0-2-.38-4.42-2.34-4.42S133.57,344,133.57,346.36Z" fill="#92fcff"/>
    <path d="M146.79,347.58c.7-.8,2.73-2.9,3.82-4h1.32l-3.11,3.17,3.49,4.88H151l-3-4.19-1.28,1.23v3h-1.07V339.83h1.07Z" fill="#92fcff"/>
    <path d="M153.48,345.64c0-.7,0-1.44,0-2.08h1c0,.26.05.9,0,1.35a2.52,2.52,0,0,1,2.39-1.54,2.24,2.24,0,0,1,2.29,1.52,2.74,2.74,0,0,1,2.6-1.52c1.27,0,2.53.74,2.53,2.94v5.3h-1.05v-5.17c0-1-.37-2.09-1.76-2.09s-2.1,1.13-2.1,2.64v4.62h-1v-5.14c0-1.12-.34-2.12-1.71-2.12s-2.15,1.23-2.15,2.81v4.45h-1.05Z" fill="#92fcff"/>
  </g>
  <g>
    <path d="M352.82,351.61v-9.22a7,7,0,0,1-2.29,1.09v-.93a7.74,7.74,0,0,0,2.53-1.53h.87v10.59Z" fill="#92fcff"/>
    <path d="M355.57,353.44a10.85,10.85,0,0,0,1.14-4h1.07a9.54,9.54,0,0,1-1.3,4Z" fill="#92fcff"/>
    <path d="M366.13,346.27c0,2.51-.68,5.53-3.55,5.53S359,349,359,346.35s.8-5.46,3.59-5.46S366.13,343.69,366.13,346.27Zm-5.92.09c0,2,.39,4.48,2.37,4.48s2.4-2.35,2.4-4.57c0-2-.38-4.42-2.33-4.42S360.21,344,360.21,346.36Z" fill="#92fcff"/>
    <path d="M374.9,346.27c0,2.51-.69,5.53-3.55,5.53s-3.54-2.8-3.54-5.45.8-5.46,3.59-5.46S374.9,343.69,374.9,346.27Zm-5.92.09c0,2,.38,4.48,2.37,4.48s2.4-2.35,2.4-4.57c0-2-.38-4.42-2.34-4.42S369,344,369,346.36Z" fill="#92fcff"/>
    <path d="M383.67,346.27c0,2.51-.69,5.53-3.55,5.53s-3.54-2.8-3.54-5.45.8-5.46,3.59-5.46S383.67,343.69,383.67,346.27Zm-5.92.09c0,2,.38,4.48,2.37,4.48s2.4-2.35,2.4-4.57c0-2-.39-4.42-2.34-4.42S377.75,344,377.75,346.36Z" fill="#92fcff"/>
    <path d="M384.23,353.44a10.8,10.8,0,0,0,1.13-4h1.08a9.68,9.68,0,0,1-1.3,4Z" fill="#92fcff"/>
    <path d="M394.79,346.27c0,2.51-.69,5.53-3.55,5.53s-3.54-2.8-3.54-5.45.8-5.46,3.59-5.46S394.79,343.69,394.79,346.27Zm-5.92.09c0,2,.38,4.48,2.37,4.48s2.4-2.35,2.4-4.57c0-2-.39-4.42-2.34-4.42S388.87,344,388.87,346.36Z" fill="#92fcff"/>
    <path d="M403.56,346.27c0,2.51-.69,5.53-3.56,5.53s-3.53-2.8-3.53-5.45.8-5.46,3.58-5.46S403.56,343.69,403.56,346.27Zm-5.92.09c0,2,.38,4.48,2.36,4.48s2.41-2.35,2.41-4.57c0-2-.39-4.42-2.34-4.42S397.64,344,397.64,346.36Z" fill="#92fcff"/>
    <path d="M412.33,346.27c0,2.51-.69,5.53-3.56,5.53s-3.53-2.8-3.53-5.45.8-5.46,3.58-5.46S412.33,343.69,412.33,346.27Zm-5.93.09c0,2,.39,4.48,2.37,4.48s2.4-2.35,2.4-4.57c0-2-.38-4.42-2.33-4.42S406.4,344,406.4,346.36Z" fill="#92fcff"/>
    <path d="M419.62,347.58c.7-.8,2.74-2.9,3.82-4h1.32l-3.11,3.17,3.49,4.88h-1.28l-3-4.19-1.28,1.23v3h-1.07V339.83h1.07Z" fill="#92fcff"/>
    <path d="M426.31,345.64c0-.7,0-1.44,0-2.08h1c0,.26.05.9,0,1.35a2.52,2.52,0,0,1,2.39-1.54,2.24,2.24,0,0,1,2.29,1.52,2.74,2.74,0,0,1,2.61-1.52c1.26,0,2.52.74,2.52,2.94v5.3h-1.05v-5.17c0-1-.37-2.09-1.76-2.09s-2.1,1.13-2.1,2.64v4.62h-1v-5.14c0-1.12-.34-2.12-1.71-2.12s-2.15,1.23-2.15,2.81v4.45h-1.05Z" fill="#92fcff"/>
  </g>
  <g>
    <path d="M218,89.52H206.64V86.41H233v3.11H221.59V121H218Z" fill="#b5b5b5"/>
    <path d="M237.18,92c2.08-1.68,3.12-3,3.12-4.36a1.94,1.94,0,0,0-2.23-2,5.76,5.76,0,0,0-3.07.9l-.89-2.13a7.89,7.89,0,0,1,4.61-1.44c3.11,0,4.65,2,4.65,4.21,0,2.37-1.49,3.76-2.68,4.8Zm.1,4.11h3.32V121h-3.32Z" fill="#b5b5b5"/>
    <path d="M261.14,121V84.53h3.31V121Z" fill="#b5b5b5"/>
    <path d="M273.76,109c0,5.79,2.92,9.6,7.47,9.6,4.36,0,5.79-2.38,6.64-4.31h3.36c-1,3.27-3.66,7.23-10.1,7.23-7.72,0-10.74-6.43-10.74-12.82,0-7.23,3.62-13.27,11-13.27,7.87,0,10.4,6.54,10.4,11.49,0,.74,0,1.43,0,2.08Zm14.6-2.58c-.05-4.55-2.42-8.16-7-8.16-4.8,0-6.93,3.31-7.42,8.16Zm-5.2-21.92,5.45,7.57h-3.47l-3.66-5.5-3.61,5.5h-3.42l5.35-7.57Zm-3.46,45.24V125h3.61v4.8Z" fill="#b5b5b5"/>
  </g>
  <g clip-path="url(#a)">
    <line x1="167.33" y1="105" x2="12.5" y2="105" fill="none" stroke="#fff" stroke-miterlimit="10" stroke-width="0.5"/>
    <line x1="327.33" y1="105" x2="488.5" y2="105" fill="none" stroke="#fff" stroke-miterlimit="10" stroke-width="0.5"/>
    <line x1="12.5" y1="410" x2="488.5" y2="410" fill="none" stroke="#fff" stroke-miterlimit="10" stroke-width="0.5"/>
  </g>
  <g>
    <path d="M25.34,207.45V196.09a8.88,8.88,0,0,1-2.82,1.34v-1.14a9.59,9.59,0,0,0,3.12-1.9H26.7v13.06Z" fill="#92fcff"/>
    <path d="M42.49,192.94v1.85h1.44v1H42.49v8.86c0,.94,0,1.85,0,2.84H41.25a12.91,12.91,0,0,1-.08-1.64,3.13,3.13,0,0,1-3.24,1.87c-2.64,0-4.12-2.25-4.12-5.06s1.64-5.29,4.4-5.29c1.93,0,2.68.87,3,1.52v-3.1h-4.4v-1h4.4v-1.85Zm-4.36,13.54c2.41,0,3.1-1.85,3.1-4.2,0-2-.54-3.75-2.94-3.75-1.87,0-3.12,1.52-3.12,4S36.46,206.48,38.13,206.48Z" fill="#92fcff"/>
    <path d="M45.21,195v-2h1.32v2Zm0,2.56h1.32v9.92H45.21Z" fill="#92fcff"/>
    <path d="M49.86,202.69c0,2.31,1.16,3.83,3,3.83a2.57,2.57,0,0,0,2.65-1.72h1.34a3.91,3.91,0,0,1-4,2.88c-3.07,0-4.27-2.56-4.27-5.1,0-2.88,1.44-5.29,4.37-5.29,3.14,0,4.14,2.6,4.14,4.58,0,.29,0,.57,0,.82Zm5.81-1c0-1.81-1-3.25-2.8-3.25s-2.76,1.32-2.95,3.25Zm-2.21-8.06,2.11,2.66H54.21l-1.47-1.88-1.44,1.88H49.94L52,193.61Zm1.68.61c.77-.59,1.12-1.09,1.12-1.54S56,192,55.51,192a1.86,1.86,0,0,0-1.14.39l-.37-.75a2.6,2.6,0,0,1,1.71-.61c1.11,0,1.66.55,1.66,1.46a2.28,2.28,0,0,1-1,1.7Z" fill="#92fcff"/>
    <path d="M59,200.09c0-.87,0-1.77,0-2.56h1.28c0,.31.06,1.1,0,1.66a3.11,3.11,0,0,1,2.94-1.9A2.74,2.74,0,0,1,66,199.17a3.38,3.38,0,0,1,3.21-1.88c1.56,0,3.12.91,3.12,3.63v6.53h-1.3v-6.37c0-1.24-.46-2.58-2.17-2.58s-2.58,1.39-2.58,3.25v5.7H65v-6.33c0-1.38-.41-2.62-2.11-2.62S60.28,200,60.28,202v5.49H59Z" fill="#92fcff"/>
    <path d="M86.85,205.43a13,13,0,0,0,.14,2H85.73a5.59,5.59,0,0,1-.16-1.42,3.23,3.23,0,0,1-3.17,1.65,3,3,0,0,1-3.32-3c0-2.21,1.72-3.2,4.68-3.2h1.79v-.94c0-1-.3-2.15-2.37-2.15-1.85,0-2.12.94-2.32,1.73h-1.3c.11-1.2.86-2.84,3.66-2.84,2.33,0,3.63,1,3.63,3.18Zm-1.28-2.93H83.78c-2.09,0-3.34.55-3.34,2.11a1.93,1.93,0,0,0,2.13,2c2.64,0,3-1.76,3-3.75Zm-2.9-6.61c.83-.67,1.24-1.18,1.24-1.73a.77.77,0,0,0-.88-.79,2.39,2.39,0,0,0-1.23.35l-.35-.84a3.11,3.11,0,0,1,1.83-.58A1.69,1.69,0,0,1,85.14,194a2.48,2.48,0,0,1-1.07,1.91Z" fill="#92fcff"/>
    <path d="M89.61,200c0-.86,0-1.73,0-2.5h1.28a17.45,17.45,0,0,1,.06,1.77,3.17,3.17,0,0,1,3.21-2c1.82,0,3.33,1.05,3.33,3.75v6.41H96.15v-6.23c0-1.64-.67-2.72-2.3-2.72-2.13,0-2.92,1.71-2.92,3.8v5.15H89.61Z" fill="#92fcff"/>
    <path d="M101.51,192.94v6.17a3.39,3.39,0,0,1,3.2-1.82c1.48,0,3.35.79,3.35,3.83v6.33h-1.32v-6.08c0-1.85-.81-2.87-2.37-2.87-1.89,0-2.86,1.2-2.86,3.46v5.49h-1.32V192.94Z" fill="#92fcff"/>
  </g>
  <g>
    <path d="M339.19,232.41a11.12,11.12,0,0,0-2.48,7,11.57,11.57,0,0,0,2.48,7.13h-1.11a11.87,11.87,0,0,1-2.37-7.14,11.3,11.3,0,0,1,2.37-7Z" fill="#92fcff"/>
    <path d="M347,232.41v1.46h1.14v.76H347v7c0,.74,0,1.46,0,2.23h-1a11.57,11.57,0,0,1-.06-1.28,2.45,2.45,0,0,1-2.54,1.47c-2.09,0-3.25-1.77-3.25-4s1.29-4.16,3.46-4.16c1.52,0,2.11.68,2.33,1.19v-2.44h-3.46v-.76H346v-1.46Zm-3.43,10.67c1.9,0,2.44-1.46,2.44-3.3,0-1.56-.42-3-2.32-3-1.47,0-2.45,1.2-2.45,3.17S342.24,243.08,343.56,243.08Z" fill="#92fcff"/>
    <path d="M354.7,242.26a9.66,9.66,0,0,0,.11,1.58h-1a4.77,4.77,0,0,1-.12-1.11,2.55,2.55,0,0,1-2.5,1.3,2.34,2.34,0,0,1-2.61-2.36c0-1.74,1.35-2.52,3.68-2.52h1.41v-.74c0-.75-.23-1.7-1.86-1.7-1.46,0-1.68.75-1.83,1.37h-1c.09-1,.69-2.24,2.89-2.24,1.83,0,2.86.77,2.86,2.51Zm-1-2.31h-1.41c-1.65,0-2.63.43-2.63,1.66a1.52,1.52,0,0,0,1.68,1.55c2.08,0,2.36-1.38,2.36-2.95Zm-2.31,6.66V245.1h1.13v1.51Z" fill="#92fcff"/>
    <path d="M356.88,234v-1.6h1V234Zm0,2h1v7.81h-1Z" fill="#92fcff"/>
    <path d="M364.82,239.93c.68-.78,2.65-2.81,3.71-3.9h1.27l-3,3.08,3.38,4.73h-1.24l-2.87-4.06L364.82,241v2.87h-1V232.41h1Z" fill="#92fcff"/>
    <path d="M372.06,232.41v4.86a2.67,2.67,0,0,1,2.51-1.43c1.17,0,2.64.63,2.64,3v5h-1v-4.78c0-1.46-.63-2.27-1.86-2.27-1.49,0-2.25,1-2.25,2.74v4.31h-1V232.41Z" fill="#92fcff"/>
    <path d="M384.92,242.26a9.66,9.66,0,0,0,.11,1.58h-1a4.11,4.11,0,0,1-.13-1.11,2.55,2.55,0,0,1-2.5,1.3,2.34,2.34,0,0,1-2.61-2.36c0-1.74,1.35-2.52,3.68-2.52h1.42v-.74c0-.75-.24-1.7-1.87-1.7-1.46,0-1.67.75-1.83,1.37h-1c.1-1,.69-2.24,2.89-2.24,1.84,0,2.86.77,2.86,2.51Zm-1-2.31H382.5c-1.65,0-2.63.43-2.63,1.66a1.52,1.52,0,0,0,1.68,1.55c2.08,0,2.36-1.38,2.36-2.95Zm.79-7.69-2.34,2.42h-1l2.06-2.42Z" fill="#92fcff"/>
    <path d="M387.1,234v-1.6h1V234Zm0,2h1v7.81h-1Z" fill="#92fcff"/>
    <path d="M394,243.84V232.41h1v11.43Z" fill="#92fcff"/>
    <path d="M402.76,242.26a9.66,9.66,0,0,0,.11,1.58h-1a4.26,4.26,0,0,1-.12-1.11,2.55,2.55,0,0,1-2.5,1.3,2.34,2.34,0,0,1-2.61-2.36c0-1.74,1.35-2.52,3.68-2.52h1.41v-.74c0-.75-.23-1.7-1.86-1.7-1.46,0-1.68.75-1.83,1.37h-1c.09-1,.69-2.24,2.89-2.24,1.83,0,2.86.77,2.86,2.51Zm-4.13-10,2.06,2.42h-1l-2.36-2.42Zm3.12,7.69h-1.41c-1.65,0-2.63.43-2.63,1.66a1.52,1.52,0,0,0,1.68,1.55c2.08,0,2.36-1.38,2.36-2.95Z" fill="#92fcff"/>
    <path d="M409.67,239.93c.69-.78,2.66-2.81,3.72-3.9h1.27l-3,3.08,3.38,4.73h-1.24l-2.87-4.06L409.67,241v2.87h-1V232.41h1Z" fill="#92fcff"/>
    <path d="M416.92,232.41v4.86a2.66,2.66,0,0,1,2.51-1.43c1.17,0,2.64.63,2.64,3v5h-1v-4.78c0-1.46-.64-2.27-1.86-2.27-1.49,0-2.25,1-2.25,2.74v4.31h-1V232.41Z" fill="#92fcff"/>
    <path d="M430.73,239.92c0,2.22-1.24,4.11-3.61,4.11-2.17,0-3.49-1.74-3.49-4.08s1.27-4.11,3.57-4.11C429.33,235.84,430.73,237.46,430.73,239.92Zm-6,0c0,1.8.95,3.18,2.49,3.18s2.45-1.28,2.45-3.16-.87-3.19-2.48-3.19S424.7,238.1,424.7,239.93Z" fill="#92fcff"/>
    <path d="M437.84,242.26a11,11,0,0,0,.11,1.58h-1a4.59,4.59,0,0,1-.13-1.11,2.54,2.54,0,0,1-2.5,1.3,2.34,2.34,0,0,1-2.61-2.36c0-1.74,1.36-2.52,3.69-2.52h1.41v-.74c0-.75-.23-1.7-1.86-1.7-1.46,0-1.68.75-1.84,1.37h-1c.09-1,.68-2.24,2.89-2.24,1.83,0,2.85.77,2.85,2.51Zm-1-2.31h-1.41c-1.64,0-2.62.43-2.62,1.66a1.51,1.51,0,0,0,1.67,1.55c2.09,0,2.36-1.38,2.36-2.95Zm-2.28-5.21c.65-.53,1-.93,1-1.36a.61.61,0,0,0-.7-.63,1.82,1.82,0,0,0-1,.28l-.28-.66a2.44,2.44,0,0,1,1.44-.45,1.32,1.32,0,0,1,1.46,1.32,1.93,1.93,0,0,1-.84,1.5Z" fill="#92fcff"/>
    <path d="M440,238c0-.68,0-1.36,0-2h1a13.09,13.09,0,0,1,0,1.4,2.5,2.5,0,0,1,2.53-1.59c1.43,0,2.63.83,2.63,3v5h-1v-4.9c0-1.29-.53-2.15-1.82-2.15-1.68,0-2.3,1.35-2.3,3v4.05h-1Z" fill="#92fcff"/>
    <path d="M454.55,243.24c0,2.5-1.07,3.87-3.48,3.87-2.18,0-3-1.23-3.14-2.36H449a2,2,0,0,0,2.13,1.46c1.92,0,2.42-1.23,2.42-3.13v-.73a2.44,2.44,0,0,1-2.53,1.48c-1.88,0-3.23-1.52-3.23-3.88,0-2.6,1.49-4.11,3.35-4.11,1.55,0,2.21.74,2.41,1.31,0-.4,0-1,.06-1.12h1c0,.36,0,1.51,0,2.25Zm-3.36-.34c1.84,0,2.38-1.21,2.38-3.11s-.56-3-2.33-3-2.38,1.4-2.38,3.14S449.78,242.9,451.19,242.9Z" fill="#92fcff"/>
    <path d="M466.33,241.5a3,3,0,0,1-3.12,2.53c-2,0-3.41-1.49-3.41-4.05,0-2.18,1.2-4.14,3.5-4.14a2.86,2.86,0,0,1,3,2.55h-1a1.94,1.94,0,0,0-2-1.63c-1.52,0-2.39,1.31-2.39,3.17s.82,3.18,2.33,3.18a2,2,0,0,0,2.07-1.61Z" fill="#92fcff"/>
    <path d="M473.33,242.26a11,11,0,0,0,.11,1.58h-1a4.59,4.59,0,0,1-.13-1.11,2.55,2.55,0,0,1-2.5,1.3,2.34,2.34,0,0,1-2.61-2.36c0-1.74,1.36-2.52,3.69-2.52h1.41v-.74c0-.75-.23-1.7-1.87-1.7-1.46,0-1.67.75-1.83,1.37h-1c.09-1,.68-2.24,2.89-2.24,1.83,0,2.85.77,2.85,2.51Zm-1-2.31h-1.41c-1.65,0-2.62.43-2.62,1.66a1.51,1.51,0,0,0,1.67,1.55c2.08,0,2.36-1.38,2.36-2.95Zm.8-7.69-2.35,2.42h-1l2.07-2.42Z" fill="#92fcff"/>
    <path d="M481.45,241.5a3.05,3.05,0,0,1-3.13,2.53c-2,0-3.4-1.49-3.4-4.05,0-2.18,1.2-4.14,3.5-4.14a2.86,2.86,0,0,1,3,2.55H480.4a1.93,1.93,0,0,0-2-1.63c-1.52,0-2.39,1.31-2.39,3.17s.82,3.18,2.33,3.18a2,2,0,0,0,2.06-1.61Z" fill="#92fcff"/>
    <path d="M483.93,232.41v4.86a2.68,2.68,0,0,1,2.52-1.43c1.16,0,2.64.63,2.64,3v5h-1v-4.78c0-1.46-.64-2.27-1.86-2.27-1.5,0-2.26,1-2.26,2.74v4.31h-1V232.41Z" fill="#92fcff"/>
    <path d="M342.19,261.89c0,2.5-1.07,3.86-3.48,3.86-2.17,0-3-1.22-3.14-2.36h1.06a2,2,0,0,0,2.13,1.46c1.92,0,2.42-1.23,2.42-3.12V261a2.43,2.43,0,0,1-2.53,1.48c-1.88,0-3.23-1.53-3.23-3.89,0-2.59,1.49-4.1,3.35-4.1,1.56,0,2.21.73,2.41,1.31,0-.41.05-1,.06-1.12h1c0,.36,0,1.5,0,2.25Zm-3.35-.35c1.83,0,2.37-1.21,2.37-3.1s-.56-3-2.33-3-2.37,1.4-2.37,3.14S337.42,261.54,338.84,261.54Z" fill="#92fcff"/>
    <path d="M344.34,252.66v-1.6h1v1.6Zm0,2h1v7.81h-1Z" fill="#92fcff"/>
    <path d="M350.09,262.68c-1.21,0-2.58-.55-2.58-2.85v-5.15h1v4.92c0,1.09.34,2.13,1.77,2.13,1.6,0,2.22-.9,2.22-3v-4H353c.89-.16,1.2-.58,1.2-1.14a2.59,2.59,0,0,0-.17-.87h1a3.2,3.2,0,0,1,.11.83,1.88,1.88,0,0,1-1.57,1.91v4.8c0,.76,0,1.91,0,2.28h-1a11.53,11.53,0,0,1,0-1.27A2.37,2.37,0,0,1,350.09,262.68ZM348.24,253v-.29c0-1.05.46-1.42,1.19-1.42s1.62.81,2.19.81c.31,0,.47-.16.47-.7v-.17h.78v.29c0,1.08-.47,1.48-1.2,1.48s-1.51-.82-2.21-.82c-.27,0-.43.15-.43.56V253Z" fill="#92fcff"/>
    <path d="M361.29,260.91a9.66,9.66,0,0,0,.11,1.58h-1a4.35,4.35,0,0,1-.12-1.12,2.53,2.53,0,0,1-2.5,1.31,2.34,2.34,0,0,1-2.61-2.36c0-1.74,1.35-2.52,3.68-2.52h1.41v-.75c0-.74-.23-1.69-1.86-1.69-1.46,0-1.68.75-1.83,1.37h-1c.09-1,.69-2.24,2.89-2.24,1.83,0,2.86.76,2.86,2.5Zm-1-2.32h-1.41c-1.65,0-2.63.44-2.63,1.66a1.53,1.53,0,0,0,1.68,1.56c2.08,0,2.36-1.39,2.36-2.95Z" fill="#92fcff"/>
    <path d="M367.41,251.65h1.1v4.63h6.12v-4.63h1.12v10.84h-1.12v-5.23h-6.12v5.23h-1.1Z" fill="#92fcff"/>
    <path d="M383.73,260.91a11.43,11.43,0,0,0,.1,1.58h-1a4.35,4.35,0,0,1-.12-1.12,2.53,2.53,0,0,1-2.5,1.31,2.33,2.33,0,0,1-2.61-2.36c0-1.74,1.35-2.52,3.68-2.52h1.41v-.75c0-.74-.23-1.69-1.86-1.69-1.46,0-1.68.75-1.84,1.37h-1c.09-1,.68-2.24,2.89-2.24,1.83,0,2.86.76,2.86,2.5Zm-4.14-10,2.07,2.43h-1l-2.36-2.43Zm3.13,7.69H381.3c-1.64,0-2.62.44-2.62,1.66a1.53,1.53,0,0,0,1.68,1.56c2.08,0,2.36-1.39,2.36-2.95Z" fill="#92fcff"/>
    <path d="M389.85,262.49V251.65h1.54c1.63,2.58,5.33,8.32,6,9.51h0c-.09-1.5-.07-3.14-.07-4.91v-4.6h1.07v10.84H397c-1.54-2.44-5.33-8.51-6.06-9.72h0c.08,1.33.08,3,.08,5v4.72Z" fill="#92fcff"/>
    <path d="M407.31,258.56c0,2.22-1.24,4.12-3.6,4.12-2.18,0-3.5-1.74-3.5-4.09s1.28-4.1,3.58-4.1C405.92,254.49,407.31,256.11,407.31,258.56Zm-6,0c0,1.8.94,3.18,2.48,3.18s2.46-1.29,2.46-3.17-.87-3.18-2.49-3.18S401.29,256.74,401.29,258.58Zm3-7.52,1.71,2.38h-1.09l-1.15-1.73-1.13,1.73h-1.08l1.68-2.38Zm-1.09,14.2v-1.51h1.13v1.51Z" fill="#92fcff"/>
    <path d="M408.87,252.66v-1.6h1v1.6Zm0,2h1v7.81h-1Z" fill="#92fcff"/>
    <path d="M415.88,254.68c1.16,3.4,2,5.82,2.26,6.8h0c.17-.71,1-3,2.39-6.8h1.07l-2.92,7.81h-1.18l-2.76-7.81Z" fill="#92fcff"/>
    <path d="M428.34,260.91a11.43,11.43,0,0,0,.1,1.58h-1a4.35,4.35,0,0,1-.12-1.12,2.55,2.55,0,0,1-2.5,1.31,2.33,2.33,0,0,1-2.61-2.36c0-1.74,1.35-2.52,3.68-2.52h1.41v-.75c0-.74-.23-1.69-1.86-1.69-1.46,0-1.68.75-1.84,1.37h-1c.09-1,.68-2.24,2.89-2.24,1.83,0,2.86.76,2.86,2.5Zm-4.14-10,2.07,2.43h-1l-2.36-2.43Zm3.13,7.69h-1.42c-1.64,0-2.62.44-2.62,1.66a1.52,1.52,0,0,0,1.67,1.56c2.09,0,2.37-1.39,2.37-2.95Z" fill="#92fcff"/>
    <path d="M436.67,252.63h-3.58v-1h8.28v1h-3.59v9.86h-1.11Z" fill="#92fcff"/>
    <path d="M448.92,258.56c0,2.22-1.24,4.12-3.6,4.12-2.17,0-3.49-1.74-3.49-4.09s1.27-4.1,3.57-4.1C447.53,254.49,448.92,256.11,448.92,258.56Zm-6,0c0,1.8.94,3.18,2.48,3.18s2.46-1.29,2.46-3.17-.87-3.18-2.49-3.18S442.9,256.74,442.9,258.58Z" fill="#92fcff"/>
    <path d="M451.52,258.58c.68-.78,2.66-2.81,3.71-3.9h1.28l-3,3.07,3.39,4.74h-1.24l-2.88-4.07-1.24,1.2v2.87h-1V251.06h1Z" fill="#92fcff"/>
    <path d="M457.81,254.68c1.45,4.13,2.13,6.09,2.38,6.91h0c.28-.93.87-2.73,2.28-6.91h1.05l-2.87,8.22c-.82,2.31-1.38,2.85-2.89,2.85a6.85,6.85,0,0,1-.77,0v-1a4.94,4.94,0,0,0,.68.05c1.06,0,1.43-.5,2-2l-3-8.14Z" fill="#92fcff"/>
    <path d="M471.19,258.56c0,2.22-1.24,4.12-3.6,4.12-2.18,0-3.5-1.74-3.5-4.09s1.28-4.1,3.58-4.1C469.79,254.49,471.19,256.11,471.19,258.56Zm-6,0c0,1.8.95,3.18,2.49,3.18s2.45-1.29,2.45-3.17-.87-3.18-2.48-3.18S465.16,256.74,465.16,258.58Z" fill="#92fcff"/>
    <path d="M472.14,265.15a11.2,11.2,0,0,0,2.47-7,11.51,11.51,0,0,0-2.47-7.13h1.12a11.88,11.88,0,0,1,2.36,7.14,11.35,11.35,0,0,1-2.36,6.95Z" fill="#92fcff"/>
  </g>
</svg>
